<svg width="80" height="86" viewBox="0 0 80 86" fill="none" xmlns="http://www.w3.org/2000/svg">
<path d="M25.1432 82.6704C11.8234 64.9536 4.12486 45.1417 3.87259 22.5545C3.44345 21.3373 3.51468 19.9995 4.07063 18.8347C4.62658 17.6699 5.62185 16.7732 6.83811 16.3413L52.239 0.277274C53.4562 -0.15186 54.7939 -0.0806181 55.9587 0.475338C57.1235 1.03129 58.0202 2.02658 58.4521 3.24284L79.7227 63.3587C80.1519 64.576 80.0806 65.9137 79.5247 67.0785C78.9687 68.2433 77.9735 69.14 76.7572 69.5719L31.3564 85.636C30.1392 86.0651 28.8014 85.9939 27.6366 85.4379C26.4718 84.882 25.5751 83.8867 25.1432 82.6704Z" fill="#E6E6E6"/>
<path d="M22.2012 63.2807C14.1902 55.1808 10.761 40.7343 8.52649 24.6328C8.12457 23.4928 8.19126 22.2399 8.71193 21.1491C9.23259 20.0582 10.1647 19.2184 11.3038 18.814L50.322 5.00828C51.462 4.60633 52.7148 4.67299 53.8057 5.19364C54.8966 5.71428 55.7365 6.6464 56.141 7.78548L75.0689 61.2804C75.4708 62.4204 75.4041 63.6733 74.8834 64.7641C74.3627 65.855 73.4305 66.6948 72.2914 67.0993L48.1205 75.6516C43.0426 77.4419 37.462 77.1448 32.6028 74.8256C27.7437 72.5064 24.0029 68.3545 22.2012 63.2807Z" fill="white"/>
<path d="M56.6632 36.6038L26.2691 47.453C25.7854 47.6256 25.253 47.599 24.7889 47.3791C24.3249 47.1592 23.9671 46.764 23.7945 46.2803C23.6219 45.7966 23.6484 45.2642 23.8684 44.8001C24.0883 44.336 24.4836 43.9783 24.9672 43.8057L55.3614 32.9565C55.8449 32.7845 56.3769 32.8114 56.8406 33.0314C57.3042 33.2515 57.6616 33.6465 57.8341 34.1299C58.0066 34.6132 57.9802 35.1453 57.7606 35.6092C57.5411 36.0731 57.1464 36.4308 56.6632 36.6038Z" fill="#008BC4"/>
<path d="M29.386 35.0649L22.6993 37.4517C22.2158 37.6237 21.6837 37.5967 21.2201 37.3767C20.7564 37.1567 20.3991 36.7616 20.2266 36.2783C20.0541 35.795 20.0805 35.2629 20.3 34.7991C20.5196 34.3352 20.9142 33.9774 21.3974 33.8044L28.0841 31.4176C28.3236 31.3318 28.5777 31.294 28.8319 31.3065C29.086 31.319 29.3352 31.3815 29.5652 31.4903C29.7952 31.5992 30.0015 31.7523 30.1723 31.9409C30.3431 32.1295 30.475 32.35 30.5606 32.5896C30.6461 32.8292 30.6835 33.0834 30.6708 33.3375C30.6581 33.5917 30.5953 33.8408 30.4863 34.0707C30.3772 34.3005 30.2239 34.5067 30.0351 34.6773C29.8463 34.8479 29.6257 34.9796 29.386 35.0649Z" fill="#008BC4"/>
<path d="M59.525 44.6207L29.1309 55.4698C28.6472 55.6425 28.1148 55.6159 27.6507 55.396C27.1866 55.1761 26.8289 54.7808 26.6563 54.2971C26.4836 53.8135 26.5102 53.2811 26.7301 52.817C26.9501 52.3529 27.3453 51.9952 27.829 51.8226L58.2231 40.9735C58.4626 40.8877 58.7167 40.85 58.9709 40.8624C59.225 40.8749 59.4742 40.9373 59.7042 41.0462C59.9342 41.155 60.1405 41.3082 60.3113 41.4968C60.4821 41.6854 60.614 41.9059 60.6996 42.1455C60.7851 42.3851 60.8225 42.6393 60.8098 42.8934C60.7971 43.1475 60.7343 43.3967 60.6253 43.6266C60.5162 43.8564 60.3629 44.0625 60.1741 44.2331C59.9853 44.4037 59.7647 44.5354 59.525 44.6207Z" fill="#008BC4"/>
<path d="M8.06736 28.1942C12.5228 28.1942 16.1347 24.5823 16.1347 20.1269C16.1347 15.6714 12.5228 12.0596 8.06736 12.0596C3.61188 12.0596 0 15.6714 0 20.1269C0 24.5823 3.61188 28.1942 8.06736 28.1942Z" fill="#74969D"/>
</svg>
