<svg width="80" height="86" fill="none" xmlns="http://www.w3.org/2000/svg"><path d="M25.143 82.67C11.823 64.954 4.125 45.142 3.873 22.555a4.874 4.874 0 0 1 2.965-6.214L52.24.277a4.873 4.873 0 0 1 6.213 2.966l21.27 60.116a4.874 4.874 0 0 1-2.965 6.213l-45.4 16.064a4.874 4.874 0 0 1-6.214-2.966z" fill="#E6E6E6"/><path d="M22.201 63.28c-8.01-8.1-11.44-22.546-13.675-38.647a4.564 4.564 0 0 1 2.778-5.819L50.322 5.008a4.564 4.564 0 0 1 5.819 2.777L75.069 61.28a4.564 4.564 0 0 1-2.778 5.82l-24.17 8.552A20.331 20.331 0 0 1 22.2 63.28z" fill="#fff"/><path d="M56.663 36.604 26.27 47.453a1.937 1.937 0 0 1-1.302-3.647l30.394-10.85a1.937 1.937 0 0 1 1.302 3.648zM29.386 35.065l-6.687 2.387a1.937 1.937 0 0 1-1.302-3.648l6.687-2.386a1.935 1.935 0 1 1 1.302 3.647zM59.525 44.62 29.131 55.47a1.936 1.936 0 1 1-1.302-3.647l30.394-10.85a1.937 1.937 0 1 1 1.302 3.648z" fill="#008BC4"/><path d="M8.067 28.194a8.067 8.067 0 1 0 0-16.135 8.067 8.067 0 0 0 0 16.135z" fill="#74969D"/></svg>