<svg width="143" height="150" fill="none" xmlns="http://www.w3.org/2000/svg"><path opacity=".1" d="M70.258 149.179c38.803 0 70.259-1.121 70.259-2.504s-31.456-2.504-70.258-2.504C31.456 144.171 0 145.292 0 146.675s31.456 2.504 70.258 2.504zM51.788 4.546C56.264.557 63.29-.256 69.685.062c20.087.998 38.22 10.696 53.905 21.665 5.678 3.971 11.268 8.25 14.954 13.72 7.503 11.131 5.277 26.553-5.156 35.724-3.549 3.12-7.852 5.512-12.27 7.632-7.855 3.77-16.33 6.797-25.244 7.658-6.358.615-12.793.115-19.113-.742-17.658-2.395-34.99-7.69-49.518-16.75-6.371-3.973-12.377-8.913-15.003-15.342-2.626-6.428-.946-14.574 5.56-18.379 2.691-1.574 5.908-2.284 9.058-2.952 4.636-.982 9.347-1.95 13.531-3.947 4.321-2.063 9.438-6.052 8.583-10.618-.918-4.899-1.655-9.2 2.816-13.185z" fill="#6AC5D7"/><path d="M98.002 56.574c-.306-.592-1.923-4.273-1.923-4.273l-2.71-7.022s-1.924-2.96-1.924-3.51c0-.55-3.496-2.75-3.496-2.75s-2.841-.846-3.06-.93c-.218-.085-3.584-1.199-3.584-1.199s-1.325-1.742-1.514-1.287v.001l-.021-.033a4.502 4.502 0 0 1-.505-1.63c-.008-.05-.014-.104-.02-.157a6.484 6.484 0 0 0 2.847-5.34c0-.278-.02-.555-.056-.83a.58.58 0 0 1 .075-.04c.054-.024.04-.043 0-.063.014-.007.028-.015.042-.02.072-.032.024-.056-.046-.084l.004-.002c.099-.043-.026-.071-.126-.117l-.016-.087a.59.59 0 0 0 .04-.175l.026.014a.742.742 0 0 0-.002-.331.575.575 0 0 1-.023.065.551.551 0 0 0-.254-.501l-.016-.014.186-1.897c2.733-.13 3.213-4.78 2.59-5.038-.624-.258 0-.818 0-1.938 0-1.119-2.063-2.368-2.063-2.368s-.863.43-2.206-1.722c-1.342-2.153-6.281-2.497-6.617-1.938-.336.56-2.541 1.292-5.418 2.11-2.878.818-2.35 4.22-1.87 4.952.394.605.626 1.302.67 2.023 0 .431.912 2.24.912 2.24-.288.626.444 4.059.66 5.035l-.01.09-.006.008a.561.561 0 0 0-.072.373c-.016.12.001.242.049.353a6.453 6.453 0 0 0 2.288 4.815l.01.178c.04.797.063 1.74.02 2.641-.001.046-.005.092-.007.138a1.033 1.033 0 0 0-.732.576c-.27.522-1.844 1.325-1.844 1.325s-2.754.127-3.016.635c-.262.507-4.24 2.2-4.24 2.2s-2.098 1.226-1.792 2.622c.16.73-.289 1.863-.754 2.779a13.198 13.198 0 0 0-3.017-.752l2.228 2.131-.074.114-1.268 4.484s-.437 1.566-.874 1.946c-.437.38.394 3.85.394 3.85s-.481 2.453-.875 3.088c-.393.634.612 2.2.612 2.2l2.01 4.568 5.333 1.353.93.198-.056.327c-.256 1.455-.594 2.793-1.005 3.156-1.005.888-.961 4.864-.961 4.864l.043 5.626s.35 6.937.175 7.191c-.11.16.111.422.696.656-.017.105-.034.21-.049.319-.164 1.15-.238 2.463.14 3.044.164.314.254.661.262 1.015 0 .55.83 1.692.83 1.692s-.655 4.695.438 6.303c1.092 1.607 2.01 4.526 1.486 5.203 0 0-.918 1.988-.481 2.876.437.889 0 1.396-.568 1.608-.569.211-.52 1.946-.52 1.946l1.044 8.248s.569 1.692.088 2.285c-.481.592-.481 3.553.262 4.568.743 1.015-1.05 2.876-1.05 2.876s-1.092 1.566.657 2.073c0 0 .35.085-.306.762-.656.676-.787 1.522-.35 1.819a2 2 0 0 0 .283.14c-.016.101-.033.204-.054.315-.168.883-.484 2.033-1.06 2.59a18.452 18.452 0 0 0-2.862 3.814c-.6 1.137-.862 2.201-.197 2.701 1.573 1.184 3.584 1.565 4.764 1.099 1.18-.465 2.841-1.903 2.841-1.903l.393-1.65s-.262-1.015 1.05-1.396c1.31-.381 2.535-1.734 2.535-1.734v-2.193c.317-.181.624-.381.918-.599 0 0 .611-2.157 0-2.876-.612-.72-.83-.973-.044-1.439.787-.465.893-1.48.316-2.369-.578-.888-1.496-2.199-.71-4.06.787-1.862 1.076-7.572 1.076-7.572s-.367-3.892 0-4.78c.367-.889-.42-2.665-.42-2.665s.262-2.2.743-3.215c.481-1.015.874-6.387.874-6.387s.874-2.285.874-3.765-1.354-5.034.656-5.965c0 0 .874.762.525 3.807 0 0 1.005 3.554 1.005 4.653 0 1.1.743 5.077.743 5.077s.087 1.269.393 1.734c.306.465 0 1.734 0 1.734s1.137 1.058.83 1.735c-.305.676.053 2.203.053 2.203l-.27 9.472s-.787 4.06 1.048 6.514c0 0-.655 3.595-1.049 3.849-.393.254 1.443 2.454 1.443 2.454s-.51 1.425.524 1.495v2.354c.359.634.851 1.182 1.443 1.608.961.676.568 3.003.568 3.003s1.224 2.961 4.458 2.326c3.234-.634 3.672-.93 3.497-1.988a23.123 23.123 0 0 0-.404-1.856c-.348-1.359-.881-2.998-1.52-3.807-1.005-1.274-1.835-3.939-1.835-3.939s-.394-.888 0-1.184c.393-.296.218-.846.218-.846s.383-1.1.039-1.777c-.345-.677.66-2.073.66-2.073l-.305-6.514.306-9.475s-1.355-1.566-.787-2.496c.568-.931-.656-2.242-.656-2.242s-.13-.042.219-1.1a2.638 2.638 0 0 0-.088-1.904s-.743-2.622.569-4.61c0 0 .568-2.623.743-3.977.12-.94.876-4.455 1.325-6.51l.073-.334c.647.035 1.137.076 1.137.076s-1.005-6.98 0-8.418c1.005-1.438-.787-12.436-.787-12.436s-.428-1.922-.692-3.883c-.015-.112-.03-.224-.043-.335a21.197 21.197 0 0 1 2.44-.054c2.098.126 4.152-.677 4.196-1.48.043-.805 1.18-3.977 1.355-4.696.175-.72.306-3.173 0-3.765z" fill="url(#a)"/><path d="M72.498 138.177v3.917s-1.18 1.348-2.443 1.727c-1.264.379-1.011 1.389-1.011 1.389l-.379 1.643s-1.6 1.432-2.738 1.895c-1.137.464-3.074.084-4.59-1.095-.64-.497-.388-1.556.19-2.688a18.348 18.348 0 0 1 2.758-3.798c.554-.554.86-1.7 1.02-2.579.12-.659.16-1.169.16-1.169l7.033.758z" fill="#4C495A"/><path opacity=".1" d="M72.498 141.1v.994s-1.18 1.348-2.443 1.727c-1.264.379-1.011 1.39-1.011 1.39l-.379 1.642s-1.6 1.432-2.738 1.895c-1.137.464-3.074.085-4.59-1.095-.64-.497-.388-1.556.19-2.688-.027 1.189.325 2.525 2.042 2.478a8.698 8.698 0 0 0 5.096-1.853s-.042-2.78 1.895-3.412a5.88 5.88 0 0 0 1.938-1.078z" fill="#000"/><path d="M87.912 148.201c-3.116.632-4.296-2.317-4.296-2.317s.38-2.316-.547-2.99a4.968 4.968 0 0 1-1.39-1.6v-3.875l3.79-2.695 2.052 1.816.138.121s.8 2.653 1.77 3.922c.614.805 1.128 2.438 1.463 3.79.194.779.329 1.464.39 1.848.168 1.053-.253 1.348-3.37 1.98z" fill="#4C495A"/><path opacity=".1" d="M87.912 148.201c-3.116.632-4.296-2.316-4.296-2.316s.38-2.317-.547-2.991a4.968 4.968 0 0 1-1.39-1.6v-1.501c.601.635 1.735 1.865 1.98 2.385.336.716.378 3.328 1.937 3.791 1.558.463 4.59.884 4.843-.295.105-.448.257-.884.453-1.3.194.778.329 1.464.39 1.848.168 1.053-.253 1.347-3.37 1.979zM65.464 137.419l7.034.758v2.07c-.794.47-1.931.969-2.57.457-.943-.755-3.748-1.713-4.622-2.116.12-.659.158-1.169.158-1.169zM87.66 136.998c-.97-.337-2.696 1.137-4.97 2.064a2.355 2.355 0 0 1-1.011.225v-1.868l3.79-2.695 2.052 1.816c.032.156.078.31.138.458z" fill="#000"/><path d="M90.144 90.627s-.133.62-.323 1.52c-.433 2.047-1.16 5.546-1.277 6.483-.169 1.347-.716 3.959-.716 3.959-1.264 1.979-.548 4.59-.548 4.59.257.601.286 1.274.085 1.895-.337 1.053-.21 1.095-.21 1.095s1.178 1.306.63 2.233c-.547.926.759 2.485.759 2.485l-.295 9.434.295 6.486s-.969 1.389-.637 2.063c.332.674-.037 1.769-.037 1.769s.168.548-.21.842c-.38.295 0 1.18 0 1.18-.97-.337-2.696 1.137-4.97 2.063-2.275.927-1.516-1.263-1.516-1.263s-1.77-2.19-1.39-2.443c.379-.253 1.01-3.832 1.01-3.832-1.768-2.443-1.01-6.486-1.01-6.486l.26-9.431s-.344-1.52-.05-2.193c.295-.674-.8-1.727-.8-1.727s.295-1.264 0-1.727c-.295-.463-.379-1.727-.379-1.727s-.716-3.959-.716-5.054c0-1.095-.969-4.632-.969-4.632.337-3.033-.505-3.791-.505-3.791-1.937.926-.632 4.464-.632 5.938 0 1.474-.842 3.749-.842 3.749s-.38 5.349-.842 6.359c-.464 1.011-.716 3.201-.716 3.201s.758 1.769.404 2.654c-.354.884 0 4.759 0 4.759s-.278 5.685-1.036 7.539c-.758 1.853.126 3.158.684 4.043.556.884.453 1.895-.305 2.358-.758.463-.548.716.042 1.432.59.716 0 2.864 0 2.864s-2.4 1.895-3.454 1.053c-1.052-.842-4.422-1.937-4.843-2.232-.421-.295-.295-1.137.337-1.811.632-.674.295-.758.295-.758-1.685-.506-.632-2.064-.632-2.064s1.727-1.853 1.01-2.864c-.715-1.011-.715-3.959-.252-4.548.463-.59-.084-2.275-.084-2.275l-1.006-8.212s-.047-1.727.5-1.938c.548-.21.97-.716.548-1.6-.421-.885.463-2.864.463-2.864.506-.674-.379-3.58-1.432-5.18-1.052-1.601-.42-6.276-.42-6.276s-.801-1.137-.801-1.684a2.36 2.36 0 0 0-.253-1.011c-.364-.578-.293-1.885-.134-3.031.153-1.109.387-2.065.387-2.065l26.533.674z" fill="#5F5D7E"/><path d="m81.89 42.91-8.297 1.937s-4.086-3.454-3.075-5.307c.347-.636.5-1.723.553-2.872.04-.898.018-1.836-.02-2.63-.06-1.147-.154-1.994-.154-1.994s8.508-4.802 8.213 0c-.06.8-.041 1.603.055 2.399.06.566.226 1.116.487 1.622.455.81 1.016.822 1.016.822l1.221 6.023z" fill="#FDC2CC"/><path opacity=".1" d="M79.165 34.443a6.526 6.526 0 0 1-8.115-.405c-.058-1.147-.153-1.994-.153-1.994s8.508-4.802 8.213 0c-.06.8-.041 1.603.055 2.399z" fill="#000"/><path d="M75.362 35.497a6.528 6.528 0 1 0 0-13.056 6.528 6.528 0 0 0 0 13.056z" fill="#FDC2CC"/><path opacity=".1" d="m81.89 42.91-8.297 1.937s-4.086-3.453-3.075-5.307c.347-.636.5-1.723.553-2.872.183 1 .72 1.899 1.51 2.535 1.896 1.264 1.601 2.822 1.601 2.822l3.412-.126c-.21-1.39 1.053-2.148 1.474-2.316.42-.169.21-.927.21-.927l.374-2.591c.455.81 1.016.822 1.016.822l1.221 6.023zM90.144 90.627s-.133.62-.323 1.52c-.916-.049-2.128-.084-2.667.039-.926.21-4.633.295-4.633.295l-9.181.325v-.283c-1.056.008-2.11.079-3.159.21-1.558.21-4-.084-5.56-.337a5.99 5.99 0 0 1-1.397-.377c.153-1.109.387-2.065.387-2.065l26.533.674z" fill="#000"/><path d="M89.428 63.884c-.133.786-.035 2.09.133 3.377.255 1.953.668 3.867.668 3.867s1.726 10.95.758 12.382c-.969 1.432 0 8.381 0 8.381s-2.906-.253-3.833-.042c-.926.21-4.633.295-4.633.295l-9.181.325v-.283c-1.056.008-2.11.079-3.159.21-1.558.211-4-.084-5.56-.336-1.557-.253-2.19-.758-2.02-1.011.168-.253-.17-7.16-.17-7.16l-.041-5.602s-.042-3.958.926-4.843c.396-.36.721-1.693.969-3.142.355-2.097.547-4.439.547-4.439l-6.401-17.141-.127-.337s1.853-2.864 1.559-4.254c-.295-1.39 1.727-2.611 1.727-2.611s3.832-1.685 4.085-2.19c.252-.506 2.906-.632 2.906-.632s1.516-.8 1.777-1.319a.997.997 0 0 1 .706-.575 4.241 4.241 0 0 0 1.518 2.568c1.895 1.263 1.6 2.822 1.6 2.822l3.412-.127c-.21-1.39 1.053-2.148 1.474-2.316.42-.168.21-.927.21-.927l.395-2.727c.181-.453 1.459 1.282 1.459 1.282s3.242 1.108 3.453 1.193c.21.084 2.948.926 2.948.926s3.37 2.19 3.37 2.738c0 .547 1.853 3.495 1.853 3.495l-.063.334c-.428 2.322-2.956 16.008-3.265 17.819z" fill="#6AC5D7"/><path d="M75.951 57.06s-7.286-1.937-8.002-2.4c-.716-.463-4.928 2.232.21 5.896 0 0 6.284 1.306 7.965 0 1.68-1.305-.173-3.496-.173-3.496z" fill="#FDC2CC"/><path opacity=".1" d="m91.703 45.521.884.042 2.611 6.991s1.559 3.665 1.854 4.254c.294.59.168 3.033 0 3.749-.169.715-1.264 3.874-1.306 4.674-.042.8-2.022 1.6-4.043 1.475-2.022-.127-6.739.505-6.739.505s-5.038-.527-8.128 1.053c0 0-1.98-4.085-1.77-11.708 0 0 3.496-.211 4.38.126.885.337 5.181 1.305 5.729.8.547-.505 3.032.927 3.032.927a2.133 2.133 0 0 0 0-1.77c-.421-1.01-1.137-4.169-.21-5.18.926-1.01 3.706-5.938 3.706-5.938z" fill="#000"/><path opacity=".1" d="M89.561 67.261c-2.09.142-4.429.455-4.429.455s-5.037-.527-8.128 1.053c0 0-1.98-4.085-1.769-11.708 0 0 3.496-.21 4.38.126.885.337 5.18 1.306 5.728.8.548-.505 3.032.927 3.032.927a2.135 2.135 0 0 0 0-1.769c-.42-1.01-1.137-4.17-.21-5.18.926-1.011 3.706-5.939 3.706-5.939l.822.04c-.428 2.32-2.956 16.007-3.265 17.818-.133.787-.035 2.09.133 3.377z" fill="#000"/><path d="m91.871 45.69.885.042 2.61 6.991s1.56 3.665 1.854 4.254c.295.59.168 3.033 0 3.748-.169.716-1.264 3.875-1.306 4.675-.042.8-2.021 1.6-4.043 1.474-2.021-.126-6.739.506-6.739.506s-5.037-.527-8.128 1.053c0 0-1.98-4.086-1.769-11.709 0 0 3.496-.21 4.38.127.885.337 5.18 1.305 5.728.8.548-.505 3.032.927 3.032.927a2.135 2.135 0 0 0 0-1.77c-.42-1.01-1.137-4.169-.21-5.18.926-1.01 3.706-5.938 3.706-5.938z" fill="#6AC5D7"/><path d="m82.973 61.16 1.051.65 5.856-9.458-1.05-.65-5.857 9.457z" fill="#DFE6F5"/><path d="M92.883 51.072c1.035-1.672.924-3.615-.249-4.341-1.172-.726-2.962.04-3.996 1.712-1.035 1.672-.924 3.615.248 4.341 1.173.726 2.962-.04 3.997-1.712z" fill="#DFE6F5"/><path opacity=".1" d="M92.284 50.7c.743-1.2.663-2.595-.178-3.116-.842-.521-2.126.03-2.87 1.229-.742 1.2-.662 2.595.18 3.116.84.52 2.125-.03 2.868-1.23z" fill="#000"/><path d="m79.98 65.994 1.05.65 3.645-5.885-1.051-.65-3.644 5.885z" fill="#53526B"/><path d="m73.803 66.41 2.57-.716s12.676.337 8.423-4.885c0 0-2.233-2.148-6.908-.421-4.674 1.726-5.98 1.937-5.98 1.937l1.895 4.085z" fill="#FDC2CC"/><path opacity=".1" d="M71.908 44.384a.505.505 0 1 0 0-1.01.505.505 0 0 0 0 1.01zM80.584 44.089a.505.505 0 1 0 0-1.011.505.505 0 0 0 0 1.01z" fill="#000"/><path d="M71.908 44.215a.505.505 0 1 0 0-1.01.505.505 0 0 0 0 1.01z" fill="#fff"/><path opacity=".1" d="M72.624 51.376a.505.505 0 1 0 0-1.01.505.505 0 0 0 0 1.01zM80.837 50.87a.505.505 0 1 0 0-1.011.505.505 0 0 0 0 1.01z" fill="#000"/><path d="M72.624 51.207a.505.505 0 1 0 0-1.011.505.505 0 0 0 0 1.01z" fill="#fff"/><path opacity=".1" d="M80.626 75.258a.505.505 0 1 0 0-1.011.505.505 0 0 0 0 1.01zM73.975 75.258a.505.505 0 1 0 0-1.011.505.505 0 0 0 0 1.01z" fill="#000"/><path d="M80.626 75.09a.505.505 0 1 0 0-1.011.505.505 0 0 0 0 1.01z" fill="#fff"/><path opacity=".1" d="M74.48 83.72a.505.505 0 1 0 0-1.01.505.505 0 0 0 0 1.01zM80.837 83.215a.505.505 0 1 0 0-1.011.505.505 0 0 0 0 1.01z" fill="#000"/><path d="M74.48 83.552a.505.505 0 1 0 0-1.01.505.505 0 0 0 0 1.01zM73.975 75.09a.505.505 0 1 0 0-1.011.505.505 0 0 0 0 1.01zM80.837 83.047a.505.505 0 1 0 0-1.01.505.505 0 0 0 0 1.01zM80.584 43.921a.505.505 0 1 0 0-1.01.505.505 0 0 0 0 1.01zM80.837 50.701a.505.505 0 1 0 0-1.01.505.505 0 0 0 0 1.01z" fill="#fff"/><path opacity=".1" d="M81.595 67.927s.084 11.54.337 13.604c0 0 .091-13.06-.337-13.604zM83.743 73.275c-.174 0 3.453 13.52 3.622 14.488.168.97-2.611-14.488-3.622-14.488zM86.607 71.085c0 .127 2.021 7.329 3.032 7.708 1.01.379-3.032-7.708-3.032-7.708zM94.567 57.061s-4.296.191-4.423.812c-.126.62 4.423-.812 4.423-.812zM86.986 111.981s-3.075 1.306-2.612 1.39c.464.084 2.612-1.39 2.612-1.39zM80.626 110.044c-.12-.27 2.064 1.095 2.064 1.263 0 .169-1.895-.884-2.064-1.263zM83.49 114.466s2.4-.121 2.57.802c.168.924-2.57-.802-2.57-.802zM66.222 114.46s2.612-.51 2.822 0c.21.511-2.822 0-2.822 0zM67.19 130.343s.172 2.148-.461 2.654c-.633.505.462-2.654.462-2.654zM66.872 134.892c.824.085 5.162-.673 5.12 0-.042.674-5.12 0-5.12 0zM86.775 132.281s-1.48-.228-1.119.77l1.12-.77zM59.273 48.217h-.8l-1.221 4.464s-.422 1.558-.843 1.937c-.421.38.38 3.833.38 3.833s-.464 2.443-.843 3.074c-.38.632.59 2.19.59 2.19l1.937 4.55 5.138 1.347s9.055 1.98 9.476 2.274c.421.295.8-.126 1.095-2.864.295-2.737 1.095-8.044 1.727-8.297 0 0-5.054.548-5.475.463-.421-.084-2.443.043-2.443.043s-2.653-.169-3.074.084c-.421.253.547-1.223.547-1.223a4.063 4.063 0 0 0 0-2.062c-.295-1.137-.463-14.025-6.19-9.813z" fill="#000"/><path opacity=".1" d="M75.74 61.23c-.631.253-1.431 5.56-1.726 8.297-.295 2.738-.674 3.159-1.095 2.864-.342-.24-6.378-1.59-8.634-2.089.355-2.097.547-4.44.547-4.44l-6.401-17.14h.674c5.727-4.212 5.896 8.675 6.19 9.813a4.063 4.063 0 0 1 0 2.062s-.968 1.475-.547 1.223c.421-.253 3.075-.084 3.075-.084s2.021-.127 2.442-.043c.422.085 5.476-.463 5.476-.463z" fill="#000"/><path d="M59.105 48.385h-.8l-1.222 4.464s-.421 1.559-.842 1.938c-.422.379.379 3.832.379 3.832s-.463 2.443-.843 3.075c-.379.632.59 2.19.59 2.19l1.937 4.549 5.139 1.347s9.055 1.98 9.476 2.275c.421.294.8-.127 1.095-2.864.295-2.738 1.095-8.045 1.727-8.297 0 0-5.054.547-5.475.463-.422-.084-2.443.042-2.443.042s-2.654-.168-3.075.084c-.42.253.548-1.223.548-1.223a4.06 4.06 0 0 0 0-2.062c-.295-1.137-.464-14.025-6.191-9.813z" fill="#6AC5D7"/><path opacity=".1" d="M61.842 63.63s-2.316 4.381-2.737 3.876c-.422-.506 2.737-3.875 2.737-3.875zM59.441 61.137s-2.147 1.779-1.137 2.242c1.011.463 1.137-2.242 1.137-2.242zM61.463 58.956c.169.043 3.117.628 3.159.883.042.255-3.159-.883-3.159-.883zM81.908 28.104a.434.434 0 0 0-.288.452c-.172.151-.413-.027-.553-.221-.141-.192-.301-.43-.515-.403a1.86 1.86 0 0 0-.295.123c-.337.108-.622-.288-.81-.635l-.986-1.823c-.658.383-1.437-.018-2.09-.414-.654-.396-1.432-.799-2.093-.416-.968.56-1.004 2.424-2.008 2.884-.323.148-.699.116-.999.32-.296.202-.456.591-.59.964a1.02 1.02 0 0 1-.33.544.725.725 0 0 1-.34.082 1.46 1.46 0 0 1-.876-.123.74.74 0 0 1-.303-.876.484.484 0 0 1 .027-.049c.108-.13.205-.27.29-.416.1-.268-.044-.58-.012-.869.052-.495.576-.756.665-1.243.037-.19-.002-.394.034-.587a.541.541 0 0 1 .02-.074l-.308.213c.345-.403.519-.962.771-1.45a4.465 4.465 0 0 1 2.726-2.22c1.099-.32 2.26-.232 3.368.04 1.054.262 2.064.678 2.997 1.234.333.179.63.42.872.71.204.3.377.62.518.954.326.678 1.22 1.304.508 1.399-.591.079-.052.493.258.773.07.055.13.12.179.195a.7.7 0 0 1-.037.676c-.12.152.365.182.2.256z" fill="#000"/><path d="M81.908 27.935a.434.434 0 0 0-.288.451c-.172.152-.413-.027-.553-.22-.141-.193-.301-.43-.515-.403a1.85 1.85 0 0 0-.295.123c-.337.108-.622-.288-.81-.635l-.986-1.823c-.658.382-1.437-.019-2.09-.415-.654-.396-1.432-.798-2.093-.416-.968.56-1.004 2.425-2.008 2.884-.323.149-.699.117-.999.32-.296.203-.456.592-.59.964a1.02 1.02 0 0 1-.33.544.726.726 0 0 1-.34.083 1.46 1.46 0 0 1-.876-.123.74.74 0 0 1-.303-.876.463.463 0 0 1 .027-.049c.108-.13.205-.27.29-.416.1-.268-.044-.58-.012-.87.052-.495.576-.756.665-1.243.037-.19-.002-.394.034-.586a.537.537 0 0 1 .02-.074l-.308.212c.345-.402.519-.962.771-1.45a4.468 4.468 0 0 1 2.726-2.219c1.099-.32 2.26-.233 3.368.039a11.09 11.09 0 0 1 2.997 1.235c.333.178.63.42.872.709.204.3.377.62.518.955.326.677 1.22 1.304.508 1.398-.59.08-.052.494.258.774.07.054.13.12.179.195a.7.7 0 0 1-.037.676c-.12.151.365.181.2.256z" fill="#865A61"/><path opacity=".1" d="m81.566 26.808-.067.709s-7.07-8.96-12.568 1.157l-.072-.33c.108-.13.205-.27.29-.416.1-.268-.044-.58-.012-.87.052-.495.576-.756.665-1.243.037-.19-.002-.394.034-.586a.537.537 0 0 1 .02-.074l-.308.212c.345-.402.519-.962.771-1.45a4.468 4.468 0 0 1 2.726-2.219c1.099-.32 2.26-.233 3.368.039a11.09 11.09 0 0 1 2.997 1.235c.333.178.63.42.872.709.204.3.377.62.518.955.326.677 1.22 1.304.508 1.398-.591.08-.052.494.258.774z" fill="#000"/><g opacity=".1" fill="#000"><path opacity=".1" d="M81.74 27.844a.343.343 0 0 0-.08.291c-.171.152-.412-.027-.552-.22-.142-.193-.302-.43-.516-.403-.101.032-.2.073-.295.123-.337.108-.621-.288-.81-.635l-.985-1.823c-.66.382-1.438-.019-2.091-.415-.654-.395-1.432-.798-2.092-.416-.97.56-1.005 2.425-2.009 2.884-.323.149-.699.117-.999.32-.296.203-.456.592-.59.964a1.02 1.02 0 0 1-.33.544.725.725 0 0 1-.34.083 1.46 1.46 0 0 1-.876-.123.788.788 0 0 1-.328-.463.758.758 0 0 0 .328.8c.273.13.579.174.876.123a.725.725 0 0 0 .34-.083 1.02 1.02 0 0 0 .33-.544c.134-.372.294-.761.59-.963.3-.204.676-.172 1-.32 1.003-.46 1.039-2.325 2.008-2.885.66-.382 1.438.02 2.092.416.653.396 1.432.797 2.09.415.33.606.658 1.214.986 1.823.189.347.474.743.81.635.095-.05.194-.09.295-.123.214-.027.374.21.516.402.14.194.38.373.552.221a.434.434 0 0 1 .288-.451c.132-.06-.148-.09-.208-.177zM81.19 26.16a.606.606 0 0 1 .159-.04c.313-.04.314-.186.19-.393a.492.492 0 0 1-.19.057c-.339.045-.306.2-.16.377zM81.835 27.572a.76.76 0 0 0-.002-.33.486.486 0 0 1-.085.186c-.053.066.012.11.087.144zM69.187 27.086c-.004.02-.008.039-.01.059-.007.151.004.303.033.453.02-.171.012-.344-.023-.512zM69.87 25.031c-.079.15-.173.292-.282.422l.272-.187a1.884 1.884 0 0 1 .01-.235z"/></g><path d="M68.93 28.506s-1.016-4.544-.692-5.273c0 0-.878-1.8-.878-2.229a4.257 4.257 0 0 0-.647-2.015c-.462-.729-.97-4.115 1.802-4.93 2.772-.814 4.898-1.543 5.221-2.1.324-.558 5.083-.215 6.376 1.929 1.294 2.143 2.126 1.714 2.126 1.714s1.987 1.244 1.987 2.358c0 1.115-.6 1.672 0 1.93.6.257.138 4.886-2.495 5.015l-.231 2.444s-7.07-8.96-12.568 1.157z" fill="#6AC5D7"/><path opacity=".1" d="M69.234 14.945s-.611 3.58.505 4.78l-.505-4.78zM72.097 14.123s-1.558 3.833-1.179 4.57l1.18-4.57zM73.445 12.902s-1.053 4.99-.547 5.39l.547-5.39zM75.256 14.25s-1.305 3.2-.779 3.643l.78-3.644zM77.72 14.628s-1.537 2.612-1.221 3.075l1.221-3.075zM80.879 17.177s-1.643.442-1.306.968l1.306-.968zM82.437 19.893s-1.474.716-1.2 1.095l1.2-1.095zM68.238 23.233s9.415-3.825 13.492 1.672c0 0-4.949-4.207-13.492-1.672z" fill="#000"/><path d="m64.835 54.657 1.312-1.327 3.71 3.666-1.312 1.328-3.412-3.372-.298-.295z" fill="#53526B"/><path d="M56.229 46.149s5.742.489 11.086 6.504l-2.228 2.253-8.858-8.757z" fill="#DFE6F5"/><path d="M73.451 56.904s-5.518-2.012-6.06-2.493c-.543-.48-3.733 2.318.159 6.123 0 0 4.759 1.356 6.032 0 1.273-1.355-.13-3.63-.13-3.63z" fill="#FDC2CC"/><defs><linearGradient id="a" x1="76.543" y1="148.94" x2="76.543" y2="11.121" gradientUnits="userSpaceOnUse"><stop stop-color="gray" stop-opacity=".25"/><stop offset=".535" stop-color="gray" stop-opacity=".12"/><stop offset="1" stop-color="gray" stop-opacity=".1"/></linearGradient></defs></svg>