<svg width="143" height="150" viewBox="0 0 143 150" fill="none" xmlns="http://www.w3.org/2000/svg">
<path opacity="0.1" d="M70.2585 149.179C109.061 149.179 140.517 148.058 140.517 146.675C140.517 145.292 109.061 144.171 70.2585 144.171C31.4558 144.171 0 145.292 0 146.675C0 148.058 31.4558 149.179 70.2585 149.179Z" fill="#6AC5D7"/>
<path opacity="0.1" d="M51.7879 4.54603C56.2639 0.557345 63.2898 -0.255572 69.6851 0.0621616C89.7724 1.06015 107.905 10.758 123.59 21.7273C129.268 25.6983 134.858 29.9779 138.544 35.4464C146.047 46.5785 143.821 62 133.388 71.1708C129.839 74.291 125.536 76.683 121.118 78.8033C113.263 82.5734 104.788 85.6 95.8736 86.4614C89.5163 87.0757 83.0807 86.5763 76.7606 85.7192C59.1027 83.3244 41.7702 78.0291 27.2431 68.9692C20.8715 64.9956 14.866 60.0555 12.2398 53.6272C9.61352 47.1989 11.2943 39.053 17.8003 35.248C20.4911 33.6744 23.7083 32.9636 26.8581 32.2962C31.4944 31.3139 36.2051 30.3455 40.389 28.3485C44.7104 26.2857 49.8274 22.2968 48.9718 17.7312C48.0537 12.8324 47.3171 8.53006 51.7879 4.54603Z" fill="#6AC5D7"/>
<path d="M98.0018 56.5739C97.6958 55.9817 96.0786 52.3015 96.0786 52.3015L93.3686 45.2795C93.3686 45.2795 91.4454 42.3185 91.4454 41.7686C91.4454 41.2187 87.9487 39.019 87.9487 39.019C87.9487 39.019 85.1077 38.173 84.8891 38.0884C84.6706 38.0038 81.305 36.8904 81.305 36.8904C81.305 36.8904 79.9797 35.1477 79.7909 35.6028L79.7908 35.604C79.7839 35.5925 79.7768 35.5825 79.7699 35.5707C79.4992 35.0647 79.3277 34.5116 79.2647 33.9412C79.2575 33.8906 79.2513 33.8371 79.2449 33.7842C80.1178 33.1926 80.8333 32.397 81.3293 31.4664C81.8254 30.5358 82.0871 29.4983 82.0917 28.4438C82.0911 28.1662 82.0724 27.8889 82.0358 27.6137C82.0599 27.5987 82.085 27.5854 82.111 27.5741C82.1654 27.5505 82.1516 27.5313 82.1116 27.5112C82.1253 27.504 82.139 27.4964 82.1528 27.4906C82.2251 27.4591 82.1768 27.4353 82.1068 27.407L82.111 27.4049C82.2096 27.3621 82.0849 27.3337 81.9847 27.2884C81.9793 27.2591 81.9743 27.2297 81.9685 27.2006C81.9907 27.1449 82.0042 27.0861 82.0087 27.0263C82.0176 27.0307 82.0257 27.0355 82.0351 27.0396C82.0594 26.9306 82.0588 26.8175 82.0333 26.7087C82.027 26.7308 82.0194 26.7525 82.0105 26.7737C82.0168 26.6751 81.9965 26.5766 81.9517 26.4886C81.9069 26.4005 81.8394 26.326 81.7561 26.2729C81.7511 26.2685 81.7455 26.2639 81.7404 26.2594L81.9258 24.3617C84.6591 24.2325 85.1386 19.5824 84.5152 19.324C83.8918 19.0657 84.5152 18.506 84.5152 17.3865C84.5152 16.267 82.4533 15.0183 82.4533 15.0183C82.4533 15.0183 81.5901 15.4489 80.2475 13.296C78.9048 11.1432 73.9657 10.7987 73.6301 11.3585C73.2944 11.9182 71.0886 12.6502 68.2115 13.4683C65.3344 14.2864 65.8618 17.6879 66.3413 18.4198C66.7364 19.025 66.9677 19.7223 67.0127 20.4435C67.0127 20.8741 67.9238 22.6825 67.9238 22.6825C67.6364 23.3091 68.3677 26.742 68.5843 27.7176C68.5809 27.7476 68.5773 27.7775 68.5743 27.8076C68.5724 27.8106 68.57 27.8131 68.5682 27.8161C68.5579 27.8318 68.5486 27.8482 68.5403 27.8651C68.4938 27.9663 68.4784 28.0789 68.4961 28.1888C68.4803 28.3089 68.497 28.431 68.5446 28.5424C68.5611 29.4616 68.7737 30.3667 69.1684 31.197C69.563 32.0273 70.1305 32.7637 70.8329 33.3569C70.8363 33.4156 70.8396 33.4747 70.8428 33.5351C70.8831 34.3321 70.9058 35.2745 70.8638 36.1764C70.8617 36.2225 70.8582 36.2677 70.8557 36.3136C70.6971 36.3457 70.5483 36.4146 70.4212 36.5148C70.2942 36.615 70.1924 36.7437 70.1243 36.8904C69.8533 37.4116 68.2798 38.2153 68.2798 38.2153C68.2798 38.2153 65.5261 38.3422 65.2639 38.8498C65.0016 39.3574 61.0241 41.0495 61.0241 41.0495C61.0241 41.0495 58.9261 42.2762 59.232 43.6721C59.3919 44.4015 58.9431 45.5347 58.4781 46.451C57.5055 46.0822 56.4927 45.8296 55.4607 45.6986L57.689 47.8304C57.6423 47.9033 57.6148 47.9445 57.6148 47.9445L56.3473 52.4284C56.3473 52.4284 55.9102 53.9935 55.4731 54.3742C55.036 54.7549 55.8665 58.2236 55.8665 58.2236C55.8665 58.2236 55.3857 60.6771 54.9923 61.3116C54.5989 61.9461 55.6042 63.5112 55.6042 63.5112L57.6148 68.0797L62.9473 69.4333C62.9473 69.4333 63.3026 69.5085 63.8768 69.6315C63.8588 69.7407 63.8403 69.8494 63.8214 69.9578C63.5645 71.413 63.227 72.7514 62.8162 73.1135C61.8109 74.0018 61.8546 77.9781 61.8546 77.9781L61.8983 83.6041C61.8983 83.6041 62.2479 90.5414 62.0731 90.7952C61.9627 90.9554 62.1842 91.2167 62.7685 91.4514C62.7518 91.5559 62.7354 91.6618 62.72 91.7698C62.5557 92.9204 62.4822 94.2334 62.8599 94.8138C63.0239 95.1277 63.1136 95.475 63.1221 95.829C63.1221 96.3789 63.9526 97.521 63.9526 97.521C63.9526 97.521 63.297 102.216 64.3897 103.824C65.4824 105.431 66.4003 108.35 65.8758 109.027C65.8758 109.027 64.9579 111.015 65.395 111.903C65.8321 112.792 65.395 113.299 64.8268 113.511C64.2585 113.722 64.3075 115.457 64.3075 115.457L65.3513 123.705C65.3513 123.705 65.9195 125.397 65.4387 125.99C64.9579 126.582 64.9579 129.543 65.7009 130.558C66.444 131.573 64.6519 133.434 64.6519 133.434C64.6519 133.434 63.5592 135 65.3076 135.507C65.3076 135.507 65.6572 135.592 65.0016 136.269C64.3459 136.945 64.2148 137.791 64.6519 138.088C64.7426 138.142 64.8374 138.189 64.9354 138.228C64.9192 138.329 64.9016 138.432 64.881 138.543C64.7131 139.426 64.3967 140.576 63.8214 141.133C62.7066 142.275 61.7446 143.557 60.9594 144.947C60.3597 146.084 60.0975 147.148 60.7618 147.648C62.3354 148.832 64.346 149.213 65.5261 148.747C66.7062 148.282 68.3672 146.844 68.3672 146.844L68.7605 145.194C68.7605 145.194 68.4983 144.179 69.8096 143.798C71.1208 143.417 72.3447 142.064 72.3447 142.064V139.871C72.6622 139.69 72.9687 139.49 73.2626 139.272C73.2626 139.272 73.8745 137.115 73.2626 136.396C72.6506 135.676 72.4321 135.423 73.2188 134.957C74.0056 134.492 74.1123 133.477 73.5353 132.588C72.9566 131.7 72.0387 130.389 72.8255 128.528C73.6122 126.666 73.9007 120.956 73.9007 120.956C73.9007 120.956 73.5336 117.064 73.9007 116.176C74.2679 115.287 73.4811 113.511 73.4811 113.511C73.4811 113.511 73.7434 111.311 74.2242 110.296C74.705 109.281 75.0983 103.909 75.0983 103.909C75.0983 103.909 75.9725 101.624 75.9725 100.144C75.9725 98.6632 74.6175 95.1099 76.6281 94.1793C76.6281 94.1793 77.5023 94.9407 77.1526 97.9864C77.1526 97.9864 78.1579 101.54 78.1579 102.639C78.1579 103.739 78.901 107.716 78.901 107.716C78.901 107.716 78.9884 108.985 79.2944 109.45C79.6003 109.915 79.2944 111.184 79.2944 111.184C79.2944 111.184 80.4308 112.242 80.1248 112.919C79.8189 113.595 80.1773 115.122 80.1773 115.122L79.9063 124.594C79.9063 124.594 79.1195 128.654 80.9553 131.108C80.9553 131.108 80.2997 134.703 79.9063 134.957C79.5129 135.211 81.3487 137.411 81.3487 137.411C81.3487 137.411 80.8399 138.836 81.8732 138.906V141.26C82.232 141.894 82.7241 142.442 83.3156 142.868C84.2772 143.544 83.8838 145.871 83.8838 145.871C83.8838 145.871 85.1077 148.832 88.3421 148.197C91.5765 147.563 92.0136 147.267 91.8388 146.209C91.7759 145.824 91.636 145.135 91.4349 144.353C91.087 142.994 90.5538 141.355 89.9156 140.546C88.9103 139.272 88.0798 136.607 88.0798 136.607C88.0798 136.607 87.6865 135.719 88.0798 135.423C88.4732 135.127 88.2984 134.577 88.2984 134.577C88.2984 134.577 88.6813 133.477 88.3368 132.8C87.9924 132.123 88.9977 130.727 88.9977 130.727L88.6918 124.213L88.9977 114.738C88.9977 114.738 87.6428 113.172 88.211 112.242C88.7792 111.311 87.5553 110 87.5553 110C87.5553 110 87.4242 109.958 87.7739 108.9C87.9831 108.277 87.952 107.598 87.6865 106.996C87.6865 106.996 86.9434 104.374 88.2547 102.386C88.2547 102.386 88.8229 99.7631 88.9977 98.4094C89.1184 97.4687 89.8737 93.9543 90.323 91.8985C90.3484 91.7823 90.3727 91.671 90.396 91.5648C91.0433 91.6001 91.5328 91.6413 91.5328 91.6413C91.5328 91.6413 90.5275 84.6617 91.5328 83.2234C92.5381 81.7852 90.7461 70.787 90.7461 70.787C90.7461 70.787 90.3178 68.8648 90.0538 66.9038C90.0386 66.792 90.0249 66.6804 90.011 66.5688C90.8225 66.5039 91.6371 66.4858 92.4507 66.5146C94.5488 66.6415 96.6031 65.8378 96.6468 65.0341C96.6905 64.2303 97.8269 61.0578 98.0018 60.3387C98.1766 59.6196 98.3077 57.1661 98.0018 56.5739Z" fill="url(#paint0_linear_6_932)"/>
<path d="M72.4976 138.177V142.094C72.4976 142.094 71.3183 143.442 70.0548 143.821C68.7913 144.2 69.044 145.21 69.044 145.21L68.665 146.853C68.665 146.853 67.0646 148.285 65.9274 148.748C64.7903 149.212 62.8529 148.832 61.3367 147.653C60.6965 147.156 60.9492 146.097 61.5271 144.965C62.2799 143.586 63.2068 142.31 64.2849 141.167C64.8391 140.613 65.1441 139.467 65.3058 138.588C65.4254 137.929 65.4641 137.419 65.4641 137.419L72.4976 138.177Z" fill="#4C495A"/>
<path opacity="0.1" d="M72.4976 141.1V142.094C72.4976 142.094 71.3183 143.442 70.0548 143.821C68.7913 144.2 69.044 145.211 69.044 145.211L68.665 146.853C68.665 146.853 67.0646 148.285 65.9274 148.748C64.7903 149.212 62.8529 148.833 61.3367 147.653C60.6965 147.156 60.9492 146.097 61.5271 144.965C61.5001 146.154 61.8522 147.49 63.5689 147.443C65.4217 147.384 67.2072 146.735 68.665 145.59C68.665 145.59 68.6229 142.81 70.5602 142.178C71.2683 141.945 71.9257 141.579 72.4976 141.1Z" fill="black"/>
<path d="M87.9122 148.201C84.7956 148.833 83.6164 145.884 83.6164 145.884C83.6164 145.884 83.9954 143.568 83.0688 142.894C82.4959 142.467 82.0218 141.921 81.679 141.294V137.419L85.4695 134.724L87.5214 136.54L87.6595 136.661C87.6595 136.661 88.4597 139.314 89.4284 140.583C90.0433 141.388 90.5571 143.021 90.8924 144.373C91.0861 145.152 91.2209 145.837 91.2815 146.221C91.45 147.274 91.0288 147.569 87.9122 148.201Z" fill="#4C495A"/>
<path opacity="0.1" d="M87.9122 148.201C84.7956 148.833 83.6164 145.885 83.6164 145.885C83.6164 145.885 83.9954 143.568 83.0688 142.894C82.4959 142.467 82.0218 141.921 81.679 141.294V139.793C82.2804 140.428 83.4142 141.658 83.6585 142.178C83.9954 142.894 84.0375 145.506 85.5958 145.969C87.1541 146.432 90.1865 146.853 90.4392 145.674C90.5443 145.226 90.6962 144.79 90.8924 144.374C91.0861 145.152 91.2209 145.838 91.2815 146.222C91.45 147.275 91.0288 147.569 87.9122 148.201Z" fill="black"/>
<path opacity="0.1" d="M65.4642 137.419L72.4976 138.177V140.247C71.7042 140.717 70.567 141.216 69.9285 140.704C68.9851 139.949 66.1802 138.991 65.3059 138.588C65.4255 137.929 65.4642 137.419 65.4642 137.419Z" fill="black"/>
<path opacity="0.1" d="M87.6595 136.998C86.6909 136.661 84.9641 138.135 82.6898 139.062C82.3737 139.211 82.0285 139.288 81.679 139.287V137.419L85.4695 134.724L87.5214 136.54C87.553 136.696 87.5993 136.85 87.6595 136.998Z" fill="black"/>
<path d="M90.1443 90.6275C90.1443 90.6275 90.0112 91.2474 89.8209 92.147C89.3879 94.1939 88.6601 97.6929 88.5439 98.6296C88.3754 99.9773 87.8279 102.589 87.8279 102.589C86.5644 104.568 87.2804 107.179 87.2804 107.179C87.5365 107.78 87.5664 108.453 87.3646 109.074C87.0277 110.127 87.1541 110.169 87.1541 110.169C87.1541 110.169 88.3333 111.475 87.7858 112.402C87.2383 113.328 88.5439 114.887 88.5439 114.887L88.2491 124.321L88.5439 130.807C88.5439 130.807 87.5752 132.196 87.9071 132.87C88.239 133.544 87.8701 134.639 87.8701 134.639C87.8701 134.639 88.0385 135.187 87.6595 135.481C87.2804 135.776 87.6595 136.661 87.6595 136.661C86.6908 136.324 84.964 137.798 82.6897 138.724C80.4155 139.651 81.1735 137.461 81.1735 137.461C81.1735 137.461 79.4047 135.271 79.7837 135.018C80.1628 134.765 80.7945 131.186 80.7945 131.186C79.0256 128.743 79.7837 124.7 79.7837 124.7L80.0448 115.269C80.0448 115.269 79.6995 113.749 79.9943 113.076C80.2891 112.402 79.1941 111.349 79.1941 111.349C79.1941 111.349 79.4889 110.085 79.1941 109.622C78.8993 109.159 78.815 107.895 78.815 107.895C78.815 107.895 78.099 103.936 78.099 102.841C78.099 101.746 77.1304 98.2085 77.1304 98.2085C77.4673 95.1761 76.625 94.418 76.625 94.418C74.6876 95.3445 75.9932 98.8823 75.9932 100.356C75.9932 101.83 75.1509 104.105 75.1509 104.105C75.1509 104.105 74.7718 109.454 74.3086 110.464C73.8453 111.475 73.5926 113.665 73.5926 113.665C73.5926 113.665 74.3507 115.434 73.9969 116.319C73.6431 117.203 73.9969 121.078 73.9969 121.078C73.9969 121.078 73.7189 126.763 72.9608 128.617C72.2027 130.47 73.0872 131.775 73.6448 132.66C74.2008 133.544 74.098 134.555 73.3399 135.018C72.5818 135.481 72.7924 135.734 73.382 136.45C73.9716 137.166 73.382 139.314 73.382 139.314C73.382 139.314 70.9814 141.209 69.9285 140.367C68.8756 139.525 65.5062 138.43 65.0851 138.135C64.6639 137.84 64.7903 136.998 65.422 136.324C66.0538 135.65 65.7168 135.566 65.7168 135.566C64.0322 135.06 65.0851 133.502 65.0851 133.502C65.0851 133.502 66.8118 131.649 66.0959 130.638C65.3799 129.627 65.3799 126.679 65.8432 126.09C66.3065 125.5 65.7589 123.815 65.7589 123.815L64.7532 115.603C64.7532 115.603 64.706 113.876 65.2535 113.665C65.8011 113.455 66.2222 112.949 65.8011 112.065C65.3799 111.18 66.2643 109.201 66.2643 109.201C66.7697 108.527 65.8853 105.621 64.8324 104.021C63.7795 102.42 64.4112 97.7451 64.4112 97.7451C64.4112 97.7451 63.611 96.608 63.611 96.0605C63.6031 95.7089 63.5168 95.3636 63.3583 95.0497C62.9944 94.4719 63.0652 93.1646 63.2235 92.019C63.3768 90.9105 63.611 89.9536 63.611 89.9536L90.1443 90.6275Z" fill="#5F5D7E"/>
<path d="M81.8895 42.9096L73.5926 44.847C73.5926 44.847 69.5073 41.3934 70.5181 39.5403C70.8652 38.9035 71.0185 37.8169 71.0707 36.668C71.1111 35.77 71.0892 34.8317 71.0505 34.0382C70.9915 32.8909 70.8972 32.0436 70.8972 32.0436C70.8972 32.0436 79.4047 27.2423 79.1099 32.0436C79.0499 32.8431 79.0686 33.6466 79.1655 34.4425C79.2256 35.0088 79.3907 35.559 79.6523 36.0648C80.1072 36.8752 80.6682 36.887 80.6682 36.887L81.8895 42.9096Z" fill="#FDC2CC"/>
<path opacity="0.1" d="M79.1655 34.4425C77.9664 35.3026 76.5112 35.7309 75.0374 35.6575C73.5635 35.5841 72.1581 35.0132 71.0505 34.0382C70.9915 32.8909 70.8972 32.0436 70.8972 32.0436C70.8972 32.0436 79.4047 27.2423 79.1099 32.0436C79.0499 32.8431 79.0686 33.6466 79.1655 34.4425Z" fill="black"/>
<path d="M75.3615 35.497C78.9669 35.497 81.8896 32.5743 81.8896 28.969C81.8896 25.3636 78.9669 22.4409 75.3615 22.4409C71.7562 22.4409 68.8335 25.3636 68.8335 28.969C68.8335 32.5743 71.7562 35.497 75.3615 35.497Z" fill="#FDC2CC"/>
<path opacity="0.1" d="M81.8895 42.9097L73.5926 44.8471C73.5926 44.8471 69.5073 41.3935 70.5181 39.5404C70.8652 38.9036 71.0185 37.817 71.0707 36.6681C71.2539 37.6671 71.7902 38.567 72.5818 39.2035C74.4771 40.4669 74.1822 42.0253 74.1822 42.0253L77.5937 41.8989C77.3831 40.5091 78.6466 39.751 79.0677 39.5825C79.4889 39.414 79.2783 38.6559 79.2783 38.6559L79.6523 36.0649C80.1072 36.8753 80.6682 36.8871 80.6682 36.8871L81.8895 42.9097Z" fill="black"/>
<path opacity="0.1" d="M90.1444 90.6275C90.1444 90.6275 90.0113 91.2474 89.8209 92.1471C88.9045 92.0982 87.6932 92.0628 87.1541 92.1858C86.2276 92.3964 82.5213 92.4806 82.5213 92.4806L73.3399 92.8058V92.5227C72.2838 92.5312 71.2291 92.6016 70.1812 92.7333C68.6229 92.9439 66.1802 92.6491 64.6218 92.3964C64.1422 92.3276 63.6727 92.2009 63.2236 92.019C63.3769 90.9105 63.611 89.9536 63.611 89.9536L90.1444 90.6275Z" fill="black"/>
<path d="M89.4284 63.8837C89.2953 64.6704 89.393 65.9743 89.5615 67.2614C89.8159 69.2139 90.2286 71.1277 90.2286 71.1277C90.2286 71.1277 91.9554 82.078 90.9867 83.5099C90.018 84.9419 90.9867 91.8911 90.9867 91.8911C90.9867 91.8911 88.0807 91.6384 87.1541 91.849C86.2276 92.0596 82.5213 92.1438 82.5213 92.1438L73.3399 92.4689V92.1859C72.2838 92.1944 71.2291 92.2647 70.1812 92.3965C68.6229 92.6071 66.1802 92.3122 64.6219 92.0596C63.0635 91.8069 62.4318 91.3015 62.6003 91.0488C62.7687 90.7961 62.4318 83.889 62.4318 83.889L62.3897 78.2875C62.3897 78.2875 62.3476 74.3286 63.3162 73.4441C63.7121 73.0836 64.0373 71.751 64.2849 70.3022C64.6404 68.2048 64.8324 65.8632 64.8324 65.8632L58.4307 48.7218L58.3044 48.3848C58.3044 48.3848 60.1575 45.5209 59.8627 44.1311C59.5679 42.7413 61.5895 41.5199 61.5895 41.5199C61.5895 41.5199 65.4221 39.8352 65.6748 39.3298C65.9275 38.8244 68.5808 38.6981 68.5808 38.6981C68.5808 38.6981 70.097 37.8979 70.3581 37.379C70.4217 37.2341 70.5188 37.1063 70.6416 37.0064C70.7643 36.9065 70.9091 36.8373 71.064 36.8045C71.2424 37.8159 71.7818 38.7281 72.5818 39.3719C74.4771 40.6354 74.1823 42.1937 74.1823 42.1937L77.5937 42.0674C77.3831 40.6776 78.6466 39.9195 79.0678 39.751C79.4889 39.5825 79.2783 38.8244 79.2783 38.8244L79.6726 36.097C79.8545 35.6438 81.1315 37.379 81.1315 37.379C81.1315 37.379 84.3744 38.4875 84.585 38.5717C84.7956 38.656 87.5332 39.4983 87.5332 39.4983C87.5332 39.4983 90.9025 41.6883 90.9025 42.2359C90.9025 42.7834 92.7556 45.7315 92.7556 45.7315C92.7556 45.7315 92.7337 45.8495 92.6933 46.0651C92.2654 48.3865 89.7367 62.0727 89.4284 63.8837Z" fill="#6AC5D7"/>
<path d="M75.9512 57.0604C75.9512 57.0604 68.6651 55.1231 67.9491 54.6598C67.2331 54.1965 63.0214 56.8919 68.1597 60.5561C68.1597 60.5561 74.4427 61.8617 76.1235 60.5561C77.8043 59.2505 75.9512 57.0604 75.9512 57.0604Z" fill="#FDC2CC"/>
<path opacity="0.1" d="M91.7027 45.521L92.5871 45.5631L95.1984 52.5544C95.1984 52.5544 96.7567 56.2186 97.0515 56.8082C97.3463 57.3978 97.22 59.8406 97.0515 60.5566C96.883 61.2725 95.788 64.4313 95.7459 65.2315C95.7038 66.0317 93.7243 66.8319 91.7027 66.7056C89.6811 66.5792 84.9641 67.211 84.9641 67.211C84.9641 67.211 79.9264 66.6844 76.8356 68.2639C76.8356 68.2639 74.8561 64.1786 75.0667 56.5555C75.0667 56.5555 78.5624 56.3449 79.4468 56.6818C80.3313 57.0188 84.6271 57.9875 85.1747 57.4821C85.7222 56.9767 88.207 58.4086 88.207 58.4086C88.3335 58.1309 88.3989 57.8293 88.3989 57.5242C88.3989 57.219 88.3335 56.9174 88.207 56.6397C87.7859 55.6289 87.0699 52.4702 87.9965 51.4594C88.923 50.4486 91.7027 45.521 91.7027 45.521Z" fill="black"/>
<path opacity="0.1" d="M89.5615 67.2615C87.4708 67.403 85.1325 67.7163 85.1325 67.7163C85.1325 67.7163 80.0954 67.189 77.0041 68.7692C77.0041 68.7692 75.0246 64.684 75.2352 57.0609C75.2352 57.0609 78.7308 56.8503 79.6153 57.1872C80.4997 57.5242 84.7956 58.4928 85.3431 57.9874C85.8906 57.482 88.3755 58.914 88.3755 58.914C88.5019 58.6363 88.5673 58.3347 88.5673 58.0296C88.5673 57.7244 88.5019 57.4228 88.3755 57.1451C87.9543 56.1343 87.2383 52.9756 88.1649 51.9648C89.0915 50.954 91.8711 46.0264 91.8711 46.0264L92.6933 46.0651C92.2654 48.3866 89.7367 62.0727 89.4284 63.8837C89.2953 64.6705 89.393 65.9744 89.5615 67.2615Z" fill="black"/>
<path d="M91.8711 45.6899L92.7556 45.7321L95.3668 52.7234C95.3668 52.7234 96.9251 56.3875 97.2199 56.9771C97.5147 57.5668 97.3884 60.0095 97.2199 60.7255C97.0514 61.4415 95.9564 64.6002 95.9143 65.4004C95.8722 66.2006 93.8927 67.0008 91.8711 66.8745C89.8495 66.7482 85.1325 67.3799 85.1325 67.3799C85.1325 67.3799 80.0949 66.8534 77.0041 68.4328C77.0041 68.4328 75.0246 64.3475 75.2352 56.7244C75.2352 56.7244 78.7308 56.5139 79.6153 56.8508C80.4997 57.1877 84.7956 58.1564 85.3431 57.651C85.8906 57.1456 88.3755 58.5776 88.3755 58.5776C88.5019 58.2999 88.5673 57.9983 88.5673 57.6931C88.5673 57.388 88.5019 57.0864 88.3755 56.8087C87.9543 55.7979 87.2383 52.6391 88.1649 51.6284C89.0914 50.6176 91.8711 45.6899 91.8711 45.6899Z" fill="#6AC5D7"/>
<path d="M82.9731 61.1594L84.024 61.8101L89.8803 52.352L88.8294 51.7013L82.9731 61.1594Z" fill="#DFE6F5"/>
<path d="M92.8831 51.072C93.9181 49.4004 93.8067 47.4569 92.6343 46.731C91.4619 46.0051 89.6725 46.7716 88.6375 48.4432C87.6025 50.1147 87.7139 52.0582 88.8863 52.7841C90.0587 53.5101 91.8481 52.7435 92.8831 51.072Z" fill="#DFE6F5"/>
<path opacity="0.1" d="M92.2841 50.6998C93.027 49.5 92.9471 48.105 92.1055 47.5839C91.264 47.0628 89.9795 47.6131 89.2366 48.8129C88.4937 50.0127 88.5737 51.4078 89.4152 51.9288C90.2568 52.4499 91.5412 51.8997 92.2841 50.6998Z" fill="black"/>
<path d="M79.9799 65.9938L81.0308 66.6445L84.6747 60.7595L83.6238 60.1088L79.9799 65.9938Z" fill="#53526B"/>
<path d="M73.8032 66.4101L76.3723 65.6941C76.3723 65.6941 89.0493 66.0311 84.7956 60.8086C84.7956 60.8086 82.5634 58.6607 77.8885 60.3875C73.2136 62.1143 71.908 62.3248 71.908 62.3248L73.8032 66.4101Z" fill="#FDC2CC"/>
<path opacity="0.1" d="M71.908 44.3843C72.1871 44.3843 72.4134 44.1581 72.4134 43.8789C72.4134 43.5998 72.1871 43.3735 71.908 43.3735C71.6289 43.3735 71.4026 43.5998 71.4026 43.8789C71.4026 44.1581 71.6289 44.3843 71.908 44.3843Z" fill="black"/>
<path opacity="0.1" d="M80.5839 44.0889C80.863 44.0889 81.0893 43.8626 81.0893 43.5835C81.0893 43.3044 80.863 43.0781 80.5839 43.0781C80.3048 43.0781 80.0785 43.3044 80.0785 43.5835C80.0785 43.8626 80.3048 44.0889 80.5839 44.0889Z" fill="black"/>
<path d="M71.908 44.2154C72.1871 44.2154 72.4134 43.9891 72.4134 43.71C72.4134 43.4309 72.1871 43.2046 71.908 43.2046C71.6289 43.2046 71.4026 43.4309 71.4026 43.71C71.4026 43.9891 71.6289 44.2154 71.908 44.2154Z" fill="white"/>
<path opacity="0.1" d="M72.6239 51.376C72.9031 51.376 73.1293 51.1498 73.1293 50.8706C73.1293 50.5915 72.9031 50.3652 72.6239 50.3652C72.3448 50.3652 72.1185 50.5915 72.1185 50.8706C72.1185 51.1498 72.3448 51.376 72.6239 51.376Z" fill="black"/>
<path opacity="0.1" d="M80.8367 50.8697C81.1158 50.8697 81.3421 50.6434 81.3421 50.3643C81.3421 50.0852 81.1158 49.8589 80.8367 49.8589C80.5575 49.8589 80.3313 50.0852 80.3313 50.3643C80.3313 50.6434 80.5575 50.8697 80.8367 50.8697Z" fill="black"/>
<path d="M72.6239 51.2066C72.9031 51.2066 73.1293 50.9803 73.1293 50.7012C73.1293 50.4221 72.9031 50.1958 72.6239 50.1958C72.3448 50.1958 72.1185 50.4221 72.1185 50.7012C72.1185 50.9803 72.3448 51.2066 72.6239 51.2066Z" fill="white"/>
<path opacity="0.1" d="M80.6261 75.2579C80.9052 75.2579 81.1315 75.0316 81.1315 74.7525C81.1315 74.4733 80.9052 74.2471 80.6261 74.2471C80.347 74.2471 80.1207 74.4733 80.1207 74.7525C80.1207 75.0316 80.347 75.2579 80.6261 75.2579Z" fill="black"/>
<path opacity="0.1" d="M73.9746 75.2579C74.2537 75.2579 74.48 75.0316 74.48 74.7525C74.48 74.4733 74.2537 74.2471 73.9746 74.2471C73.6955 74.2471 73.4692 74.4733 73.4692 74.7525C73.4692 75.0316 73.6955 75.2579 73.9746 75.2579Z" fill="black"/>
<path d="M80.6261 75.0894C80.9052 75.0894 81.1315 74.8631 81.1315 74.584C81.1315 74.3049 80.9052 74.0786 80.6261 74.0786C80.347 74.0786 80.1207 74.3049 80.1207 74.584C80.1207 74.8631 80.347 75.0894 80.6261 75.0894Z" fill="white"/>
<path opacity="0.1" d="M74.48 83.7203C74.7591 83.7203 74.9854 83.494 74.9854 83.2149C74.9854 82.9358 74.7591 82.7095 74.48 82.7095C74.2009 82.7095 73.9746 82.9358 73.9746 83.2149C73.9746 83.494 74.2009 83.7203 74.48 83.7203Z" fill="black"/>
<path opacity="0.1" d="M80.8367 83.2149C81.1158 83.2149 81.3421 82.9886 81.3421 82.7095C81.3421 82.4304 81.1158 82.2041 80.8367 82.2041C80.5575 82.2041 80.3313 82.4304 80.3313 82.7095C80.3313 82.9886 80.5575 83.2149 80.8367 83.2149Z" fill="black"/>
<path d="M74.48 83.5523C74.7591 83.5523 74.9854 83.326 74.9854 83.0469C74.9854 82.7678 74.7591 82.5415 74.48 82.5415C74.2009 82.5415 73.9746 82.7678 73.9746 83.0469C73.9746 83.326 74.2009 83.5523 74.48 83.5523Z" fill="white"/>
<path d="M73.9746 75.0894C74.2537 75.0894 74.48 74.8631 74.48 74.584C74.48 74.3049 74.2537 74.0786 73.9746 74.0786C73.6955 74.0786 73.4692 74.3049 73.4692 74.584C73.4692 74.8631 73.6955 75.0894 73.9746 75.0894Z" fill="white"/>
<path d="M80.8367 83.0474C81.1158 83.0474 81.3421 82.8211 81.3421 82.542C81.3421 82.2629 81.1158 82.0366 80.8367 82.0366C80.5575 82.0366 80.3313 82.2629 80.3313 82.542C80.3313 82.8211 80.5575 83.0474 80.8367 83.0474Z" fill="white"/>
<path d="M80.5839 43.9214C80.863 43.9214 81.0893 43.6952 81.0893 43.416C81.0893 43.1369 80.863 42.9106 80.5839 42.9106C80.3048 42.9106 80.0785 43.1369 80.0785 43.416C80.0785 43.6952 80.3048 43.9214 80.5839 43.9214Z" fill="white"/>
<path d="M80.8367 50.7012C81.1158 50.7012 81.3421 50.475 81.3421 50.1958C81.3421 49.9167 81.1158 49.6904 80.8367 49.6904C80.5575 49.6904 80.3313 49.9167 80.3313 50.1958C80.3313 50.475 80.5575 50.7012 80.8367 50.7012Z" fill="white"/>
<path opacity="0.1" d="M81.5948 67.9272C81.5948 67.9272 81.679 79.4672 81.9317 81.5309C81.9317 81.5309 82.0235 68.4713 81.5948 67.9272Z" fill="black"/>
<path opacity="0.1" d="M83.7427 73.2754C83.5691 73.2754 87.1963 86.7948 87.3647 87.7634C87.5332 88.7321 84.7535 73.2754 83.7427 73.2754Z" fill="black"/>
<path opacity="0.1" d="M86.6066 71.0854C86.6066 71.2118 88.6282 78.4137 89.639 78.7927C90.6498 79.1718 86.6066 71.0854 86.6066 71.0854Z" fill="black"/>
<path opacity="0.1" d="M94.5666 57.061C94.5666 57.061 90.2707 57.2525 90.1443 57.8728C90.018 58.493 94.5666 57.061 94.5666 57.061Z" fill="black"/>
<path opacity="0.1" d="M86.9856 111.981C86.9856 111.981 83.9111 113.287 84.3744 113.371C84.8377 113.455 86.9856 111.981 86.9856 111.981Z" fill="black"/>
<path opacity="0.1" d="M80.6261 110.044C80.5063 109.774 82.6898 111.139 82.6898 111.307C82.6898 111.476 80.7945 110.423 80.6261 110.044Z" fill="black"/>
<path opacity="0.1" d="M83.49 114.466C83.49 114.466 85.8906 114.345 86.0591 115.268C86.2275 116.192 83.49 114.466 83.49 114.466Z" fill="black"/>
<path opacity="0.1" d="M66.2223 114.46C66.2223 114.46 68.8335 113.95 69.044 114.46C69.2546 114.971 66.2223 114.46 66.2223 114.46Z" fill="black"/>
<path opacity="0.1" d="M67.1909 130.343C67.1909 130.343 67.3621 132.491 66.729 132.997C66.0959 133.502 67.1909 130.343 67.1909 130.343Z" fill="black"/>
<path opacity="0.1" d="M66.8721 134.892C67.6964 134.977 72.0344 134.219 71.9923 134.892C71.9501 135.566 66.8721 134.892 66.8721 134.892Z" fill="black"/>
<path opacity="0.1" d="M86.7751 132.281C86.7751 132.281 85.2956 132.053 85.6563 133.051L86.7751 132.281Z" fill="black"/>
<path opacity="0.1" d="M59.2731 48.2166H58.4728L57.2515 52.681C57.2515 52.681 56.8303 54.2393 56.4091 54.6183C55.988 54.9974 56.7882 58.4509 56.7882 58.4509C56.7882 58.4509 56.3249 60.8937 55.9459 61.5254C55.5668 62.1572 56.5355 63.7155 56.5355 63.7155L58.4728 68.2641L63.6111 69.6118C63.6111 69.6118 72.6661 71.5913 73.0872 71.8861C73.5084 72.1809 73.8875 71.7597 74.1823 69.0222C74.4771 66.2846 75.2773 60.9779 75.909 60.7252C75.909 60.7252 70.8551 61.2727 70.4339 61.1885C70.0127 61.1043 67.9912 61.2306 67.9912 61.2306C67.9912 61.2306 65.3378 61.0622 64.9167 61.3149C64.4955 61.5676 65.4642 60.0916 65.4642 60.0916C65.6415 59.4158 65.6415 58.7056 65.4642 58.0298C65.1694 56.8926 65.0009 44.005 59.2731 48.2166Z" fill="black"/>
<path opacity="0.1" d="M75.7406 61.2301C75.1088 61.4828 74.3086 66.7895 74.0138 69.527C73.719 72.2646 73.3399 72.6858 72.9188 72.3909C72.5768 72.1517 66.5407 70.8006 64.2849 70.302C64.6404 68.2046 64.8324 65.8629 64.8324 65.8629L58.4307 48.7215H59.1046C64.8324 44.5099 65.0009 57.3975 65.2957 58.5347C65.473 59.2106 65.473 59.9208 65.2957 60.5967C65.2957 60.5967 64.327 62.0724 64.7482 61.8197C65.1694 61.567 67.8227 61.7355 67.8227 61.7355C67.8227 61.7355 69.8443 61.6091 70.2654 61.6934C70.6866 61.7776 75.7406 61.2301 75.7406 61.2301Z" fill="black"/>
<path d="M59.1046 48.3851H58.3044L57.083 52.8494C57.083 52.8494 56.6619 54.4078 56.2407 54.7868C55.8195 55.1658 56.6197 58.6194 56.6197 58.6194C56.6197 58.6194 56.1565 61.0622 55.7774 61.6939C55.3984 62.3256 56.367 63.8839 56.367 63.8839L58.3044 68.4325L63.4426 69.7802C63.4426 69.7802 72.4976 71.7597 72.9188 72.0545C73.34 72.3494 73.719 71.9282 74.0138 69.1906C74.3086 66.4531 75.1088 61.1464 75.7406 60.8937C75.7406 60.8937 70.6866 61.4412 70.2655 61.357C69.8443 61.2728 67.8227 61.3991 67.8227 61.3991C67.8227 61.3991 65.1694 61.2306 64.7482 61.4833C64.3271 61.736 65.2957 60.2601 65.2957 60.2601C65.4731 59.5842 65.4731 58.8741 65.2957 58.1982C65.0009 57.0611 64.8324 44.1735 59.1046 48.3851Z" fill="#6AC5D7"/>
<path opacity="0.1" d="M61.8422 63.6309C61.8422 63.6309 59.5258 68.011 59.1046 67.5056C58.6834 67.0002 61.8422 63.6309 61.8422 63.6309Z" fill="black"/>
<path opacity="0.1" d="M59.4415 61.1372C59.4415 61.1372 57.2936 62.9155 58.3044 63.3787C59.3151 63.842 59.4415 61.1372 59.4415 61.1372Z" fill="black"/>
<path opacity="0.1" d="M61.4631 58.9565C61.6316 58.9987 64.5797 59.5842 64.6218 59.8389C64.664 60.0937 61.4631 58.9565 61.4631 58.9565Z" fill="black"/>
<path opacity="0.1" d="M81.9081 28.1041C81.8165 28.1363 81.7384 28.1983 81.6862 28.2801C81.6339 28.362 81.6106 28.4589 81.62 28.5556C81.4482 28.7072 81.2073 28.5286 81.0674 28.3349C80.9259 28.1428 80.7659 27.9053 80.552 27.9322C80.4503 27.9647 80.3517 28.0058 80.2571 28.0552C79.9202 28.163 79.6355 27.7671 79.4468 27.4201C79.1183 26.8119 78.7898 26.2043 78.4613 25.5973C77.8026 25.9797 77.0243 25.5788 76.3706 25.1829C75.717 24.787 74.9387 24.3843 74.2783 24.7668C73.3096 25.3261 73.2742 27.191 72.2702 27.6509C71.9467 27.7991 71.571 27.7671 71.2712 27.971C70.9747 28.1731 70.8146 28.5623 70.6815 28.9346C70.6323 29.1465 70.5166 29.3372 70.3513 29.4787C70.2464 29.5336 70.1295 29.562 70.011 29.5613C69.7133 29.6119 69.4073 29.5689 69.135 29.4383C68.9923 29.3486 68.8845 29.2129 68.8293 29.0536C68.7742 28.8944 68.7751 28.721 68.8318 28.5623C68.8398 28.5455 68.8488 28.5292 68.8587 28.5134C68.9667 28.383 69.0636 28.2438 69.1485 28.0973C69.2496 27.8295 69.1047 27.5178 69.1367 27.228C69.1889 26.7328 69.7129 26.4716 69.8022 25.9848C69.8392 25.7944 69.8005 25.5906 69.8358 25.3985C69.8408 25.3733 69.8476 25.3486 69.8561 25.3244L69.5478 25.5367C69.8931 25.134 70.0667 24.5747 70.3194 24.0862C70.6001 23.5512 70.9864 23.0788 71.4549 22.6975C71.9234 22.3161 72.4644 22.0338 73.0451 21.8675C74.1435 21.5474 75.3042 21.635 76.4127 21.9062C77.4668 22.1688 78.4766 22.5849 79.4097 23.1411C79.7431 23.3198 80.0393 23.5605 80.2824 23.8503C80.4861 24.1507 80.6593 24.4707 80.7996 24.8055C81.1264 25.4827 82.0193 26.1094 81.3084 26.2038C80.717 26.2829 81.2561 26.6974 81.5661 26.977C81.636 27.0319 81.6964 27.0979 81.7447 27.1724C81.7961 27.279 81.8197 27.3968 81.8132 27.515C81.8068 27.6331 81.7704 27.7477 81.7076 27.848C81.588 27.9996 82.0732 28.0299 81.9081 28.1041Z" fill="black"/>
<path d="M81.9081 27.9346C81.8165 27.9669 81.7384 28.0288 81.6862 28.1107C81.6339 28.1925 81.6107 28.2895 81.62 28.3861C81.4482 28.5377 81.2073 28.3592 81.0675 28.1654C80.926 27.9734 80.7659 27.7358 80.552 27.7628C80.4503 27.7952 80.3517 27.8364 80.2571 27.8858C79.9202 27.9936 79.6355 27.5977 79.4468 27.2507C79.1183 26.6425 78.7898 26.0349 78.4613 25.4279C77.8026 25.8103 77.0243 25.4093 76.3706 25.0134C75.717 24.6175 74.9387 24.2149 74.2783 24.5973C73.3096 25.1566 73.2742 27.0216 72.2702 27.4815C71.9467 27.6297 71.571 27.5977 71.2712 27.8016C70.9747 28.0037 70.8146 28.3929 70.6815 28.7652C70.6323 28.9771 70.5166 29.1678 70.3514 29.3093C70.2464 29.3642 70.1295 29.3926 70.011 29.3919C69.7134 29.4425 69.4073 29.3995 69.135 29.2689C68.9923 29.1792 68.8845 29.0435 68.8293 28.8842C68.7742 28.7249 68.7751 28.5516 68.8318 28.3929C68.8398 28.376 68.8488 28.3597 68.8587 28.344C68.9667 28.2135 69.0636 28.0744 69.1485 27.9279C69.2496 27.66 69.1047 27.3484 69.1367 27.0586C69.1889 26.5633 69.7129 26.3022 69.8022 25.8153C69.8392 25.625 69.8005 25.4211 69.8358 25.2291C69.8408 25.2039 69.8476 25.1791 69.8561 25.155L69.5478 25.3672C69.8931 24.9646 70.0667 24.4053 70.3194 23.9167C70.6001 23.3818 70.9864 22.9094 71.4549 22.528C71.9234 22.1467 72.4644 21.8643 73.0451 21.698C74.1435 21.3779 75.3042 21.4655 76.4128 21.7368C77.4668 21.9994 78.4766 22.4154 79.4098 22.9716C79.7431 23.1504 80.0393 23.3911 80.2824 23.6809C80.4861 23.9813 80.6594 24.3013 80.7996 24.6361C81.1264 25.3133 82.0193 25.94 81.3084 26.0343C80.7171 26.1135 81.2561 26.5279 81.5661 26.8076C81.636 26.8624 81.6964 26.9285 81.7447 27.003C81.7962 27.1096 81.8197 27.2274 81.8133 27.3456C81.8068 27.4637 81.7704 27.5783 81.7076 27.6786C81.588 27.8302 82.0732 27.8605 81.9081 27.9346Z" fill="#865A61"/>
<path opacity="0.1" d="M81.5661 26.8076L81.4987 27.5168C81.4987 27.5168 74.4299 18.5578 68.9312 28.6742C68.9312 28.6742 68.9042 28.5512 68.8587 28.344C68.9667 28.2135 69.0636 28.0744 69.1485 27.9279C69.2496 27.66 69.1047 27.3484 69.1367 27.0586C69.1889 26.5633 69.7129 26.3022 69.8022 25.8153C69.8392 25.625 69.8005 25.4211 69.8358 25.2291C69.8408 25.2039 69.8476 25.1791 69.8561 25.155L69.5478 25.3672C69.8931 24.9646 70.0667 24.4053 70.3194 23.9167C70.6001 23.3818 70.9864 22.9094 71.4549 22.528C71.9234 22.1467 72.4644 21.8643 73.0451 21.698C74.1435 21.3779 75.3042 21.4655 76.4127 21.7368C77.4668 21.9994 78.4766 22.4154 79.4098 22.9716C79.7431 23.1504 80.0393 23.3911 80.2824 23.6809C80.4861 23.9813 80.6594 24.3013 80.7996 24.6361C81.1264 25.3133 82.0193 25.94 81.3084 26.0343C80.717 26.1135 81.2561 26.528 81.5661 26.8076Z" fill="black"/>
<g opacity="0.1">
<path opacity="0.1" d="M81.7404 27.8436C81.7056 27.8828 81.6802 27.9295 81.6663 27.98C81.6524 28.0306 81.6504 28.0837 81.6603 28.1352C81.4885 28.2868 81.2476 28.1082 81.1077 27.9145C80.9662 27.7224 80.8062 27.4849 80.5922 27.5119C80.4906 27.5443 80.392 27.5854 80.2974 27.6348C79.9605 27.7427 79.6758 27.3468 79.4871 26.9997C79.1586 26.3916 78.8301 25.784 78.5016 25.1769C77.8429 25.5593 77.0645 25.1584 76.4109 24.7625C75.7572 24.3666 74.9789 23.964 74.3186 24.3464C73.3499 24.9057 73.3145 26.7706 72.3104 27.2305C71.987 27.3788 71.6113 27.3468 71.3114 27.5506C71.0149 27.7528 70.8549 28.1419 70.7218 28.5142C70.6725 28.7262 70.5569 28.9168 70.3916 29.0584C70.2866 29.1133 70.1698 29.1416 70.0513 29.1409C69.7536 29.1915 69.4475 29.1485 69.1753 29.0179C69.0121 28.9097 68.8951 28.7446 68.847 28.5548C68.8135 28.7057 68.8271 28.8633 68.8857 29.0063C68.9444 29.1493 69.0455 29.271 69.1753 29.3549C69.4475 29.4855 69.7536 29.5285 70.0513 29.4779C70.1698 29.4786 70.2866 29.4502 70.3916 29.3953C70.5569 29.2538 70.6725 29.0631 70.7218 28.8512C70.8549 28.4789 71.0149 28.0897 71.3114 27.8875C71.6113 27.6837 71.987 27.7157 72.3104 27.5675C73.3145 27.1075 73.3499 25.2426 74.3186 24.6833C74.9789 24.3009 75.7572 24.7035 76.4109 25.0994C77.0645 25.4953 77.8429 25.8963 78.5016 25.5139C78.8301 26.1203 79.1586 26.7279 79.4871 27.3367C79.6758 27.6837 79.9605 28.0796 80.2974 27.9718C80.392 27.9224 80.4906 27.8812 80.5922 27.8488C80.8062 27.8218 80.9662 28.0594 81.1077 28.2514C81.2476 28.4452 81.4885 28.6237 81.6603 28.4721C81.6509 28.3755 81.6742 28.2785 81.7264 28.1967C81.7787 28.1148 81.8568 28.0529 81.9484 28.0206C82.0797 27.9617 81.8004 27.9302 81.7404 27.8436Z" fill="black"/>
<path opacity="0.1" d="M81.1896 26.1608C81.2405 26.1403 81.294 26.1268 81.3486 26.1207C81.6621 26.0791 81.6634 25.9338 81.5393 25.7266C81.4803 25.7584 81.4154 25.7779 81.3486 25.7837C81.0104 25.829 81.0425 25.9841 81.1896 26.1608Z" fill="black"/>
<path opacity="0.1" d="M81.835 27.5716C81.8585 27.463 81.8579 27.3506 81.8332 27.2422C81.8182 27.3093 81.7891 27.3726 81.7479 27.4276C81.6951 27.4945 81.7601 27.5378 81.835 27.5716Z" fill="black"/>
<path opacity="0.1" d="M69.1867 27.0864C69.1831 27.1057 69.1791 27.1247 69.177 27.1447C69.1701 27.2964 69.1811 27.4484 69.2099 27.5976C69.2297 27.427 69.2219 27.2544 69.1867 27.0864Z" fill="black"/>
<path opacity="0.1" d="M69.8707 25.0312C69.7914 25.1814 69.6967 25.323 69.5881 25.4535L69.86 25.2663C69.8587 25.1878 69.8622 25.1093 69.8707 25.0312Z" fill="black"/>
</g>
<path d="M68.9308 28.5061C68.9308 28.5061 67.9143 23.9619 68.2377 23.2332C68.2377 23.2332 67.3599 21.4326 67.3599 21.004C67.3173 20.2886 67.0948 19.5956 66.713 18.9891C66.2509 18.2603 65.7427 14.8736 68.515 14.0591C71.2873 13.2446 73.4127 12.5158 73.7362 11.9585C74.0596 11.4012 78.8187 11.7442 80.1125 13.8876C81.4062 16.0311 82.2379 15.6024 82.2379 15.6024C82.2379 15.6024 84.2247 16.8456 84.2247 17.9602C84.2247 19.0748 83.6241 19.6321 84.2247 19.8893C84.8254 20.1466 84.3633 24.7765 81.7296 24.9051L81.4986 27.3486C81.4986 27.3486 74.4292 18.3889 68.9308 28.5061Z" fill="#6AC5D7"/>
<path opacity="0.1" d="M69.2336 14.9448C69.2336 14.9448 68.6229 18.5247 69.739 19.725L69.2336 14.9448Z" fill="black"/>
<path opacity="0.1" d="M72.0975 14.123C72.0975 14.123 70.5392 17.9556 70.9182 18.6927L72.0975 14.123Z" fill="black"/>
<path opacity="0.1" d="M73.4453 12.9019C73.4453 12.9019 72.3923 17.8927 72.8977 18.2928L73.4453 12.9019Z" fill="black"/>
<path opacity="0.1" d="M75.2562 14.2495C75.2562 14.2495 73.9506 17.4504 74.4771 17.8926L75.2562 14.2495Z" fill="black"/>
<path opacity="0.1" d="M77.72 14.6284C77.72 14.6284 76.1828 17.2396 76.4987 17.7029L77.72 14.6284Z" fill="black"/>
<path opacity="0.1" d="M80.8788 17.1768C80.8788 17.1768 79.2362 17.619 79.5732 18.1454L80.8788 17.1768Z" fill="black"/>
<path opacity="0.1" d="M82.4371 19.8926C82.4371 19.8926 80.963 20.6086 81.2367 20.9876L82.4371 19.8926Z" fill="black"/>
<path opacity="0.1" d="M68.2377 23.2328C68.2377 23.2328 77.6529 19.4085 81.7296 24.9047C81.7296 24.9047 76.7813 20.6975 68.2377 23.2328Z" fill="black"/>
<path d="M64.8354 54.6572L66.1473 53.3301L69.8565 56.9965L68.5446 58.3238L65.1334 54.9519L64.8354 54.6572Z" fill="#53526B"/>
<path d="M56.2287 46.1489C56.2287 46.1489 61.9707 46.6375 67.3148 52.6527L65.0874 54.906L56.2287 46.1489Z" fill="#DFE6F5"/>
<path d="M73.4515 56.9042C73.4515 56.9042 67.9326 54.8924 67.3903 54.4113C66.848 53.9302 63.6579 56.7293 67.5498 60.5343C67.5498 60.5343 72.3089 61.8901 73.582 60.5343C74.8552 59.1785 73.4515 56.9042 73.4515 56.9042Z" fill="#FDC2CC"/>
<defs>
<linearGradient id="paint0_linear_6_932" x1="76.5431" y1="148.94" x2="76.5431" y2="11.1206" gradientUnits="userSpaceOnUse">
<stop stop-color="#808080" stop-opacity="0.25"/>
<stop offset="0.53514" stop-color="#808080" stop-opacity="0.12"/>
<stop offset="1" stop-color="#808080" stop-opacity="0.1"/>
</linearGradient>
</defs>
</svg>
