<svg width="82" height="139" fill="none" xmlns="http://www.w3.org/2000/svg"><path d="M42.604 134.113h-4.276l-2.035-15.68h6.312v15.68z" fill="#FFB8B8"/><path d="M43.695 132.786h-8.422a5.515 5.515 0 0 0-3.795 1.494 4.98 4.98 0 0 0-1.572 3.608v.166h13.789v-5.268z" fill="#2F2E41"/><path d="m53.255 118.719-3.156 2.744-12.634-10.266 4.658-4.049 11.132 11.571z" fill="#FFB8B8"/><path d="m53.118 117.04-6.215 5.403c-1.05.913-1.676 2.186-1.74 3.537a4.957 4.957 0 0 0 1.401 3.671l.118.122 10.175-8.846-3.74-3.887zM35.883 79.05l1.212 23.043-3.03 25.06 9.09 1.152 5.757-31.684 1.819-21.603-14.848 4.033z" fill="#2F2E41"/><path d="M21.641 70.698s-3.636 22.755 3.94 30.244c7.575 7.489 17.877 20.739 17.877 20.739l7.273-8.641-18.484-18.723 3.636-12.673 14.847-6.625-2.424-15.842-21.816-.288-4.849 11.81z" fill="#2F2E41"/><path d="M38.327 17.988c-4.099 0-7.421-3.159-7.421-7.055s3.322-7.054 7.42-7.054c4.1 0 7.422 3.158 7.422 7.054 0 3.896-3.323 7.055-7.421 7.055z" fill="#FFB8B8"/><path d="m32.172 20.959-1.137 1.637-3.03 8.065 2.424 31.395 14.241.289 1.818-36.005-3.808-4.525-10.508-.857z" fill="#CCC"/><path d="m52.245 27.204 2.425-.288s.606.288.909 2.305c.303 2.016 3.939 19.874 3.939 19.874L54.67 70.986l-5.455-6.913 3.333-12.097-3.333-12.098 3.03-12.674zM21.338 26.916H19.52l-4.545 23.331 4.242 18.147 4.242-6.625-1.212-7.201.606-6.337 2.121-3.745-3.636-17.57zM33.942 10.933l1.349-.32s1.012-5.452 3.373-4.81c2.361.64 8.433 1.282 8.433-1.283S41.363-.29 37.99.03c-3.373.321-7.68 1.385-8.77 6.093-1.746 7.547 3.602 9.453 3.602 9.453l-.089-.274a4.076 4.076 0 0 1-.051-2.349 4.242 4.242 0 0 1 1.26-2.02z" fill="#2F2E41"/><path d="m54.367 26.916-9.697-3.744-2.272-1.585-6.818 28.66-4.545-12.962 1.363-16.562-12.575 6.193 4.242 19.586.607 7.49-1.819 6.048s-6.363 4.32-4.242 8.93c2.121 4.608 4.546 4.896 4.546 4.896s10.302-9.217 10.908-11.522c.606-2.304 1.515-6.336 1.515-6.336S40.73 74.442 46.79 74.154c6.06-.288 6.06-6.337 6.06-6.337l-1.514-6.337-2.425-6.625 1.212-10.945 4.243-16.994z" fill="#2F2E41"/><path d="M1.236 138.543H81.7c.08 0 .156-.03.212-.084a.277.277 0 0 0 0-.403.307.307 0 0 0-.212-.084H1.236c-.08 0-.156.03-.212.084a.277.277 0 0 0 0 .403.307.307 0 0 0 .212.084z" fill="#CCC"/></svg>