<svg width="239" height="356" fill="none" xmlns="http://www.w3.org/2000/svg"><path d="M139.472 113.506h53.282c.174 0 .34-.069.463-.191a.657.657 0 0 0 0-.926.657.657 0 0 0-.463-.191h-53.282a.655.655 0 0 0 0 1.308z" fill="#3F3D56"/><path d="M164.019 51.23a5.066 5.066 0 0 0-2.281 6.69c.119.24.258.47.415.688L152.12 73.165l5.595 7.689 11.587-21.425a5.052 5.052 0 0 0 1.301-6.03 4.838 4.838 0 0 0-4.641-2.708 4.838 4.838 0 0 0-1.943.54z" fill="#FFB6B6"/><path d="M104.504 54.165a8.743 8.743 0 0 0-4.245 5.915 8.732 8.732 0 0 0 .079 3.726 8.73 8.73 0 0 0 1.622 3.354l12.452 15.884 27.573 20.381s19.418-16.964 19.574-22.237c.155-5.273-1.923-6.39.155-5.273s3.97.28 3.257-.31c-.713-.59-.462-.655-.029-1.661s1.953-5.752 1.953-5.752l-7.572-6.18s-7.068 4.287-7.533 6.303c-.466 2.016 2.078 1.117-.466 2.016-2.543.9-6.305-1.724-3.292 1.123s2.917 4.217.421 4.431c-2.495.215-6.435 7.162-6.435 7.162l-26.93-27.417a8.752 8.752 0 0 0-10.584-1.465z" fill="#E6E6E6"/><path d="M101.798 354.686h-82.69a6.428 6.428 0 0 1-6.42-6.419v-69.605a6.428 6.428 0 0 1 6.42-6.419h82.69a6.427 6.427 0 0 1 6.419 6.419v69.605a6.426 6.426 0 0 1-6.419 6.419z" fill="#fff"/><path d="M212.627 107.798c-17.445-4.342-32.423-12.878-44.132-26.969a3.952 3.952 0 0 1-1.31-5.428l20.367-33.33a3.954 3.954 0 0 1 5.428-1.31l44.132 26.97a3.953 3.953 0 0 1 1.31 5.427l-20.367 33.33a3.958 3.958 0 0 1-5.428 1.31z" fill="#E6E6E6"/><path d="M200.86 97.095c-9.186-1.002-18.732-8.344-28.372-17.338a3.702 3.702 0 0 1-1.227-5.083l17.504-28.644a3.701 3.701 0 0 1 5.083-1.227L233.12 68.8a3.705 3.705 0 0 1 1.227 5.084l-10.844 17.744a16.488 16.488 0 0 1-22.643 5.466z" fill="#fff"/><path d="m208.914 62.678-13.587 22.373a1.574 1.574 0 0 1-2.158.527 1.56 1.56 0 0 1-.71-.97 1.579 1.579 0 0 1 .183-1.188l13.587-22.372a1.574 1.574 0 0 1 2.158-.528 1.573 1.573 0 0 1 .527 2.158zM214.815 66.262l-13.587 22.372a1.57 1.57 0 0 1-2.866-.443 1.572 1.572 0 0 1 .181-1.187L212.13 64.63a1.57 1.57 0 0 1 2.685 1.63z" fill="#008BC4"/><path d="M121.5 136.144s-1.708 44.252-3.897 51.156c-2.376 7.471-1.748 18.7-5.326 29.561a2101.452 2101.452 0 0 1-3.361 10.128c-.224.68-.455 1.36-.679 2.04a1540.076 1540.076 0 0 1-4.365 12.793c-.201.575-.402 1.143-.597 1.704-.006.014-.006.027-.012.033-4.665 13.311-8.684 23.791-10.353 25.55-1.784 1.879-14.14 2.962-29.426 3.571-28.332 1.122-66.74.629-66.74.629l-.344-15.418s.337-.107.967-.314c1.162-.371 3.323-1.062 6.146-1.98 11.793-3.817 35.162-11.492 45.846-15.673 3.02-1.178 5.024-2.082 5.47-2.545 2.614-2.686 3.866-.101 5.635 2.471 1.77 2.571 2.224-.059 4.398-2.04 2.173-1.981 7.253.53 7.253.53v-4.516c-.003-4.097-.013-10.472-.023-16.854-.007-.006-.007-.006 0-.006-.004-2.402-.008-4.804-.016-7.082 0-1.767-.005-3.462-.007-5.033-.019-4.706-.04-8.266-.063-9.155-.076-2.904-.017-.648 2.233-2.461.336-.278.654-.577.952-.895.478-.453.916-.946 1.31-1.475.16-.37-.88.154-2.254-.085a4.128 4.128 0 0 1-2.009-.961c-2.952-2.522-.047-10.57-.047-10.57-6.898-12.936-6.708-23.702-3.857-32.063a41.224 41.224 0 0 1 10.227-15.865 38.94 38.94 0 0 1 5.702-4.718l.174-1.084 1.904-12.048a25.197 25.197 0 0 1 15.87-3.315 36.845 36.845 0 0 1 11.867 3.505 43.699 43.699 0 0 1 8.55 5.301l-1.128 17.184z" fill="#2F2E41"/><path d="m62.652 338 7.178.668 6.047-27.984-10.593-.985L62.652 338z" fill="#FFB6B6"/><path d="m83.327 348.968-10.665-8.932.478-5.136-2.48-.085-7.688-.249-1.885-.065-3.2 18 5.386.497 1.433-4.992 1.982 5.313 14.27 1.328a3.22 3.22 0 0 0 3.43-3.972 3.22 3.22 0 0 0-1.06-1.707z" fill="#1F1E37"/><path d="M102.551 242.963c-2.729 14.866-14.29 49.708-21.279 70.103-3.186 9.317-5.41 15.625-5.41 15.625l-3.632-1.145-6.124-1.937-2.238-.707-2.709-.857s.635-33.514.21-51.291c-.145-5.732-.393-9.828-.805-10.639-1.702-3.337 1.145-3.69 4.148-4.534 3.01-.844.66-2.114-.51-4.823-.792-1.806.765-4.207 1.871-5.581.305-.386.63-.755.975-1.106 0 0-7.656-2.604-16.312-5.542-.006.007-.006 0-.006 0-.87-.294-1.747-.589-2.624-.89 3.049-1.099 5.077-1.949 5.535-2.401 2.683-2.617 3.867 0 5.568 2.617 1.701 2.618 2.225 0 4.45-1.923 2.224-1.924 7.236.719 7.236.719l.118-4.514c.105-4.096.262-10.469.419-16.849-.007-.006-.007-.006 0-.006.059-2.402.118-4.803.17-7.08 4.613 3.533 9.088 7.001 13.145 10.207.007.007.02.013.02.026 9.755 7.708 17.077 13.898 18.104 15.861.465.89.308 3.252-.32 6.667z" fill="#2F2E41"/><path d="M75.764 126.828c-3.067-.936-6.292 2.223-6.2 5.428.094 3.206 2.654 5.92 5.603 7.181 2.948 1.261 49.691 9.133 53.15 7.354 3.459-1.779 5.972-6.044 4.445-9.621-.984-2.304-3.104-13.014-4.985-14.668-6.331-5.567-.521-12.83 3.388-20.299 3.458-6.608 10.913-11.661 10.839-19.118-.054-5.36-4.107-9.727-7.903-13.511l-12.069-12.032-11.457-11.422c-2.448-2.44-12.951-3.732-14.832-2.597-3.93 2.37-13.654 41.863-15.043 45.465-.447 1.157 2.453 15.958 3.635 16.331 3.266 10.35-2.478 12.347-8.721 21.224" fill="#E6E6E6"/><path d="M169.526 70.717a5.07 5.07 0 0 0-3.718 6.01c.062.261.146.517.25.764l-13.032 11.944 3.734 8.745 16.083-18.292a5.052 5.052 0 0 0 2.617-5.587 4.85 4.85 0 0 0-2.153-3.01 4.836 4.836 0 0 0-3.781-.574z" fill="#FFB6B6"/><path d="M110.862 60.272a8.745 8.745 0 0 0-6.216 8.465 8.743 8.743 0 0 0 .831 3.632l8.586 18.266 22.319 26.029s22.719-12.194 24.05-17.299c1.33-5.104-.446-6.657 1.33-5.104s3.807 1.16 3.244.426c-.564-.734-.304-.742.343-1.626.646-.884 3.189-5.17 3.189-5.17l-5.999-7.717s-7.847 2.6-8.751 4.46c-.905 1.861 1.775 1.553-.905 1.861-2.68.308-5.76-3.09-3.46.359 2.3 3.448 1.901 4.762-.58 4.413-2.48-.349-7.873 5.542-7.873 5.542l-20.12-32.743a8.75 8.75 0 0 0-9.988-3.794z" fill="#E6E6E6"/><path d="M103.377 42.255c10.804 0 19.562-8.759 19.562-19.563 0-10.803-8.758-19.562-19.562-19.562-10.804 0-19.563 8.759-19.563 19.562 0 10.804 8.759 19.563 19.563 19.563z" fill="#FFB6B6"/><path d="M88.26 8.23c.202-1.76 1.408-3.937 2.248-5.497.84-1.56 2.46-2.835 4.229-2.727a4.51 4.51 0 0 1 3.455 2.349 9.46 9.46 0 0 1 1.075 4.176 21.874 21.874 0 0 1-7.112 17.417c-1.371 1.23-3.021 2.323-4.862 2.365a6.27 6.27 0 0 1-4.442-1.998c-2.98-2.984-3.431-7.891-1.84-11.797 1.592-3.906 2.303-5.426 5.94-7.56" fill="#2F2E41"/><path d="M115.742 36.365c-.328 1.74 2.682 10.018 1.72 11.51 0 0-9.959 3.459-13.767 3.707-4.652.301-8.394-1.607-12.745-4.48a9.77 9.77 0 0 0-1.315-4.423 5.919 5.919 0 0 1-.615 3.023c-6.373-5.077-8.766-19.04-2.465-25.524L93.098 5.13c-1.962.654 3.963-9.455 10.212-2.134 7.819-7.963 22.966 3.5 24.864 13.74-1.827-2.31-2.778-2.038-3.246-.444a9.012 9.012 0 0 0-2.486-3.474 7.538 7.538 0 0 1 .811 3.474c-12.334.765-10.038 9.086.071 21.55-3.738-2.326-1.216 7.702-3.212 10.099-.098-1.675-4.017-9.946-4.37-11.575z" fill="#2F2E41"/><path d="M165.927 58.545a6.544 6.544 0 1 0 0-13.088 6.544 6.544 0 0 0 0 13.088z" fill="#74969D"/><path d="M97.943 20.34a.654.654 0 0 1-.179-1.284c.172-.283.101-1.475.045-2.437-.213-3.615-.57-9.664 5.304-13.747a.653.653 0 1 1 .747 1.074c-5.27 3.665-4.954 9.04-4.745 12.596.12 2.033.206 3.502-1.027 3.781a.646.646 0 0 1-.145.016z" fill="#6AC5D7"/><path d="M-31 355.012a.774.774 0 0 0 .779.778h165.729a.779.779 0 1 0 0-1.557h-165.73a.783.783 0 0 0-.72.48.78.78 0 0 0-.058.299z" fill="#CCC"/><path d="M98.248 6.039A36.905 36.905 0 0 0 85.68 3.254c-3.427-.145-7.515.619-8.908 3.752-.845 1.902-.394 4.13.379 6.062.772 1.931 1.857 3.756 2.305 5.788.964 4.377-1.312 9.016-4.804 11.825-3.493 2.808-8 4.048-12.447 4.611 3.34 1.24 6.732 2.491 10.283 2.788 3.55.298 7.343-.474 9.994-2.855 2.87-2.576 3.971-6.578 4.46-10.402.487-3.826.513-7.765 1.81-11.396 1.296-3.632 4.274-7.013 8.117-7.336" fill="#2F2E41"/></svg>