<svg width="141" height="146" fill="none" xmlns="http://www.w3.org/2000/svg"><path d="M121.364 139.045h-2.917l-1.389-11.254h4.307l-.001 11.254z" fill="#9E616A"/><path d="M122.108 141.874h-9.407v-.119a3.66 3.66 0 0 1 3.661-3.662H122.109l-.001 3.781z" fill="#2F2E41"/><path d="M110.893 139.045h-2.918l-1.388-11.254h4.306v11.254z" fill="#9E616A"/><path d="M111.637 141.874h-9.408v-.119a3.662 3.662 0 0 1 3.662-3.662h5.746v3.781z" fill="#2F2E41"/><path d="M76.912 60.188a2.713 2.713 0 0 0 4.149.284l5.773 2.254 2.226-3.174-8.198-3.07a2.727 2.727 0 0 0-3.95 3.706z" fill="#9E616A"/><path d="m110.856 79.42-7.601 2.479 2.539 53.832 5.866.145 3.003-37.963.681 37.813 7.254.4 2.674-56.707h-14.416z" fill="#2F2E41"/><path d="m105.727 47.687 19.509-4.24 2.17 16.8-1.807 8.025.724 12.198s-15.426 7.678-23.068 1.43c0 0 6.142-16.134 2.582-23.686l-.11-10.527z" fill="#E4E4E4"/><path d="m109.106 50.062-3.379-2.376s-.199-.276-3.015 3.015c-2.816 3.292-8.527 8.527-8.527 8.527l-9.52-3.57-1.734 6.408 11.064 5.156 15.663-10.46-.552-6.7z" fill="#E4E4E4"/><path d="M126.326 86.767A2.708 2.708 0 0 0 127.792 85a2.723 2.723 0 0 0-.413-2.258l3.29-5.252-2.704-2.778-4.543 7.482a2.725 2.725 0 0 0-.578 3.576 2.726 2.726 0 0 0 3.482.996z" fill="#9E616A"/><path d="m122.193 46.757 3.043-3.31s3.391-1.18 6.161 4.92c2.77 6.102 5.864 18.477 5.864 18.477l-7.234 13.934-5.618-2.51 5.618-11.522-5.945-8.533-1.889-11.456z" fill="#E4E4E4"/><path d="M117.034 42.069a6.334 6.334 0 0 0-6.075-11.113 6.333 6.333 0 1 0 6.075 11.113z" fill="#9E616A"/><path d="M119.336 30.85c-.299-1.257-1.348-2.25-2.554-2.715-1.206-.465-2.549-.46-3.823-.244-2.116.36-4.091 1.271-6.037 2.174l1.5.718-2.07.119 1.599.827a2.806 2.806 0 0 0-1.039 2.845c.083.343.303.72.655.733.426.014.648-.483.947-.787.396-.405 1.023-.495 1.585-.419.562.077 1.095.293 1.649.412a4.94 4.94 0 0 0 4.039-.936l1.995 4.804a1.187 1.187 0 0 1 .367-.984 1.184 1.184 0 0 1 1.855.313 1.174 1.174 0 0 1 .024 1.05c.864-1.303 1.558-2.783 1.582-4.345.024-1.563-.751-3.21-2.17-3.865" fill="#2F2E41"/><path d="m45.946 127.885-2.697 4.241 1.57-5.521c-3.317-3.462-7.91-5.994-7.91-5.994s-5.654 9.294-4.132 15.011c1.522 5.717 5.452 6.809 9.645 5.692 4.192-1.116 7.06-4.017 5.537-9.734-.338-1.272-1.074-2.522-2.013-3.695z" fill="#F2F2F2"/><path d="m42.377 132.548.075.282c.855 3.28.983 5.983.379 8.071l-.027.091-.141-.042-.135-.041c.685-2.264.38-5.124-.366-7.985a39.398 39.398 0 0 0-1.336-4.12 57.624 57.624 0 0 0-1.934-4.458 57.808 57.808 0 0 0-2.05-3.897l-.039-.067.123-.073v-.002l.124-.073c.003.005.048.078.127.216a60.164 60.164 0 0 1 1.99 3.786l.125.259c.48 1.004.987 2.132 1.47 3.33a41.903 41.903 0 0 1 .454 1.165c.47 1.25.857 2.437 1.161 3.558z" fill="#fff"/><path d="M39.167 124.236c-.09.037-.181.075-.275.11a7.833 7.833 0 0 1-4.207.381l-.118.27a8.035 8.035 0 0 0 4.725-.502 7.97 7.97 0 0 0 2.046-1.266c-.08-.061-.16-.12-.236-.179a7.738 7.738 0 0 1-1.934 1.186zM41.112 128.718c-.094.031-.19.06-.286.086l-.09.025a7.783 7.783 0 0 1-7.036-1.582l-.1.292a8.086 8.086 0 0 0 7.211 1.569l.117-.033a8.032 8.032 0 0 0 4.038-2.638 27.85 27.85 0 0 0-.2-.21 7.732 7.732 0 0 1-3.654 2.491z" fill="#fff"/><path d="M42.377 132.548a7.421 7.421 0 0 1-.6.187 7.81 7.81 0 0 1-8.68-3.504c-.033.13-.066.258-.096.387a8.101 8.101 0 0 0 8.85 3.396c.105-.028.209-.057.31-.091a6.73 6.73 0 0 0 .291-.093 8.076 8.076 0 0 0 4.479-3.883c-.057-.096-.117-.189-.178-.283a7.784 7.784 0 0 1-4.376 3.884z" fill="#fff"/><path d="M96.149 24.497c0-9.997-6.97-18.101-15.567-18.101-8.597 0-15.567 8.104-15.567 18.1 0 9.067 5.733 16.577 13.214 17.896v1.706a1.215 1.215 0 0 0 1.215 1.215h2.276a1.215 1.215 0 0 0 1.215-1.215v-1.706c7.48-1.32 13.214-8.829 13.214-17.896z" fill="#6AC5D7"/><path d="M77.854 43.85a4.63 4.63 0 0 1 3.671-1.227 4.353 4.353 0 0 1 3.253 2.12 4.545 4.545 0 0 1 .42 3.795c-.408 1.246-1.278 2.284-2.17 3.219-.935.98-1.953 1.885-2.832 2.919a13.884 13.884 0 0 0-2.803 12.585 13.998 13.998 0 0 0 4.566 7.012c.28.228.567.446.863.652.343.24.668-.322.328-.56a13.318 13.318 0 0 1-5.026-6.917 13.191 13.191 0 0 1 2.846-12.672c.928-1.025 1.967-1.942 2.894-2.966.888-.982 1.698-2.09 2.045-3.386a5.173 5.173 0 0 0-.53-3.94 5.032 5.032 0 0 0-3.224-2.412 5.336 5.336 0 0 0-3.955.685 5.105 5.105 0 0 0-.804.635c-.302.29.157.748.458.458z" fill="#3F3D56"/><path d="M36.162 16.916C31.399 5.966 19.904.411 10.487 4.506 1.071 8.604-2.702 20.8 2.061 31.75c4.32 9.93 14.177 15.424 23 13.305l.812 1.868a1.452 1.452 0 0 0 1.91.752l2.493-1.084a1.451 1.451 0 0 0 .752-1.91l-.813-1.868c7.566-5.01 10.267-15.966 5.947-25.897z" fill="#6AC5D7"/><path d="M25.298 46.776a5.548 5.548 0 0 1 3.324-3.05 5.24 5.24 0 0 1 4.393.487 5.497 5.497 0 0 1 2.6 3.71c.332 1.78-.208 3.592-.82 5.248-.643 1.736-1.444 3.423-1.89 5.226a16.518 16.518 0 0 0 3.438 14.613 16.67 16.67 0 0 0 8.048 5.14c.384.108.771.2 1.162.28.407.082.582-.544.172-.626a16.023 16.023 0 0 1-8.484-4.762 15.647 15.647 0 0 1-4.117-9.46 15.822 15.822 0 0 1 .485-5.318c.493-1.829 1.327-3.54 1.956-5.322.6-1.7 1.026-3.525.648-5.324a6.119 6.119 0 0 0-2.672-3.84 5.911 5.911 0 0 0-4.483-.847 6.309 6.309 0 0 0-3.834 2.62 5.95 5.95 0 0 0-.551 1.053c-.16.385.468.553.625.172z" fill="#3F3D56"/><path d="m13.88 91.95-.857 1.075-3.03-1.792.857-1.075 3.03 1.793zM17.041 96.568l.757 1.13-3.183 1.583-.757-1.13 3.183-1.583zM20.336 91.66l1.512.053-.15 3.164-1.512-.053.15-3.164zM49.554 6.333l-.857 1.075-3.03-1.792.857-1.075 3.03 1.792zM52.715 10.951l.757 1.13-3.183 1.583-.757-1.13 3.183-1.583zM56.01 6.042l1.512.053-.15 3.164-1.512-.053.15-3.164zM133.658 17.575l-.857 1.075-3.03-1.792.857-1.075 3.03 1.792zM107.929 1.793l-.856 1.074-3.03-1.792.856-1.075 3.03 1.793zM111.091 6.41l.757 1.13-3.183 1.583-.757-1.13 3.183-1.583zM114.386 1.502l1.512.053-.15 3.164-1.513-.053.151-3.164zM134.087 82.59l-.856 1.248 3.03 2.081.856-1.248-3.03-2.08z" fill="#E4E4E4"/><path d="m69.813 139.209 2.62-.405-1.797-20.929-5.837 1.081 5.014 20.253z" fill="#FFB6B6"/><path d="m69.012 138.458 5.159-.798a3.327 3.327 0 0 1 3.796 2.779l.017.107-8.447 1.306-.525-3.394z" fill="#2F2E41"/><path d="m42.282 138.95 2.648.113 3.22-18.593h-5.837l-.031 18.48z" fill="#FFB6B6"/><path d="m41.643 138.056 5.215.222a3.328 3.328 0 0 1 3.183 3.466l-.005.108-8.54-.364.147-3.432z" fill="#2F2E41"/><path d="M47.496 78.373a2.176 2.176 0 0 0-.383-.072l1.651-13.513 5.602-11.862a3.26 3.26 0 0 0-5.673-3.182 25.726 25.726 0 0 0-3.292 7.263l-2.353 8.51 1.72 14.592a2.161 2.161 0 1 0 2.728-1.736z" fill="#FFB6B6"/><path d="m50.897 65.932-7.078-8.096 3.507-8.247a4.497 4.497 0 0 1 8.36 3.311l-4.79 13.032z" fill="#2F2E41"/><path d="M62.661 40.122a6.428 6.428 0 1 0-11.28-6.166 6.428 6.428 0 0 0 11.28 6.166z" fill="#FFB6B6"/><path d="M58.096 29.23h-4.152c-2.722 0-4.928 2.483-4.928 5.545l.192 7.428a32.263 32.263 0 0 1 8.549 2.286l.387-1.655.765 2.18c.68.33 1.354.69 2.022 1.08-.78-3.664-1.101-7.32-.565-10.161h1.406v-1.54l.477 1.54h2.55a6.703 6.703 0 0 0-6.703-6.703zM71.635 119.012l-.602.145-.505-9.39-3.675-28.107-4.216-10.702L64.69 63.5s2.378-5.189-3.568-9.189l-4.756-8c-3.286-2.148-5.99-.743-7.43 2.909-1.256 3.181-2.23 7.206-1.65 11.361 1.298 9.307 2.377 10.378 2.377 10.378s-8.107 8.973-6.378 20.431l-.964 29.669-.882-.036-.096 2.357 7.704.316.097-2.357-.639-.026 2.78-11.761 4.108-15.567 7.135 19.026 2.4 7.617-.791.19.552 2.293 7.497-1.805-.552-2.293z" fill="#2F2E41"/><path d="M76.93 65.736c-.088.096-.166.2-.235.31l-11.352-7.515-8.11-10.311a3.26 3.26 0 0 0-5.381 3.653 25.721 25.721 0 0 0 5.027 6.19l6.561 5.908 13.824 4.98a2.161 2.161 0 1 0-.335-3.215z" fill="#FFB6B6"/><path d="m67.32 57.135-10.406 2.714-5.81-6.822a4.497 4.497 0 0 1 6.697-6l9.518 10.108z" fill="#2F2E41"/><path d="M140.206 145.272H.257a.255.255 0 0 1-.182-.076.256.256 0 0 1 0-.364.258.258 0 0 1 .182-.075h139.949a.26.26 0 0 1 .183.075.26.26 0 0 1 0 .364.257.257 0 0 1-.183.076z" fill="#CACACA"/></svg>