<svg width="345" height="312" fill="none" xmlns="http://www.w3.org/2000/svg"><path d="M31.74 312H230.26a.956.956 0 0 0 .524-.146c.139-.094.217-.221.217-.354 0-.133-.078-.26-.217-.354a.956.956 0 0 0-.524-.146H31.741a.957.957 0 0 0-.524.146c-.139.094-.217.221-.217.354 0 .133.078.26.217.354a.957.957 0 0 0 .524.146z" fill="#CCC"/><path d="M161.399 54.878c2.218-1.85 5.122-12.824 7.855-13.767-2.29 4.246-.931 5.507-1.257 10.32a32.651 32.651 0 0 0 .382 8.177l44.959 3.144 2.453-35.09a24.073 24.073 0 0 0-5.844-17.468 24.061 24.061 0 0 0-16.483-8.22 14.36 14.36 0 0 0-3.595.273 22.885 22.885 0 0 0-17.233 15.023c-4.303 12.289-11.212 32.762-11.237 37.608z" fill="#2F2E41"/><path d="m212.823 100.034-.022-27.417 16.115 1.44-5.687 17.292 2.662 43.464a6.82 6.82 0 1 1-5.044 12.474 6.819 6.819 0 0 1-3.207-6.727l-4.817-40.526zM181.109 295.959l-6.51-.001-3.097-25.114h9.609l-.002 25.115z" fill="#FFB6B6"/><path d="m183.314 292.746-10.291-.614v4.41l-9.785 6.758a2.76 2.76 0 0 0-1.065 3.087 2.759 2.759 0 0 0 2.63 1.934h12.253l2.112-4.362.824 4.362h4.62l-1.298-15.575z" fill="#2F2E41"/><path d="m218.754 295.959-6.511-.001-3.096-25.114h9.608l-.001 25.115z" fill="#FFB6B6"/><path d="m220.959 292.746-10.292-.614v4.41l-9.785 6.758a2.753 2.753 0 0 0-1.064 3.087 2.754 2.754 0 0 0 2.629 1.934H214.7l2.112-4.362.825 4.362h4.62l-1.298-15.575z" fill="#2F2E41"/><path d="m186.907 43.009 13.487.264 9.52 10.05 7.633 1.12a15.236 15.236 0 0 1 12.995 14.097l-1.322 7.264h-7.934l-4.59 26.95c1.785 4.548 1.906 8.138-1.757 9.548l-11.371 21.422-33.586-15.075c-1.703-2.928-2.249-5.87-.508-8.73l-2.401-41.256H159c0-7.716 2.61-14.221 10.277-15.08a90.638 90.638 0 0 1 9.168-.524l8.462-10.05z" fill="#E6E6E6"/><path d="M169.982 118.65s32.792 5.818 44.957-6.348c0 0 1.235 2.097 3.096 5.575.535 1 1.569 1.677 2.193 2.889.567 1.1 2.027 2.454 2.645 3.703.497 1.004-.301 2.317.217 3.402 6.229 13.068 13.508 31.502 11.948 43.674-1.007 7.85-3.085 26.115-5.274 45.733-.171 1.533 1.214 3.502 1.042 5.047-.162 1.457-1.881 2.489-2.043 3.949-.108.97 1.093 1.959.985 2.927-.117 1.063-1.543 2.104-1.66 3.162-2.999 27.088-5.744 52.378-5.744 52.378h-15.339l-2.894-57.759 2.366-21.055-5.554-42.581-7.669 40.465-.987 22.774-8.104 59.214h-14.181v-57.323l-1.058-2.978 1.058-3.819-1.058-4.115 1.058-4.481V118.65z" fill="#2F2E41"/><path d="M182.156 34.314a15.286 15.286 0 0 0 25.933-.453 15.29 15.29 0 0 0-11.797-23.101 15.288 15.288 0 0 0-15.887 10.623c-.057.18-.107.36-.156.546a15.27 15.27 0 0 0 1.907 12.385z" fill="#FFB6B6"/><path d="M186.579 25.811a8.04 8.04 0 0 1 3.117-3.731 10.966 10.966 0 0 0-.254 4.633 21.186 21.186 0 0 0 11.868-.043c2.997-1.281 6.336-.47 9.942 1.933a14.81 14.81 0 0 0-11.711-17.364l-2.596-.505a14.812 14.812 0 0 0-17.363 11.713 44.035 44.035 0 0 0 6.997 3.364z" fill="#2F2E41"/><path d="M301.651 215.232c-23.497 0-42.545-19.05-42.545-42.549s19.048-42.549 42.545-42.549c23.498 0 42.546 19.05 42.546 42.549s-19.048 42.549-42.546 42.549z" fill="#F0F0F0"/><path d="M192.51 160.504h111.607a5.996 5.996 0 0 0 5.982-5.981v-54.387a6 6 0 0 0-5.981-5.982H192.51a5.997 5.997 0 0 0-5.981 5.981v54.387a6 6 0 0 0 5.981 5.982z" fill="#fff"/><path d="M192.51 160.504h111.607a5.996 5.996 0 0 0 5.982-5.981v-54.387a6 6 0 0 0-5.981-5.982H192.51a5.997 5.997 0 0 0-5.981 5.981v54.387a6 6 0 0 0 5.981 5.982zm111.607-64.681a4.327 4.327 0 0 1 4.313 4.314v54.385a4.327 4.327 0 0 1-4.313 4.313H192.511a4.32 4.32 0 0 1-3.046-1.267 4.32 4.32 0 0 1-1.267-3.047v-54.385a4.325 4.325 0 0 1 4.313-4.313h111.606z" fill="#3F3D56"/><path d="M242.332 152.467c22.011 0 44.963-.211 53.527-.347a4.315 4.315 0 0 0 4.229-4.301v-45.02a1.526 1.526 0 0 0-1.521-1.525H198.064a1.53 1.53 0 0 0-1.524 1.521v30.545a19.059 19.059 0 0 0 18.734 18.982c7.981.104 17.432.145 27.058.145z" fill="#69C5D7"/><path d="M204.03 130.534h90.813a3.698 3.698 0 0 0 3.473-2.449l10.279-28.839a3.69 3.69 0 0 0-3.468-4.928l-113.515-.158a3.694 3.694 0 0 0-2.831 1.319 3.696 3.696 0 0 0-.805 3.018l-.088.037.326.76.003.008 12.426 28.996a3.675 3.675 0 0 0 3.387 2.236zm-12.423-34.705 113.516.158a2.02 2.02 0 0 1 1.9 2.699l-10.278 28.837a2.03 2.03 0 0 1-1.904 1.342H204.03a2.006 2.006 0 0 1-1.853-1.223L189.75 98.644l-.611.262.611-.262a2.025 2.025 0 0 1 .899-2.574c.295-.158.624-.241.958-.241z" fill="#3F3D56"/><path d="M248.483 136.812a7.112 7.112 0 1 1 .001-14.223 7.112 7.112 0 0 1-.001 14.223z" fill="#fff"/><path d="m159.404 93.687-.022-27.418 16.115 1.44-5.687 17.293 20.644 31.298a6.818 6.818 0 1 1-8.25 5.747l-22.8-28.36z" fill="#FFB6B6"/><path opacity=".1" d="M45.26 308c20.123 0 36.437-1.201 36.437-2.683 0-1.481-16.314-2.682-36.438-2.682-20.124 0-36.437 1.201-36.437 2.682 0 1.482 16.313 2.683 36.438 2.683z" fill="#6AC5D7"/><path d="M47.954 219.476h-2.176v40.742h2.176v-40.742z" fill="#535461"/><path d="m61.622 260.096-.138 1.835-.192 2.589-.08 1.081-.192 2.592-.084 1.08-.192 2.59-2.194 29.458c-.094 1.268-.766 2.457-1.878 3.327-1.112.87-2.58 1.354-4.106 1.354h-11.4c-1.525 0-2.993-.484-4.104-1.354-1.112-.87-1.782-2.06-1.876-3.327l-2.198-29.458-.192-2.59-.08-1.08-.196-2.592-.08-1.081-.192-2.589-.137-1.835a2.19 2.19 0 0 1 .178-1.037c.145-.332.369-.636.66-.893.29-.257.64-.461 1.03-.601.389-.14.809-.213 1.233-.212h23.312c.424 0 .844.072 1.233.212.389.14.739.345 1.03.602.29.257.513.561.657.892.144.332.204.685.178 1.037z" fill="#65617D"/><path d="m61.484 261.93-.193 2.589h-28.85l-.193-2.589h29.236zM61.212 265.601l-.193 2.592H32.716l-.196-2.592h28.692zM60.936 269.272l-.192 2.59H32.988l-.192-2.59h28.14z" fill="#9D9CB5"/><path d="M28.927 234.747c12.666 7.624 17.94 19.549 17.94 19.549s-15.262-.435-27.928-8.059S1 226.688 1 226.688s15.262.435 27.927 8.059z" fill="#6AC5D7"/><path d="M1 226.688s15.84 7.317 20.922 13.374c5.082 6.057 24.944 14.234 24.944 14.234" stroke="#535461" stroke-width="2" stroke-miterlimit="10"/><path d="M37.102 219.387c6.894 4.149 9.764 10.64 9.764 10.64s-8.307-.237-15.2-4.386C24.772 221.491 21.9 215 21.9 215s8.307.237 15.201 4.387z" fill="#6AC5D7"/><path d="M21.901 215s8.622 3.983 11.388 7.28 13.577 7.747 13.577 7.747" stroke="#535461" stroke-width="2" stroke-miterlimit="10"/><path d="M56.884 229.695c-7.918 7.242-9.593 16.705-9.593 16.705s11.163-2.28 19.08-9.522c7.919-7.242 9.594-16.704 9.594-16.704s-11.163 2.279-19.081 9.521z" fill="#6AC5D7"/><path d="M75.965 220.174s-10.314 7.423-12.936 12.538c-2.62 5.115-15.738 13.688-15.738 13.688" stroke="#535461" stroke-width="2" stroke-miterlimit="10"/></svg>