<svg width="100" height="83" fill="none" xmlns="http://www.w3.org/2000/svg"><path d="M26.102 82.207C11.686 82.207 0 70.52 0 56.103s11.686-26.104 26.102-26.104c14.415 0 26.101 11.687 26.101 26.104S40.517 82.207 26.102 82.207z" fill="#F0F0F0"/><path d="M37.295 51.046 48.948 39.54a6.081 6.081 0 0 1 4.315-1.771h.04a6.096 6.096 0 0 1 4.33 1.822 14.327 14.327 0 0 1-.128 20.269 13.938 13.938 0 0 1-2.333 1.868 14.164 14.164 0 0 1-7.734 2.267h-.087a14.241 14.241 0 0 1-10.108-4.258 6.154 6.154 0 0 1 .052-8.691zm.675 7.97a13.354 13.354 0 0 0 16.767 1.78 13.717 13.717 0 0 0 2.052-1.663 13.31 13.31 0 0 0 .118-18.82 5.074 5.074 0 0 0-3.614-1.52h-.03a5.071 5.071 0 0 0-3.593 1.473L38.016 51.778a5.122 5.122 0 0 0-.046 7.237zM75.53 13.282 87.185 1.771A6.104 6.104 0 0 1 91.5 0h.036a6.114 6.114 0 0 1 4.335 1.827 14.372 14.372 0 0 1 2.415 16.891l-.005.005a14.107 14.107 0 0 1-2.216 3.035c-.097.113-.21.226-.322.338a14.245 14.245 0 0 1-10.067 4.136h-.093a14.253 14.253 0 0 1-10.107-4.264 6.142 6.142 0 0 1 .056-8.686zm.676 7.97a13.232 13.232 0 0 0 9.382 3.956h.087A13.306 13.306 0 0 0 95.138 2.55a5.122 5.122 0 0 0-7.237-.046L76.247 14.009a5.129 5.129 0 0 0-.04 7.243z" fill="#3F3D56"/><path d="m36.55 54.664 12.847-12.69a4.466 4.466 0 0 1 6.31.038 11.26 11.26 0 1 1-16.022 15.826l-3.135-3.174zM74.784 16.898 87.63 4.208a4.466 4.466 0 0 1 6.31.039A11.261 11.261 0 0 1 81.555 22.54a11.26 11.26 0 0 1-3.637-2.469l-3.135-3.174z" fill="#69C5D7"/><path d="m50.668 62.568.307.808a189.894 189.894 0 0 0 4.197-1.648c23.993-9.791 35.447-21.251 43.108-43.005l.005-.005c.364-1.023.717-2.071 1.06-3.143l-.809-.26a13.077 13.077 0 0 1-1.177 2.958 105.17 105.17 0 0 1-1.295 3.486c-7.2 18.36-17.82 28.852-38.18 37.712-1.023.445-2.073.887-3.147 1.326a13.35 13.35 0 0 1-4.07 1.77z" fill="#3F3D56"/><path d="m87.398 25.3.72.729-26.582 26.256-.72-.728L87.398 25.3z" fill="#3F3D56"/></svg>