<svg width="52" height="350" viewBox="0 0 52 350" fill="none" xmlns="http://www.w3.org/2000/svg">
<path d="M33.417 227.082C32.3725 226.7 32.2636 225.657 33.1736 224.751C34.0837 223.845 35.6681 223.421 36.7126 223.802C37.757 224.184 37.8659 225.228 36.9559 226.134C36.0459 227.039 34.4614 227.464 33.417 227.082Z" fill="#E6E6E6"/>
<path d="M25.6763 290.898C24.6319 290.516 24.523 289.472 25.433 288.567C26.3431 287.661 27.9275 287.236 28.9719 287.618C30.0164 288 30.1253 289.044 29.2153 289.95C28.3052 290.855 26.7208 291.28 25.6763 290.898Z" fill="#3F3D56"/>
<path d="M17.9356 280.003C16.8912 279.621 16.7822 278.577 17.6923 277.671C18.6023 276.766 20.1867 276.341 21.2312 276.723C22.2756 277.105 22.3846 278.149 21.4745 279.054C20.5645 279.96 18.9801 280.385 17.9356 280.003Z" fill="#6AC5D7"/>
<path d="M42.939 268.201C41.8945 267.819 41.7856 266.775 42.6956 265.87C43.6057 264.964 45.1901 264.539 46.2345 264.921C47.279 265.303 47.3879 266.347 46.4779 267.253C45.5678 268.158 43.9834 268.583 42.939 268.201Z" fill="#6AC5D7"/>
<path d="M33.1298 254.667C32.2683 254.245 31.9643 253.61 32.4508 253.249C32.9373 252.887 34.03 252.936 34.8915 253.358C35.753 253.78 36.057 254.415 35.5705 254.776C35.0841 255.138 33.9913 255.089 33.1298 254.667Z" fill="#E6E6E6"/>
<path d="M25.2098 248.346C24.3483 247.924 24.0443 247.289 24.5308 246.928C25.0172 246.566 26.11 246.615 26.9714 247.037C27.8329 247.459 28.137 248.094 27.6505 248.455C27.164 248.817 26.0713 248.768 25.2098 248.346Z" fill="#3F3D56"/>
<path d="M34.1664 297.353C33.1408 297.609 32.0707 297.467 31.7761 297.036C31.4815 296.606 32.0742 296.05 33.0998 295.795C34.1254 295.539 35.1956 295.681 35.4901 296.111C35.7847 296.542 35.192 297.098 34.1664 297.353Z" fill="#E6E6E6"/>
<path d="M14.3151 270.329C13.726 270.896 12.7182 271.155 12.064 270.908C11.4099 270.661 11.3572 270.001 11.9463 269.433C12.5354 268.866 13.5432 268.607 14.1973 268.854C14.8514 269.101 14.9041 269.761 14.3151 270.329Z" fill="#3F3D56"/>
<path d="M28.2566 270.664C27.2121 270.282 27.1032 269.238 28.0132 268.333C28.9232 267.427 30.5077 267.002 31.5521 267.384C32.5965 267.766 32.7055 268.81 31.7955 269.716C30.8854 270.621 29.301 271.046 28.2566 270.664Z" fill="#E6E6E6"/>
<path d="M46.8133 258.025C45.7689 257.643 45.6599 256.599 46.57 255.693C47.48 254.788 49.0645 254.363 50.1089 254.745C51.1533 255.127 51.2623 256.17 50.3522 257.076C49.4422 257.982 47.8577 258.407 46.8133 258.025Z" fill="#3F3D56"/>
<path d="M40.3835 240.707C39.339 240.325 39.2301 239.281 40.1401 238.376C41.0502 237.47 42.6346 237.046 43.679 237.427C44.7234 237.809 44.8324 238.853 43.9224 239.759C43.0123 240.664 41.4279 241.089 40.3835 240.707Z" fill="#6AC5D7"/>
<path d="M46.0273 246.904C46.1542 246.239 46.8786 245.743 47.6455 245.797C48.4123 245.85 48.9311 246.432 48.8042 247.097C48.6773 247.762 47.9528 248.258 47.186 248.205C46.4191 248.151 45.9004 247.569 46.0273 246.904Z" fill="#3F3D56"/>
<path d="M39.3614 279.589C38.4999 279.167 38.1959 278.532 38.6823 278.17C39.1688 277.809 40.2615 277.858 41.123 278.28C41.9845 278.701 42.2885 279.337 41.8021 279.698C41.3156 280.06 40.2229 280.011 39.3614 279.589Z" fill="#E6E6E6"/>
<path d="M22.3811 261.253C21.5196 260.831 21.2156 260.196 21.7021 259.834C22.1885 259.473 23.2812 259.522 24.1427 259.943C25.0042 260.365 25.3082 261 24.8218 261.362C24.3353 261.723 23.2426 261.674 22.3811 261.253Z" fill="#69C5D7"/>
<path d="M38.1666 288.83C38.0326 288.166 38.5452 287.581 39.3114 287.525C40.0777 287.469 40.8074 287.962 40.9414 288.626C41.0753 289.291 40.5627 289.875 39.7965 289.931C39.0302 289.988 38.3005 289.494 38.1666 288.83Z" fill="#3F3D56"/>
<path d="M24.1743 231.854C24.4432 231.135 26.0496 230.742 27.7622 230.975C29.4747 231.208 30.645 231.98 30.376 232.698C30.1071 233.417 28.5007 233.811 26.7882 233.577C25.0756 233.344 23.9053 232.573 24.1743 231.854Z" fill="#3F3D56"/>
<path d="M45.6018 230.716C45.9916 230.089 46.8934 229.714 47.6161 229.878C48.3388 230.041 48.6086 230.682 48.2188 231.308C47.8291 231.935 46.9272 232.311 46.2045 232.147C45.4818 231.983 45.212 231.343 45.6018 230.716Z" fill="#3F3D56"/>
<path d="M7.28828 211.955C7.92577 211.408 8.84648 211.135 9.34474 211.345C9.84299 211.556 9.73012 212.172 9.09263 212.719C8.45514 213.267 7.53444 213.54 7.03618 213.329C6.53793 213.118 6.65079 212.503 7.28828 211.955Z" fill="#E6E6E6"/>
<path d="M18.2351 216.488C19.2683 216.881 19.3471 217.926 18.411 218.822C17.4748 219.718 15.8784 220.126 14.8451 219.733C13.8119 219.34 13.7332 218.295 14.6693 217.399C15.6054 216.503 17.2019 216.095 18.2351 216.488Z" fill="#E6E6E6"/>
<path d="M9.8754 174.296C10.9086 174.689 10.9874 175.733 10.0513 176.629C9.11516 177.525 7.51869 177.933 6.48546 177.54C5.45222 177.148 5.37349 176.103 6.3096 175.207C7.24571 174.311 8.84217 173.903 9.8754 174.296Z" fill="#6AC5D7"/>
<path d="M31.0506 195.185C32.0838 195.578 32.1625 196.623 31.2264 197.519C30.2903 198.415 28.6939 198.822 27.6606 198.43C26.6274 198.037 26.5487 196.992 27.4848 196.096C28.4209 195.2 30.0173 194.792 31.0506 195.185Z" fill="#6AC5D7"/>
<path d="M28.3473 186.111C29.1965 186.542 29.4821 187.18 28.9853 187.536C28.4884 187.893 27.3973 187.832 26.5481 187.401C25.6989 186.971 25.4133 186.332 25.9102 185.976C26.407 185.62 27.4982 185.68 28.3473 186.111Z" fill="#E6E6E6"/>
<path d="M13.8834 182.192C14.4888 181.631 15.504 181.382 16.1508 181.636C16.7977 181.89 16.8313 182.551 16.2259 183.112C15.6205 183.673 14.6053 183.921 13.9584 183.667C13.3116 183.413 13.278 182.753 13.8834 182.192Z" fill="#3F3D56"/>
<path d="M8.16727 187.555C9.2005 187.947 9.27923 188.992 8.34313 189.888C7.40703 190.784 5.81057 191.192 4.77734 190.799C3.7441 190.406 3.66536 189.362 4.60147 188.466C5.53757 187.57 7.13403 187.162 8.16727 187.555Z" fill="#E6E6E6"/>
<path d="M6.62536 205.076C7.65859 205.469 7.73729 206.514 6.80117 207.41C5.86506 208.306 4.2686 208.714 3.23538 208.321C2.20215 207.928 2.12343 206.883 3.05955 205.987C3.99567 205.091 5.59213 204.683 6.62536 205.076Z" fill="#3F3D56"/>
<path d="M41.9404 212.808C42.9736 213.2 43.0523 214.245 42.1162 215.141C41.1801 216.037 39.5837 216.445 38.5505 216.052C37.5172 215.659 37.4385 214.614 38.3746 213.719C39.3107 212.823 40.9072 212.415 41.9404 212.808Z" fill="#6AC5D7"/>
<path d="M18.744 206.735C19.8075 206.926 20.5289 207.366 20.3553 207.718C20.1818 208.07 19.1789 208.2 18.1154 208.01C17.0519 207.819 16.3304 207.379 16.504 207.027C16.6776 206.675 17.6804 206.544 18.744 206.735Z" fill="#E6E6E6"/>
<path d="M32.8785 209.025C32.7324 209.689 31.9936 210.177 31.2285 210.116C30.4633 210.054 29.9615 209.467 30.1076 208.803C30.2537 208.14 30.9924 207.652 31.7576 207.713C32.5227 207.774 33.0246 208.362 32.8785 209.025Z" fill="#3F3D56"/>
<path d="M26.083 176.269C26.9322 176.7 27.2178 177.338 26.7209 177.694C26.2241 178.051 25.133 177.99 24.2838 177.559C23.4347 177.129 23.149 176.49 23.6459 176.134C24.1427 175.778 25.2339 175.838 26.083 176.269Z" fill="#E6E6E6"/>
<path d="M11.9071 194.608C12.7563 195.038 13.0419 195.677 12.545 196.033C12.0482 196.389 10.9571 196.329 10.1079 195.898C9.25875 195.467 8.97314 194.829 9.46998 194.473C9.96683 194.116 11.058 194.177 11.9071 194.608Z" fill="#69C5D7"/>
<path d="M18.1525 169.306C18.2672 169.972 17.7378 170.551 16.9701 170.599C16.2023 170.647 15.4869 170.146 15.3722 169.48C15.2575 168.815 15.7869 168.236 16.5547 168.188C17.3224 168.14 18.0378 168.64 18.1525 169.306Z" fill="#3F3D56"/>
<path d="M12.423 347.424C13.0605 346.876 13.9812 346.603 14.4795 346.814C14.9778 347.025 14.8649 347.64 14.2274 348.188C13.5899 348.736 12.6692 349.009 12.1709 348.798C11.6727 348.587 11.7856 347.972 12.423 347.424Z" fill="#E6E6E6"/>
<path d="M15.6548 337.894C16.6881 338.287 16.7668 339.332 15.8307 340.228C14.8946 341.124 13.2981 341.532 12.2649 341.139C11.2316 340.746 11.1529 339.701 12.089 338.805C13.0251 337.909 14.6216 337.501 15.6548 337.894Z" fill="#E6E6E6"/>
<path d="M7.2952 295.702C8.32844 296.095 8.40718 297.139 7.47107 298.035C6.53496 298.931 4.93849 299.339 3.90526 298.946C2.87202 298.554 2.79329 297.509 3.7294 296.613C4.66551 295.717 6.26197 295.309 7.2952 295.702Z" fill="#6AC5D7"/>
<path d="M28.4704 316.591C29.5036 316.984 29.5823 318.029 28.6462 318.925C27.7101 319.821 26.1137 320.228 25.0804 319.836C24.0472 319.443 23.9685 318.398 24.9046 317.502C25.8407 316.606 27.4371 316.198 28.4704 316.591Z" fill="#6AC5D7"/>
<path d="M25.7671 307.517C26.6163 307.948 26.9019 308.586 26.4051 308.942C25.9082 309.299 24.8171 309.238 23.9679 308.807C23.1187 308.377 22.8331 307.738 23.33 307.382C23.8268 307.026 24.918 307.086 25.7671 307.517Z" fill="#E6E6E6"/>
<path d="M11.3031 303.598C11.9085 303.037 12.9237 302.788 13.5706 303.042C14.2174 303.296 14.251 303.957 13.6456 304.518C13.0402 305.079 12.025 305.327 11.3782 305.073C10.7313 304.819 10.6977 304.159 11.3031 303.598Z" fill="#3F3D56"/>
<path d="M5.58701 308.961C6.62024 309.353 6.69897 310.398 5.76287 311.294C4.82677 312.19 3.23031 312.598 2.19708 312.205C1.16384 311.812 1.0851 310.768 2.0212 309.872C2.95731 308.976 4.55377 308.568 5.58701 308.961Z" fill="#E6E6E6"/>
<path d="M10.9307 323.433C11.9639 323.826 12.0426 324.87 11.1065 325.766C10.1704 326.662 8.5739 327.07 7.54067 326.677C6.50745 326.285 6.42873 325.24 7.36485 324.344C8.30096 323.448 9.89743 323.04 10.9307 323.433Z" fill="#3F3D56"/>
<path d="M26.4119 343.667C27.4452 344.06 27.5239 345.105 26.5878 346.001C25.6517 346.897 24.0553 347.305 23.022 346.912C21.9888 346.519 21.91 345.474 22.8461 344.578C23.7823 343.682 25.3787 343.274 26.4119 343.667Z" fill="#6AC5D7"/>
<path d="M16.1638 328.141C17.2273 328.331 17.9487 328.771 17.7751 329.123C17.6016 329.475 16.5987 329.606 15.5352 329.415C14.4717 329.224 13.7502 328.784 13.9238 328.432C14.0974 328.08 15.1002 327.95 16.1638 328.141Z" fill="#E6E6E6"/>
<path d="M22.8577 333.97C22.7116 334.634 21.9729 335.122 21.2077 335.06C20.4426 334.999 19.9407 334.412 20.0868 333.748C20.2329 333.085 20.9717 332.596 21.7368 332.658C22.502 332.719 23.0038 333.307 22.8577 333.97Z" fill="#3F3D56"/>
<path d="M23.5027 297.675C24.3519 298.106 24.6375 298.744 24.1407 299.1C23.6438 299.457 22.5527 299.396 21.7035 298.965C20.8544 298.535 20.5688 297.896 21.0656 297.54C21.5625 297.184 22.6536 297.244 23.5027 297.675Z" fill="#E6E6E6"/>
<path d="M9.32694 316.014C10.1761 316.444 10.4617 317.083 9.96483 317.439C9.46798 317.795 8.37686 317.735 7.52771 317.304C6.67855 316.873 6.39294 316.235 6.88978 315.879C7.38663 315.522 8.47779 315.583 9.32694 316.014Z" fill="#69C5D7"/>
<path d="M15.5723 290.712C15.687 291.378 15.1576 291.957 14.3899 292.005C13.6221 292.053 12.9067 291.552 12.792 290.886C12.6773 290.221 13.2067 289.642 13.9745 289.594C14.7422 289.546 15.4576 290.046 15.5723 290.712Z" fill="#3F3D56"/>
<path d="M18.9093 122.097C19.9537 122.479 20.0627 123.523 19.1526 124.429C18.2426 125.335 16.6582 125.759 15.6137 125.377C14.5693 124.995 14.4603 123.952 15.3704 123.046C16.2804 122.14 17.8649 121.716 18.9093 122.097Z" fill="#E6E6E6"/>
<path d="M26.65 58.2816C27.6944 58.6635 27.8033 59.7073 26.8933 60.6129C25.9832 61.5186 24.3988 61.9433 23.3544 61.5614C22.3099 61.1795 22.201 60.1357 23.111 59.23C24.0211 58.3243 25.6055 57.8997 26.65 58.2816Z" fill="#3F3D56"/>
<path d="M34.3906 69.1768C35.435 69.5587 35.544 70.6025 34.634 71.5082C33.7239 72.4139 32.1395 72.8385 31.095 72.4566C30.0506 72.0747 29.9417 71.0309 30.8517 70.1252C31.7617 69.2196 33.3462 68.7949 34.3906 69.1768Z" fill="#6AC5D7"/>
<path d="M9.38731 80.9786C10.4318 81.3605 10.5407 82.4043 9.63066 83.31C8.72061 84.2157 7.13619 84.6403 6.09175 84.2584C5.04731 83.8765 4.93836 82.8327 5.8484 81.927C6.75845 81.0213 8.34287 80.5967 9.38731 80.9786Z" fill="#6AC5D7"/>
<path d="M19.1964 94.5125C20.0579 94.9343 20.3619 95.5694 19.8754 95.9309C19.389 96.2924 18.2963 96.2435 17.4348 95.8217C16.5733 95.3998 16.2692 94.7648 16.7557 94.4033C17.2422 94.0418 18.3349 94.0906 19.1964 94.5125Z" fill="#E6E6E6"/>
<path d="M27.1164 100.834C27.9779 101.256 28.2819 101.891 27.7955 102.252C27.309 102.614 26.2163 102.565 25.3548 102.143C24.4933 101.721 24.1893 101.086 24.6757 100.725C25.1622 100.363 26.2549 100.412 27.1164 100.834Z" fill="#3F3D56"/>
<path d="M18.1598 51.8266C19.1854 51.5712 20.2556 51.713 20.5501 52.1434C20.8447 52.5738 20.2521 53.1298 19.2265 53.3852C18.2009 53.6406 17.1307 53.4988 16.8361 53.0684C16.5416 52.638 17.1342 52.082 18.1598 51.8266Z" fill="#E6E6E6"/>
<path d="M38.0112 78.8512C38.6003 78.284 39.6081 78.0245 40.2622 78.2717C40.9163 78.5189 40.969 79.1792 40.3799 79.7464C39.7908 80.3136 38.783 80.573 38.1289 80.3258C37.4748 80.0786 37.4221 79.4184 38.0112 78.8512Z" fill="#3F3D56"/>
<path d="M24.0697 78.5157C25.1141 78.8976 25.2231 79.9414 24.313 80.8471C23.403 81.7528 21.8186 82.1774 20.7741 81.7955C19.7297 81.4136 19.6207 80.3698 20.5308 79.4641C21.4408 78.5584 23.0252 78.1338 24.0697 78.5157Z" fill="#E6E6E6"/>
<path d="M5.51294 91.1551C6.55737 91.537 6.66629 92.5808 5.75624 93.4865C4.84619 94.3922 3.26177 94.8168 2.21734 94.4349C1.17291 94.053 1.06397 93.0092 1.97403 92.1035C2.88408 91.1978 4.4685 90.7732 5.51294 91.1551Z" fill="#3F3D56"/>
<path d="M11.9428 108.473C12.9872 108.854 13.0962 109.898 12.1861 110.804C11.2761 111.71 9.69167 112.134 8.64724 111.752C7.6028 111.37 7.49384 110.327 8.40388 109.421C9.31391 108.515 10.8983 108.091 11.9428 108.473Z" fill="#6AC5D7"/>
<path d="M6.29897 102.275C6.17208 102.94 5.44758 103.436 4.68076 103.383C3.91394 103.33 3.39518 102.748 3.52207 102.083C3.64896 101.418 4.37346 100.922 5.14028 100.975C5.9071 101.028 6.42587 101.611 6.29897 102.275Z" fill="#3F3D56"/>
<path d="M12.9649 69.5909C13.8264 70.0127 14.1304 70.6477 13.644 71.0092C13.1575 71.3708 12.0648 71.3219 11.2033 70.9C10.3418 70.4782 10.0378 69.8432 10.5242 69.4817C11.0107 69.1201 12.1034 69.169 12.9649 69.5909Z" fill="#E6E6E6"/>
<path d="M29.9452 87.927C30.8066 88.3489 31.1106 88.9839 30.6242 89.3454C30.1377 89.7069 29.045 89.658 28.1835 89.2362C27.322 88.8144 27.018 88.1793 27.5045 87.8178C27.9909 87.4563 29.0837 87.5052 29.9452 87.927Z" fill="#69C5D7"/>
<path d="M14.1597 60.3496C14.2936 61.0141 13.781 61.5983 13.0148 61.6545C12.2485 61.7107 11.5188 61.2176 11.3849 60.5532C11.2509 59.8887 11.7635 59.3045 12.5297 59.2483C13.296 59.1921 14.0257 59.6852 14.1597 60.3496Z" fill="#3F3D56"/>
<path d="M28.1519 117.326C27.883 118.044 26.2766 118.438 24.5641 118.205C22.8515 117.972 21.6812 117.2 21.9502 116.481C22.2192 115.763 23.8255 115.369 25.5381 115.602C27.2506 115.835 28.4209 116.607 28.1519 117.326Z" fill="#3F3D56"/>
<path d="M6.72451 118.464C6.33471 119.09 5.43289 119.466 4.71021 119.302C3.98753 119.139 3.71766 118.498 4.10745 117.871C4.49724 117.245 5.39909 116.869 6.12177 117.033C6.84445 117.196 7.1143 117.837 6.72451 118.464Z" fill="#3F3D56"/>
<path d="M45.038 137.224C44.4005 137.772 43.4798 138.045 42.9816 137.834C42.4833 137.623 42.5962 137.008 43.2337 136.46C43.8712 135.912 44.7919 135.639 45.2901 135.85C45.7884 136.061 45.6755 136.676 45.038 137.224Z" fill="#E6E6E6"/>
<path d="M34.0912 132.692C33.058 132.299 32.9792 131.254 33.9153 130.358C34.8514 129.462 36.4479 129.054 37.4812 129.447C38.5144 129.84 38.5931 130.885 37.657 131.781C36.7209 132.676 35.1244 133.084 34.0912 132.692Z" fill="#E6E6E6"/>
<path d="M42.4508 174.884C41.4176 174.491 41.3389 173.446 42.275 172.55C43.2111 171.654 44.8075 171.246 45.8408 171.639C46.874 172.032 46.9527 173.077 46.0166 173.973C45.0805 174.869 43.4841 175.277 42.4508 174.884Z" fill="#6AC5D7"/>
<path d="M21.2757 153.995C20.2424 153.602 20.1637 152.557 21.0998 151.661C22.0359 150.765 23.6324 150.357 24.6656 150.75C25.6988 151.143 25.7776 152.188 24.8415 153.084C23.9054 153.98 22.3089 154.388 21.2757 153.995Z" fill="#6AC5D7"/>
<path d="M23.9789 163.068C23.1297 162.638 22.8441 161.999 23.341 161.643C23.8378 161.287 24.929 161.347 25.7781 161.778C26.6273 162.209 26.9129 162.847 26.4161 163.203C25.9192 163.56 24.8281 163.499 23.9789 163.068Z" fill="#E6E6E6"/>
<path d="M38.4428 166.988C37.8374 167.549 36.8223 167.798 36.1754 167.544C35.5285 167.29 35.4949 166.629 36.1003 166.068C36.7058 165.507 37.7209 165.258 38.3678 165.512C39.0147 165.766 39.0482 166.427 38.4428 166.988Z" fill="#3F3D56"/>
<path d="M44.159 161.625C43.1258 161.232 43.0471 160.187 43.9832 159.292C44.9193 158.396 46.5157 157.988 47.549 158.381C48.5822 158.773 48.6609 159.818 47.7248 160.714C46.7887 161.61 45.1923 162.018 44.159 161.625Z" fill="#E6E6E6"/>
<path d="M45.7009 144.103C44.6677 143.711 44.589 142.666 45.5251 141.77C46.4612 140.874 48.0577 140.466 49.0909 140.859C50.1241 141.252 50.2029 142.296 49.2667 143.192C48.3306 144.088 46.7342 144.496 45.7009 144.103Z" fill="#3F3D56"/>
<path d="M10.3858 136.372C9.35261 135.979 9.27388 134.935 10.21 134.039C11.1461 133.143 12.7425 132.735 13.7758 133.128C14.809 133.52 14.8877 134.565 13.9516 135.461C13.0155 136.357 11.4191 136.765 10.3858 136.372Z" fill="#6AC5D7"/>
<path d="M33.5823 142.445C32.5188 142.254 31.7973 141.814 31.9709 141.462C32.1445 141.11 33.1473 140.979 34.2109 141.17C35.2744 141.361 35.9958 141.801 35.8222 142.153C35.6487 142.505 34.6458 142.636 33.5823 142.445Z" fill="#E6E6E6"/>
<path d="M19.4478 140.154C19.5939 139.491 20.3326 139.003 21.0978 139.064C21.8629 139.125 22.3648 139.713 22.2187 140.376C22.0725 141.04 21.3338 141.528 20.5687 141.467C19.8035 141.406 19.3016 140.818 19.4478 140.154Z" fill="#3F3D56"/>
<path d="M26.2432 172.911C25.3941 172.48 25.1085 171.842 25.6053 171.485C26.1021 171.129 27.1933 171.189 28.0424 171.62C28.8916 172.051 29.1772 172.689 28.6804 173.046C28.1835 173.402 27.0924 173.342 26.2432 172.911Z" fill="#E6E6E6"/>
<path d="M40.4191 154.572C39.5699 154.141 39.2844 153.503 39.7812 153.147C40.278 152.79 41.3692 152.851 42.2183 153.282C43.0675 153.713 43.3531 154.351 42.8562 154.707C42.3594 155.063 41.2682 155.003 40.4191 154.572Z" fill="#69C5D7"/>
<path d="M34.1737 179.874C34.059 179.208 34.5884 178.629 35.3562 178.581C36.1239 178.533 36.8393 179.034 36.954 179.699C37.0687 180.365 36.5393 180.944 35.7715 180.992C35.0038 181.04 34.2884 180.539 34.1737 179.874Z" fill="#3F3D56"/>
<path d="M39.9032 1.756C39.2657 2.30384 38.345 2.57692 37.8467 2.36594C37.3485 2.15496 37.4613 1.53981 38.0988 0.991962C38.7363 0.444117 39.657 0.171034 40.1553 0.382015C40.6535 0.592997 40.5407 1.20815 39.9032 1.756Z" fill="#E6E6E6"/>
<path d="M36.6714 11.2855C35.6382 10.8927 35.5594 9.8479 36.4955 8.95193C37.4316 8.05596 39.0281 7.64807 40.0614 8.04091C41.0946 8.43374 41.1733 9.47853 40.2372 10.3745C39.3011 11.2705 37.7046 11.6783 36.6714 11.2855Z" fill="#E6E6E6"/>
<path d="M45.0311 53.4779C43.9979 53.085 43.9191 52.0403 44.8552 51.1443C45.7913 50.2483 47.3878 49.8405 48.421 50.2333C49.4543 50.6261 49.533 51.6709 48.5969 52.5669C47.6608 53.4628 46.0643 53.8707 45.0311 53.4779Z" fill="#6AC5D7"/>
<path d="M23.8559 32.5892C22.8226 32.1964 22.7439 31.1516 23.68 30.2556C24.6161 29.3597 26.2126 28.9518 27.2458 29.3446C28.279 29.7375 28.3578 30.7822 27.4217 31.6782C26.4856 32.5742 24.8891 32.982 23.8559 32.5892Z" fill="#6AC5D7"/>
<path d="M26.5591 41.6627C25.7099 41.2318 25.4243 40.5937 25.9212 40.2373C26.418 39.881 27.5092 39.9414 28.3583 40.3722C29.2075 40.8031 29.4931 41.4412 28.9963 41.7976C28.4994 42.1539 27.4083 42.0935 26.5591 41.6627Z" fill="#E6E6E6"/>
<path d="M41.0231 45.5819C40.4177 46.1428 39.4025 46.3916 38.7557 46.1376C38.1088 45.8835 38.0752 45.2228 38.6806 44.6619C39.286 44.101 40.3012 43.8522 40.9481 44.1062C41.5949 44.3603 41.6285 45.021 41.0231 45.5819Z" fill="#3F3D56"/>
<path d="M46.7392 40.2193C45.706 39.8265 45.6273 38.7817 46.5634 37.8858C47.4995 36.9898 49.0959 36.5819 50.1292 36.9747C51.1624 37.3676 51.2411 38.4124 50.305 39.3083C49.3689 40.2043 47.7725 40.6122 46.7392 40.2193Z" fill="#E6E6E6"/>
<path d="M41.3956 25.747C40.3623 25.3541 40.2836 24.3093 41.2198 23.4134C42.1559 22.5174 43.7523 22.1095 44.7856 22.5023C45.8188 22.8952 45.8975 23.9399 44.9614 24.8359C44.0253 25.7319 42.4288 26.1398 41.3956 25.747Z" fill="#3F3D56"/>
<path d="M25.9143 5.51252C24.8811 5.11969 24.8023 4.07492 25.7384 3.17896C26.6745 2.283 28.271 1.87512 29.3042 2.26796C30.3374 2.66079 30.4162 3.70557 29.4801 4.60154C28.544 5.4975 26.9475 5.90536 25.9143 5.51252Z" fill="#6AC5D7"/>
<path d="M36.1625 21.0387C35.099 20.8478 34.3775 20.4078 34.5511 20.0558C34.7247 19.7038 35.7275 19.5732 36.7911 19.7641C37.8546 19.9549 38.576 20.395 38.4024 20.7469C38.2289 21.0989 37.226 21.2295 36.1625 21.0387Z" fill="#E6E6E6"/>
<path d="M29.4685 15.2099C29.6146 14.5464 30.3534 14.0582 31.1185 14.1195C31.8837 14.1808 32.3855 14.7684 32.2394 15.4319C32.0933 16.0954 31.3546 16.5836 30.5894 16.5223C29.8242 16.461 29.3224 15.8734 29.4685 15.2099Z" fill="#3F3D56"/>
<path d="M28.8235 51.5047C27.9743 51.0738 27.6887 50.4357 28.1856 50.0794C28.6824 49.723 29.7735 49.7834 30.6227 50.2143C31.4718 50.6451 31.7575 51.2833 31.2606 51.6396C30.7638 51.9959 29.6726 51.9355 28.8235 51.5047Z" fill="#E6E6E6"/>
<path d="M42.9993 33.1661C42.1501 32.7353 41.8646 32.0971 42.3614 31.7408C42.8582 31.3844 43.9494 31.4448 44.7985 31.8757C45.6477 32.3065 45.9333 32.9446 45.4364 33.301C44.9396 33.6573 43.8484 33.5969 42.9993 33.1661Z" fill="#69C5D7"/>
<path d="M36.7539 58.4676C36.6392 57.8019 37.1686 57.2232 37.9364 57.175C38.7041 57.1269 39.4195 57.6276 39.5342 58.2933C39.6489 58.9591 39.1195 59.5378 38.3517 59.5859C37.584 59.6341 36.8686 59.1334 36.7539 58.4676Z" fill="#3F3D56"/>
</svg>
