<svg width="52" height="350" fill="none" xmlns="http://www.w3.org/2000/svg"><path d="M33.417 227.082c-1.044-.382-1.153-1.425-.243-2.331.91-.906 2.494-1.33 3.539-.949 1.044.382 1.153 1.426.243 2.332-.91.905-2.495 1.33-3.539.948z" fill="#E6E6E6"/><path d="M25.676 290.898c-1.044-.382-1.153-1.426-.243-2.331.91-.906 2.494-1.331 3.539-.949 1.044.382 1.153 1.426.243 2.332-.91.905-2.494 1.33-3.539.948z" fill="#3F3D56"/><path d="M17.936 280.003c-1.045-.382-1.154-1.426-.244-2.332.91-.905 2.495-1.33 3.54-.948 1.044.382 1.153 1.426.242 2.331-.91.906-2.494 1.331-3.538.949zM42.939 268.201c-1.044-.382-1.153-1.426-.243-2.331.91-.906 2.494-1.331 3.538-.949 1.045.382 1.154 1.426.244 2.332-.91.905-2.495 1.33-3.539.948z" fill="#6AC5D7"/><path d="M33.13 254.667c-.862-.422-1.166-1.057-.68-1.418.487-.362 1.58-.313 2.441.109.862.422 1.166 1.057.68 1.418-.487.362-1.58.313-2.441-.109z" fill="#E6E6E6"/><path d="M25.21 248.346c-.862-.422-1.166-1.057-.68-1.418.487-.362 1.58-.313 2.441.109.862.422 1.166 1.057.68 1.418-.487.362-1.58.313-2.441-.109z" fill="#3F3D56"/><path d="M34.166 297.353c-1.025.256-2.095.114-2.39-.317-.294-.43.298-.986 1.324-1.241 1.025-.256 2.096-.114 2.39.316.295.431-.298.987-1.324 1.242z" fill="#E6E6E6"/><path d="M14.315 270.329c-.589.567-1.597.826-2.251.579-.654-.247-.707-.907-.118-1.475.59-.567 1.597-.826 2.251-.579.654.247.707.907.118 1.475z" fill="#3F3D56"/><path d="M28.257 270.664c-1.045-.382-1.154-1.426-.244-2.331.91-.906 2.495-1.331 3.54-.949 1.043.382 1.152 1.426.242 2.332-.91.905-2.494 1.33-3.538.948z" fill="#E6E6E6"/><path d="M46.813 258.025c-1.044-.382-1.153-1.426-.243-2.332.91-.905 2.495-1.33 3.539-.948 1.044.382 1.153 1.425.243 2.331-.91.906-2.494 1.331-3.539.949z" fill="#3F3D56"/><path d="M40.383 240.707c-1.044-.382-1.153-1.426-.243-2.331.91-.906 2.495-1.33 3.539-.949 1.044.382 1.153 1.426.243 2.332-.91.905-2.494 1.33-3.538.948z" fill="#6AC5D7"/><path d="M46.027 246.904c.127-.665.852-1.161 1.618-1.107.767.053 1.286.635 1.16 1.3-.128.665-.852 1.161-1.619 1.108-.767-.054-1.286-.636-1.159-1.301z" fill="#3F3D56"/><path d="M39.361 279.589c-.861-.422-1.165-1.057-.679-1.419.487-.361 1.58-.312 2.441.11.861.421 1.166 1.057.68 1.418-.487.362-1.58.313-2.442-.109z" fill="#E6E6E6"/><path d="M22.381 261.253c-.861-.422-1.165-1.057-.679-1.419.486-.361 1.58-.312 2.44.109.862.422 1.166 1.057.68 1.419-.487.361-1.58.312-2.44-.109z" fill="#69C5D7"/><path d="M38.167 288.83c-.134-.664.378-1.249 1.144-1.305.767-.056 1.496.437 1.63 1.101.134.665-.378 1.249-1.145 1.305-.766.057-1.495-.437-1.63-1.101zM24.174 231.854c.27-.719 1.876-1.112 3.588-.879 1.713.233 2.883 1.005 2.614 1.723-.269.719-1.875 1.113-3.588.879-1.712-.233-2.883-1.004-2.614-1.723zM45.602 230.716c.39-.627 1.291-1.002 2.014-.838.723.163.993.804.603 1.43-.39.627-1.292 1.003-2.014.839-.723-.164-.993-.804-.603-1.431z" fill="#3F3D56"/><path d="M7.288 211.955c.638-.547 1.558-.82 2.057-.61.498.211.385.827-.252 1.374-.638.548-1.559.821-2.057.61-.498-.211-.385-.826.252-1.374zM18.235 216.488c1.033.393 1.112 1.438.176 2.334-.936.896-2.533 1.304-3.566.911s-1.112-1.438-.176-2.334c.936-.896 2.533-1.304 3.566-.911z" fill="#E6E6E6"/><path d="M9.875 174.296c1.034.393 1.112 1.437.176 2.333-.936.896-2.532 1.304-3.566.911-1.033-.392-1.112-1.437-.175-2.333.936-.896 2.532-1.304 3.565-.911zM31.05 195.185c1.034.393 1.113 1.438.176 2.334-.936.896-2.532 1.303-3.565.911-1.034-.393-1.112-1.438-.176-2.334.936-.896 2.532-1.304 3.566-.911z" fill="#6AC5D7"/><path d="M28.347 186.111c.85.431 1.135 1.069.638 1.425-.497.357-1.588.296-2.437-.135-.85-.43-1.135-1.069-.638-1.425.497-.356 1.588-.296 2.437.135z" fill="#E6E6E6"/><path d="M13.883 182.192c.606-.561 1.621-.81 2.268-.556.647.254.68.915.075 1.476-.605.561-1.62.809-2.268.555-.646-.254-.68-.914-.075-1.475z" fill="#3F3D56"/><path d="M8.167 187.555c1.034.392 1.112 1.437.176 2.333-.936.896-2.532 1.304-3.566.911-1.033-.393-1.112-1.437-.176-2.333.937-.896 2.533-1.304 3.566-.911z" fill="#E6E6E6"/><path d="M6.625 205.076c1.034.393 1.112 1.438.176 2.334-.936.896-2.532 1.304-3.566.911-1.033-.393-1.112-1.438-.175-2.334.936-.896 2.532-1.304 3.565-.911z" fill="#3F3D56"/><path d="M41.94 212.808c1.034.392 1.112 1.437.176 2.333-.936.896-2.532 1.304-3.566.911-1.033-.393-1.111-1.438-.175-2.333.936-.896 2.532-1.304 3.565-.911z" fill="#6AC5D7"/><path d="M18.744 206.735c1.064.191 1.785.631 1.611.983-.173.352-1.176.482-2.24.292-1.063-.191-1.785-.631-1.611-.983.174-.352 1.176-.483 2.24-.292z" fill="#E6E6E6"/><path d="M32.879 209.025c-.147.664-.885 1.152-1.65 1.091-.766-.062-1.267-.649-1.121-1.313.146-.663.884-1.151 1.65-1.09.765.061 1.267.649 1.12 1.312z" fill="#3F3D56"/><path d="M26.083 176.269c.85.431 1.135 1.069.638 1.425-.497.357-1.588.296-2.437-.135-.85-.43-1.135-1.069-.638-1.425.497-.356 1.588-.296 2.437.135z" fill="#E6E6E6"/><path d="M11.907 194.608c.85.43 1.135 1.069.638 1.425-.497.356-1.588.296-2.437-.135-.85-.431-1.135-1.069-.638-1.425.497-.357 1.588-.296 2.437.135z" fill="#69C5D7"/><path d="M18.152 169.306c.115.666-.414 1.245-1.182 1.293-.768.048-1.483-.453-1.598-1.119-.114-.665.415-1.244 1.183-1.292.767-.048 1.483.452 1.598 1.118z" fill="#3F3D56"/><path d="M12.423 347.424c.637-.548 1.558-.821 2.056-.61.499.211.386.826-.252 1.374-.637.548-1.558.821-2.056.61-.498-.211-.385-.826.252-1.374zM15.655 337.894c1.033.393 1.112 1.438.176 2.334-.936.896-2.533 1.304-3.566.911s-1.112-1.438-.176-2.334c.936-.896 2.533-1.304 3.566-.911z" fill="#E6E6E6"/><path d="M7.295 295.702c1.033.393 1.112 1.437.176 2.333-.936.896-2.533 1.304-3.566.911-1.033-.392-1.112-1.437-.176-2.333.937-.896 2.533-1.304 3.566-.911zM28.47 316.591c1.034.393 1.112 1.438.176 2.334-.936.896-2.532 1.303-3.566.911-1.033-.393-1.111-1.438-.175-2.334.936-.896 2.532-1.304 3.565-.911z" fill="#6AC5D7"/><path d="M25.767 307.517c.85.431 1.135 1.069.638 1.425-.497.357-1.588.296-2.437-.135-.85-.43-1.135-1.069-.638-1.425.497-.356 1.588-.296 2.437.135z" fill="#E6E6E6"/><path d="M11.303 303.598c.605-.561 1.62-.81 2.268-.556.646.254.68.915.075 1.476-.606.561-1.621.809-2.268.555-.647-.254-.68-.914-.075-1.475z" fill="#3F3D56"/><path d="M5.587 308.961c1.033.392 1.112 1.437.176 2.333-.936.896-2.533 1.304-3.566.911s-1.112-1.437-.176-2.333c.936-.896 2.533-1.304 3.566-.911z" fill="#E6E6E6"/><path d="M10.93 323.433c1.034.393 1.113 1.437.177 2.333-.937.896-2.533 1.304-3.566.911-1.034-.392-1.112-1.437-.176-2.333.936-.896 2.532-1.304 3.566-.911z" fill="#3F3D56"/><path d="M26.412 343.667c1.033.393 1.112 1.438.176 2.334-.936.896-2.533 1.304-3.566.911s-1.112-1.438-.176-2.334c.936-.896 2.533-1.304 3.566-.911z" fill="#6AC5D7"/><path d="M16.164 328.141c1.063.19 1.785.63 1.611.982-.173.352-1.176.483-2.24.292-1.063-.191-1.785-.631-1.611-.983.173-.352 1.176-.482 2.24-.291z" fill="#E6E6E6"/><path d="M22.858 333.97c-.146.664-.885 1.152-1.65 1.09-.765-.061-1.267-.648-1.121-1.312.146-.663.885-1.152 1.65-1.09.765.061 1.267.649 1.12 1.312z" fill="#3F3D56"/><path d="M23.503 297.675c.849.431 1.134 1.069.638 1.425-.497.357-1.588.296-2.438-.135-.849-.43-1.134-1.069-.637-1.425.497-.356 1.588-.296 2.437.135z" fill="#E6E6E6"/><path d="M9.327 316.014c.85.43 1.135 1.069.638 1.425-.497.356-1.588.296-2.437-.135-.85-.431-1.135-1.069-.638-1.425.497-.357 1.588-.296 2.437.135z" fill="#69C5D7"/><path d="M15.572 290.712c.115.666-.414 1.245-1.182 1.293-.768.048-1.483-.453-1.598-1.119-.115-.665.415-1.244 1.183-1.292.767-.048 1.483.452 1.597 1.118z" fill="#3F3D56"/><path d="M18.91 122.097c1.044.382 1.153 1.426.243 2.332-.91.906-2.495 1.33-3.54.948-1.044-.382-1.153-1.425-.243-2.331.91-.906 2.495-1.33 3.54-.949z" fill="#E6E6E6"/><path d="M26.65 58.282c1.044.382 1.153 1.425.243 2.33-.91.907-2.494 1.331-3.539.95-1.044-.383-1.153-1.426-.243-2.332.91-.906 2.494-1.33 3.539-.948z" fill="#3F3D56"/><path d="M34.39 69.177c1.045.382 1.154 1.425.244 2.331-.91.906-2.495 1.33-3.539.949-1.044-.382-1.153-1.426-.243-2.332.91-.905 2.494-1.33 3.539-.948zM9.387 80.979c1.045.382 1.154 1.425.244 2.331-.91.906-2.495 1.33-3.54.948-1.044-.382-1.153-1.425-.243-2.331.91-.906 2.495-1.33 3.54-.948z" fill="#6AC5D7"/><path d="M19.196 94.513c.862.421 1.166 1.056.68 1.418-.487.361-1.58.313-2.441-.11-.862-.421-1.166-1.056-.68-1.418.487-.361 1.58-.312 2.441.11z" fill="#E6E6E6"/><path d="M27.116 100.834c.862.422 1.166 1.057.68 1.418-.487.362-1.58.313-2.441-.109-.862-.422-1.166-1.057-.68-1.418.487-.362 1.58-.313 2.441.109z" fill="#3F3D56"/><path d="M18.16 51.827c1.025-.256 2.096-.114 2.39.316.295.43-.298.987-1.323 1.242-1.026.256-2.096.114-2.39-.317-.295-.43.297-.986 1.323-1.241z" fill="#E6E6E6"/><path d="M38.011 78.851c.59-.567 1.597-.826 2.251-.58.654.248.707.908.118 1.475-.59.568-1.597.827-2.251.58-.654-.247-.707-.908-.118-1.475z" fill="#3F3D56"/><path d="M24.07 78.516c1.044.382 1.153 1.425.243 2.331-.91.906-2.494 1.33-3.539.949-1.044-.382-1.153-1.426-.243-2.332.91-.906 2.494-1.33 3.539-.948z" fill="#E6E6E6"/><path d="M5.513 91.155c1.044.382 1.153 1.426.243 2.332-.91.905-2.494 1.33-3.539.948-1.044-.382-1.153-1.426-.243-2.332.91-.905 2.494-1.33 3.539-.948z" fill="#3F3D56"/><path d="M11.943 108.473c1.044.381 1.153 1.425.243 2.331-.91.906-2.494 1.33-3.539.948-1.044-.382-1.153-1.425-.243-2.331.91-.906 2.494-1.33 3.539-.948z" fill="#6AC5D7"/><path d="M6.299 102.275c-.127.665-.851 1.161-1.618 1.108-.767-.053-1.286-.635-1.159-1.3s.851-1.161 1.618-1.108c.767.053 1.286.636 1.159 1.3z" fill="#3F3D56"/><path d="M12.965 69.59c.861.423 1.165 1.058.679 1.42-.486.36-1.58.312-2.44-.11-.862-.422-1.166-1.057-.68-1.418.487-.362 1.58-.313 2.44.109z" fill="#E6E6E6"/><path d="M29.945 87.927c.862.422 1.166 1.057.68 1.418-.487.362-1.58.313-2.442-.109-.861-.422-1.165-1.057-.678-1.418.486-.362 1.579-.313 2.44.109z" fill="#69C5D7"/><path d="M14.16 60.35c.134.664-.379 1.248-1.145 1.304-.767.057-1.496-.436-1.63-1.1-.134-.665.379-1.25 1.145-1.306.766-.056 1.496.437 1.63 1.102zM28.152 117.326c-.269.718-1.875 1.112-3.588.879-1.712-.233-2.883-1.005-2.614-1.724.27-.718 1.876-1.112 3.588-.879 1.713.233 2.883 1.005 2.614 1.724zM6.725 118.464c-.39.626-1.292 1.002-2.015.838-.722-.163-.992-.804-.603-1.431.39-.626 1.292-1.002 2.015-.838.722.163.992.804.603 1.431z" fill="#3F3D56"/><path d="M45.038 137.224c-.637.548-1.558.821-2.056.61-.499-.211-.386-.826.252-1.374.637-.548 1.558-.821 2.056-.61.498.211.386.826-.252 1.374zM34.091 132.692c-1.033-.393-1.112-1.438-.176-2.334.936-.896 2.533-1.304 3.566-.911s1.112 1.438.176 2.334c-.936.895-2.533 1.303-3.566.911z" fill="#E6E6E6"/><path d="M42.45 174.884c-1.032-.393-1.111-1.438-.175-2.334.936-.896 2.532-1.304 3.566-.911 1.033.393 1.112 1.438.176 2.334-.937.896-2.533 1.304-3.566.911zM21.276 153.995c-1.034-.393-1.112-1.438-.176-2.334.936-.896 2.532-1.304 3.566-.911 1.033.393 1.112 1.438.175 2.334-.936.896-2.532 1.304-3.565.911z" fill="#6AC5D7"/><path d="M23.979 163.068c-.85-.43-1.135-1.069-.638-1.425.497-.356 1.588-.296 2.437.135.85.431 1.135 1.069.638 1.425-.497.357-1.588.296-2.437-.135z" fill="#E6E6E6"/><path d="M38.443 166.988c-.606.561-1.62.81-2.268.556-.646-.254-.68-.915-.075-1.476.606-.561 1.62-.81 2.268-.556.647.254.68.915.075 1.476z" fill="#3F3D56"/><path d="M44.159 161.625c-1.033-.393-1.112-1.438-.176-2.333.936-.896 2.533-1.304 3.566-.911 1.033.392 1.112 1.437.176 2.333-.936.896-2.533 1.304-3.566.911z" fill="#E6E6E6"/><path d="M45.7 144.103c-1.032-.392-1.111-1.437-.175-2.333.936-.896 2.533-1.304 3.566-.911s1.112 1.437.176 2.333c-.936.896-2.533 1.304-3.566.911z" fill="#3F3D56"/><path d="M10.386 136.372c-1.033-.393-1.112-1.437-.176-2.333.936-.896 2.532-1.304 3.566-.911 1.033.392 1.112 1.437.176 2.333-.937.896-2.533 1.304-3.566.911z" fill="#6AC5D7"/><path d="M33.582 142.445c-1.063-.191-1.785-.631-1.611-.983.174-.352 1.176-.483 2.24-.292 1.063.191 1.785.631 1.611.983-.173.352-1.176.483-2.24.292z" fill="#E6E6E6"/><path d="M19.448 140.154c.146-.663.885-1.151 1.65-1.09.765.061 1.267.649 1.12 1.312-.145.664-.884 1.152-1.65 1.091-.765-.061-1.266-.649-1.12-1.313z" fill="#3F3D56"/><path d="M26.243 172.911c-.849-.431-1.134-1.069-.638-1.426.497-.356 1.588-.296 2.437.135.85.431 1.135 1.069.638 1.426-.497.356-1.588.296-2.437-.135z" fill="#E6E6E6"/><path d="M40.42 154.572c-.85-.431-1.136-1.069-.639-1.425.497-.357 1.588-.296 2.437.135.85.431 1.135 1.069.638 1.425-.497.356-1.588.296-2.437-.135z" fill="#69C5D7"/><path d="M34.174 179.874c-.115-.666.414-1.245 1.182-1.293.768-.048 1.483.453 1.598 1.118.115.666-.415 1.245-1.182 1.293-.768.048-1.484-.453-1.598-1.118z" fill="#3F3D56"/><path d="M39.903 1.756c-.637.548-1.558.82-2.056.61-.498-.211-.386-.826.252-1.374.637-.548 1.558-.821 2.056-.61.498.211.386.826-.252 1.374zM36.671 11.286c-1.033-.393-1.112-1.438-.175-2.334.936-.896 2.532-1.304 3.565-.911 1.034.393 1.112 1.438.176 2.333-.936.896-2.532 1.304-3.566.912z" fill="#E6E6E6"/><path d="M45.031 53.478c-1.033-.393-1.112-1.438-.176-2.334.936-.896 2.533-1.303 3.566-.91 1.033.392 1.112 1.437.176 2.333-.936.896-2.533 1.304-3.566.91zM23.856 32.59c-1.033-.394-1.112-1.438-.176-2.334.936-.896 2.533-1.304 3.566-.911s1.112 1.437.176 2.333c-.936.896-2.533 1.304-3.566.911z" fill="#6AC5D7"/><path d="M26.56 41.663c-.85-.431-1.136-1.07-.639-1.426.497-.356 1.588-.296 2.437.135.85.431 1.135 1.07.638 1.426-.497.356-1.588.295-2.437-.135z" fill="#E6E6E6"/><path d="M41.023 45.582c-.605.56-1.62.81-2.267.556-.647-.255-.68-.915-.075-1.476.605-.561 1.62-.81 2.267-.556.647.254.68.915.075 1.476z" fill="#3F3D56"/><path d="M46.74 40.22c-1.034-.393-1.113-1.438-.177-2.334.936-.896 2.533-1.304 3.566-.911s1.112 1.437.176 2.333c-.936.896-2.532 1.304-3.566.911z" fill="#E6E6E6"/><path d="M41.396 25.747c-1.034-.393-1.112-1.438-.176-2.334.936-.896 2.532-1.303 3.566-.91 1.033.392 1.111 1.437.175 2.333-.936.896-2.532 1.304-3.565.911z" fill="#3F3D56"/><path d="M25.914 5.513c-1.033-.393-1.112-1.438-.176-2.334.936-.896 2.533-1.304 3.566-.911s1.112 1.438.176 2.334c-.936.895-2.532 1.303-3.566.91z" fill="#6AC5D7"/><path d="M36.163 21.039c-1.064-.191-1.785-.631-1.612-.983.174-.352 1.176-.483 2.24-.292 1.064.19 1.785.631 1.611.983-.173.352-1.176.483-2.24.292z" fill="#E6E6E6"/><path d="M29.468 15.21c.147-.664.885-1.152 1.65-1.09.766.06 1.268.648 1.121 1.312-.146.663-.884 1.152-1.65 1.09-.765-.061-1.267-.649-1.12-1.312z" fill="#3F3D56"/><path d="M28.823 51.505c-.849-.431-1.134-1.07-.637-1.426.496-.356 1.587-.296 2.437.135.849.431 1.134 1.07.638 1.426-.497.356-1.588.295-2.438-.135z" fill="#E6E6E6"/><path d="M43 33.166c-.85-.43-1.135-1.069-.639-1.425.497-.357 1.588-.296 2.438.135.849.43 1.134 1.069.637 1.425-.496.356-1.588.296-2.437-.135z" fill="#69C5D7"/><path d="M36.754 58.468c-.115-.666.415-1.245 1.182-1.293.768-.048 1.483.453 1.598 1.118.115.666-.414 1.245-1.182 1.293-.768.048-1.483-.453-1.598-1.118z" fill="#3F3D56"/></svg>