<svg width="827" height="44" viewBox="0 0 827 44" fill="none" xmlns="http://www.w3.org/2000/svg">
<path d="M97.3581 15.6731C97.6626 16.4466 98.4949 16.5273 99.217 15.8533C99.9392 15.1794 100.278 14.006 99.9733 13.2325C99.6688 12.4591 98.8365 12.3784 98.1143 13.0523C97.3921 13.7263 97.0535 14.8996 97.3581 15.6731Z" fill="#E6E6E6"/>
<path d="M46.4725 21.4055C46.777 22.179 47.6093 22.2597 48.3315 21.5857C49.0537 20.9118 49.3923 19.7384 49.0878 18.9649C48.7832 18.1915 47.9509 18.1108 47.2288 18.7847C46.5066 19.4587 46.168 20.6321 46.4725 21.4055Z" fill="#3F3D56"/>
<path d="M55.1603 27.1379C55.4648 27.9114 56.2971 27.9921 57.0193 27.3181C57.7415 26.6442 58.08 25.4708 57.7755 24.6974C57.471 23.9239 56.6387 23.8432 55.9165 24.5172C55.1943 25.1911 54.8558 26.3645 55.1603 27.1379Z" fill="#6AC5D7"/>
<path d="M64.5708 8.62133C64.8753 9.39481 65.7076 9.47549 66.4298 8.80155C67.1519 8.1276 67.4905 6.95424 67.186 6.18077C66.8815 5.4073 66.0492 5.32661 65.327 6.00055C64.6048 6.6745 64.2662 7.84786 64.5708 8.62133Z" fill="#6AC5D7"/>
<path d="M75.3623 15.8851C75.6987 16.5231 76.2051 16.7482 76.4933 16.388C76.7816 16.0277 76.7426 15.2185 76.4063 14.5805C76.0699 13.9425 75.5635 13.7173 75.2753 14.0776C74.987 14.4378 75.026 15.2471 75.3623 15.8851Z" fill="#E6E6E6"/>
<path d="M80.4029 21.7513C80.7392 22.3892 81.2456 22.6144 81.5339 22.2541C81.8221 21.8939 81.7831 21.0847 81.4468 20.4467C81.1104 19.8087 80.604 19.5836 80.3158 19.9438C80.0275 20.3041 80.0665 21.1133 80.4029 21.7513Z" fill="#3F3D56"/>
<path d="M41.3255 15.118C41.1218 15.8775 41.2349 16.6701 41.5781 16.8882C41.9213 17.1063 42.3646 16.6675 42.5682 15.9079C42.7719 15.1484 42.6588 14.3559 42.3156 14.1377C41.9724 13.9196 41.5291 14.3585 41.3255 15.118Z" fill="#E6E6E6"/>
<path d="M62.8745 29.8189C62.4222 30.2552 62.2153 31.0015 62.4124 31.4859C62.6096 31.9703 63.136 32.0094 63.5883 31.5731C64.0406 31.1369 64.2475 30.3905 64.0503 29.9061C63.8532 29.4217 63.3268 29.3827 62.8745 29.8189Z" fill="#3F3D56"/>
<path d="M62.607 19.4944C62.9115 20.2678 63.7438 20.3485 64.4659 19.6746C65.1881 19.0007 65.5267 17.8273 65.2222 17.0538C64.9177 16.2804 64.0854 16.1997 63.3632 16.8736C62.641 17.5475 62.3024 18.7209 62.607 19.4944Z" fill="#E6E6E6"/>
<path d="M72.6851 5.7522C72.9897 6.52567 73.822 6.60633 74.5441 5.93238C75.2663 5.25843 75.6049 4.08508 75.3004 3.31161C74.9959 2.53815 74.1636 2.45747 73.4414 3.13142C72.7192 3.80537 72.3806 4.97874 72.6851 5.7522Z" fill="#3F3D56"/>
<path d="M86.4938 10.5144C86.7983 11.2879 87.6306 11.3685 88.3528 10.6946C89.0749 10.0207 89.4135 8.84731 89.109 8.07384C88.8045 7.30037 87.9722 7.21968 87.25 7.89362C86.5278 8.56756 86.1893 9.74092 86.4938 10.5144Z" fill="#6AC5D7"/>
<path d="M81.5524 6.33407C82.0826 6.2401 82.478 5.70356 82.4356 5.13568C82.3931 4.56781 81.9288 4.18363 81.3986 4.2776C80.8684 4.37157 80.473 4.90811 80.5155 5.47599C80.5579 6.04386 81.0222 6.42804 81.5524 6.33407Z" fill="#3F3D56"/>
<path d="M55.4903 11.2703C55.8267 11.9083 56.333 12.1334 56.6213 11.7732C56.9095 11.4129 56.8706 10.6037 56.5342 9.96572C56.1978 9.32774 55.6915 9.10259 55.4032 9.46283C55.1149 9.82308 55.1539 10.6323 55.4903 11.2703Z" fill="#E6E6E6"/>
<path d="M70.1113 23.8455C70.4476 24.4835 70.954 24.7086 71.2423 24.3484C71.5305 23.9881 71.4916 23.1789 71.1552 22.5409C70.8188 21.9029 70.3125 21.6778 70.0242 22.038C69.7359 22.3983 69.7749 23.2075 70.1113 23.8455Z" fill="#69C5D7"/>
<path d="M48.1215 12.1554C48.6514 12.2546 49.1172 11.875 49.162 11.3076C49.2068 10.7401 48.8137 10.1997 48.2838 10.1005C47.754 10.0013 47.2882 10.3809 47.2434 10.9484C47.1986 11.5158 47.5917 12.0562 48.1215 12.1554Z" fill="#3F3D56"/>
<path d="M93.5533 22.5178C94.1263 22.3186 94.4401 21.129 94.2542 19.8607C94.0682 18.5925 93.4529 17.7258 92.8798 17.925C92.3068 18.1242 91.993 19.3138 92.179 20.582C92.3649 21.8503 92.9802 22.7169 93.5533 22.5178Z" fill="#3F3D56"/>
<path d="M94.4605 6.64881C94.9601 6.36015 95.2595 5.6923 95.1291 5.15711C94.9986 4.62192 94.4878 4.42206 93.9881 4.71072C93.4884 4.99939 93.1891 5.66726 93.3195 6.20245C93.4499 6.73764 93.9608 6.93748 94.4605 6.64881Z" fill="#3F3D56"/>
<path d="M109.42 35.0229C109.857 34.5508 110.074 33.869 109.906 33.5C109.738 33.131 109.247 33.2146 108.811 33.6867C108.374 34.1588 108.156 34.8406 108.324 35.2096C108.492 35.5786 108.983 35.495 109.42 35.0229Z" fill="#E6E6E6"/>
<path d="M105.806 26.9161C105.492 26.1509 104.659 26.0926 103.945 26.7858C103.23 27.4791 102.905 28.6614 103.218 29.4265C103.532 30.1917 104.365 30.25 105.079 29.5568C105.794 28.8635 106.119 27.6812 105.806 26.9161Z" fill="#E6E6E6"/>
<path d="M139.449 33.107C139.136 32.3418 138.303 32.2835 137.588 32.9768C136.874 33.67 136.548 34.8523 136.862 35.6175C137.175 36.3826 138.008 36.4409 138.722 35.7477C139.437 35.0545 139.762 33.8722 139.449 33.107Z" fill="#6AC5D7"/>
<path d="M122.792 17.4258C122.479 16.6607 121.646 16.6024 120.932 17.2956C120.217 17.9889 119.892 19.1711 120.205 19.9363C120.519 20.7015 121.352 20.7598 122.066 20.0665C122.78 19.3733 123.106 18.191 122.792 17.4258Z" fill="#6AC5D7"/>
<path d="M130.028 19.4269C129.684 18.798 129.175 18.5865 128.891 18.9544C128.607 19.3224 128.655 20.1305 128.999 20.7593C129.342 21.3882 129.851 21.5997 130.135 21.2317C130.419 20.8638 130.371 20.0557 130.028 19.4269Z" fill="#E6E6E6"/>
<path d="M133.153 30.1388C133.6 29.6904 133.798 28.9387 133.596 28.4596C133.393 27.9806 132.866 27.9557 132.419 28.404C131.972 28.8524 131.773 29.6042 131.976 30.0832C132.179 30.5622 132.705 30.5871 133.153 30.1388Z" fill="#3F3D56"/>
<path d="M128.877 34.3721C128.563 33.607 127.73 33.5487 127.016 34.2419C126.301 34.9351 125.976 36.1174 126.289 36.8826C126.603 37.6478 127.436 37.7061 128.15 37.0128C128.865 36.3196 129.19 35.1373 128.877 34.3721Z" fill="#E6E6E6"/>
<path d="M114.905 35.5137C114.592 34.7486 113.759 34.6903 113.044 35.3835C112.33 36.0768 112.005 37.2591 112.318 38.0242C112.631 38.7894 113.464 38.8477 114.179 38.1544C114.893 37.4612 115.218 36.2789 114.905 35.5137Z" fill="#3F3D56"/>
<path d="M108.741 9.36043C108.427 8.59526 107.594 8.53696 106.88 9.2302C106.165 9.92344 105.84 11.1057 106.153 11.8709C106.467 12.636 107.3 12.6944 108.014 12.0011C108.729 11.3079 109.054 10.1256 108.741 9.36043Z" fill="#6AC5D7"/>
<path d="M113.583 26.5396C113.431 25.752 113.08 25.2177 112.799 25.3462C112.518 25.4748 112.414 26.2175 112.566 27.0051C112.718 27.7927 113.069 28.3269 113.35 28.1984C113.631 28.0699 113.735 27.3272 113.583 26.5396Z" fill="#E6E6E6"/>
<path d="M111.756 16.0721C111.227 16.1803 110.838 16.7274 110.887 17.2941C110.936 17.8607 111.404 18.2323 111.933 18.1241C112.463 18.0159 112.852 17.4689 112.803 16.9022C112.754 16.3356 112.285 15.9639 111.756 16.0721Z" fill="#3F3D56"/>
<path d="M137.875 21.1046C137.532 20.4758 137.023 20.2643 136.739 20.6322C136.455 21.0001 136.503 21.8082 136.846 22.437C137.19 23.0659 137.699 23.2774 137.983 22.9095C138.267 22.5415 138.219 21.7335 137.875 21.1046Z" fill="#E6E6E6"/>
<path d="M123.253 31.6022C122.909 30.9733 122.4 30.7618 122.116 31.1298C121.832 31.4977 121.88 32.3058 122.224 32.9346C122.567 33.5635 123.076 33.775 123.36 33.407C123.644 33.0391 123.596 32.231 123.253 31.6022Z" fill="#69C5D7"/>
<path d="M143.428 26.9767C142.897 26.8918 142.435 27.2838 142.397 27.8524C142.359 28.4209 142.758 28.9507 143.289 29.0357C143.819 29.1206 144.281 28.7285 144.319 28.16C144.358 27.5914 143.958 27.0616 143.428 26.9767Z" fill="#3F3D56"/>
<path d="M1.4002 31.2197C1.83704 30.7476 2.05478 30.0658 1.88655 29.6968C1.71832 29.3278 1.22781 29.4114 0.79097 29.8835C0.35413 30.3556 0.136379 31.0374 0.304612 31.4064C0.472844 31.7754 0.963356 31.6918 1.4002 31.2197Z" fill="#E6E6E6"/>
<path d="M8.99885 28.8272C8.68561 28.062 7.85253 28.0037 7.1381 28.697C6.42367 29.3902 6.09843 30.5725 6.41167 31.3377C6.72491 32.1029 7.558 32.1611 8.27243 31.4679C8.98686 30.7747 9.31209 29.5924 8.99885 28.8272Z" fill="#E6E6E6"/>
<path d="M42.6422 35.0176C42.329 34.2525 41.4959 34.1942 40.7815 34.8874C40.067 35.5807 39.7418 36.7629 40.0551 37.5281C40.3683 38.2933 41.2014 38.3516 41.9158 37.6583C42.6302 36.9651 42.9555 35.7828 42.6422 35.0176Z" fill="#6AC5D7"/>
<path d="M25.9858 19.3365C25.6725 18.5713 24.8395 18.513 24.125 19.2063C23.4106 19.8995 23.0854 21.0818 23.3986 21.847C23.7118 22.6121 24.5449 22.6704 25.2594 21.9772C25.9738 21.2839 26.299 20.1017 25.9858 19.3365Z" fill="#6AC5D7"/>
<path d="M33.2209 21.338C32.8774 20.7091 32.3686 20.4976 32.0844 20.8656C31.8003 21.2335 31.8484 22.0416 32.192 22.6704C32.5355 23.2993 33.0444 23.5108 33.3285 23.1429C33.6126 22.7749 33.5645 21.9668 33.2209 21.338Z" fill="#E6E6E6"/>
<path d="M36.346 32.0494C36.7932 31.6011 36.9916 30.8493 36.789 30.3703C36.5865 29.8912 36.0596 29.8663 35.6124 30.3147C35.1651 30.763 34.9667 31.5148 35.1693 31.9939C35.3719 32.4729 35.8987 32.4978 36.346 32.0494Z" fill="#3F3D56"/>
<path d="M32.07 36.2828C31.7567 35.5176 30.9236 35.4593 30.2092 36.1526C29.4948 36.8458 29.1696 38.0281 29.4828 38.7932C29.796 39.5584 30.6291 39.6167 31.3436 38.9235C32.058 38.2302 32.3832 37.048 32.07 36.2828Z" fill="#E6E6E6"/>
<path d="M20.5299 32.3257C20.2167 31.5606 19.3836 31.5023 18.6691 32.1955C17.9547 32.8888 17.6295 34.0711 17.9427 34.8362C18.2559 35.6014 19.089 35.6597 19.8035 34.9664C20.5179 34.2732 20.8431 33.0909 20.5299 32.3257Z" fill="#3F3D56"/>
<path d="M4.39542 20.8609C4.08219 20.0958 3.24911 20.0374 2.53469 20.7307C1.82026 21.4239 1.49503 22.6062 1.80827 23.3714C2.12151 24.1365 2.9546 24.1949 3.66902 23.5016C4.38344 22.8084 4.70866 21.6261 4.39542 20.8609Z" fill="#6AC5D7"/>
<path d="M16.776 28.4502C16.6238 27.6626 16.2729 27.1283 15.9923 27.2569C15.7116 27.3854 15.6075 28.1281 15.7596 28.9157C15.9118 29.7033 16.2627 30.2376 16.5434 30.109C16.824 29.9805 16.9282 29.2378 16.776 28.4502Z" fill="#E6E6E6"/>
<path d="M12.128 23.4925C11.5989 23.6007 11.2097 24.1478 11.2586 24.7145C11.3074 25.2811 11.776 25.6528 12.305 25.5446C12.8341 25.4363 13.2234 24.8893 13.1745 24.3226C13.1256 23.756 12.6571 23.3843 12.128 23.4925Z" fill="#3F3D56"/>
<path d="M41.0688 23.0153C40.7252 22.3864 40.2164 22.1749 39.9323 22.5428C39.6481 22.9108 39.6963 23.7188 40.0398 24.3477C40.3834 24.9765 40.8922 25.1881 41.1763 24.8201C41.4605 24.4522 41.4123 23.6441 41.0688 23.0153Z" fill="#E6E6E6"/>
<path d="M26.446 33.5128C26.1025 32.884 25.5937 32.6725 25.3095 33.0404C25.0254 33.4084 25.0735 34.2164 25.4171 34.8453C25.7606 35.4741 26.2694 35.6856 26.5536 35.3177C26.8377 34.9497 26.7896 34.1417 26.446 33.5128Z" fill="#69C5D7"/>
<path d="M46.621 28.8878C46.0901 28.8029 45.6286 29.1949 45.5903 29.7635C45.5519 30.3321 45.9511 30.8618 46.482 30.9468C47.0128 31.0317 47.4743 30.6397 47.5127 30.0711C47.551 29.5025 47.1518 28.9728 46.621 28.8878Z" fill="#3F3D56"/>
<path d="M181.071 26.4167C180.766 25.6433 179.934 25.5626 179.212 26.2365C178.49 26.9105 178.151 28.0838 178.456 28.8573C178.76 29.6308 179.592 29.7115 180.315 29.0375C181.037 28.3636 181.375 27.1902 181.071 26.4167Z" fill="#E6E6E6"/>
<path d="M231.956 20.6843C231.652 19.9108 230.82 19.8302 230.097 20.5041C229.375 21.1781 229.037 22.3514 229.341 23.1249C229.646 23.8984 230.478 23.9791 231.2 23.3051C231.922 22.6312 232.261 21.4578 231.956 20.6843Z" fill="#3F3D56"/>
<path d="M223.269 14.9519C222.964 14.1784 222.132 14.0978 221.41 14.7717C220.687 15.4456 220.349 16.619 220.653 17.3925C220.958 18.1659 221.79 18.2466 222.512 17.5727C223.235 16.8987 223.573 15.7254 223.269 14.9519Z" fill="#6AC5D7"/>
<path d="M213.858 33.4685C213.554 32.695 212.721 32.6144 211.999 33.2883C211.277 33.9622 210.938 35.1356 211.243 35.9091C211.547 36.6825 212.38 36.7632 213.102 36.0893C213.824 35.4153 214.163 34.242 213.858 33.4685Z" fill="#6AC5D7"/>
<path d="M203.067 26.2048C202.73 25.5668 202.224 25.3416 201.936 25.7019C201.647 26.0621 201.686 26.8714 202.023 27.5094C202.359 28.1474 202.865 28.3725 203.154 28.0123C203.442 27.652 203.403 26.8428 203.067 26.2048Z" fill="#E6E6E6"/>
<path d="M198.026 20.3386C197.69 19.7006 197.183 19.4755 196.895 19.8357C196.607 20.196 196.646 21.0052 196.982 21.6432C197.318 22.2811 197.825 22.5063 198.113 22.146C198.401 21.7858 198.362 20.9766 198.026 20.3386Z" fill="#3F3D56"/>
<path d="M237.103 26.9713C237.307 26.2118 237.194 25.4193 236.851 25.2011C236.508 24.983 236.064 25.4219 235.861 26.1814C235.657 26.9409 235.77 27.7335 236.113 27.9516C236.456 28.1697 236.9 27.7309 237.103 26.9713Z" fill="#E6E6E6"/>
<path d="M215.554 12.2709C216.007 11.8347 216.214 11.0883 216.016 10.6039C215.819 10.1195 215.293 10.0805 214.841 10.5167C214.388 10.953 214.181 11.6993 214.379 12.1838C214.576 12.6682 215.102 12.7072 215.554 12.2709Z" fill="#3F3D56"/>
<path d="M215.822 22.5955C215.517 21.822 214.685 21.7413 213.963 22.4153C213.241 23.0892 212.902 24.2625 213.207 25.036C213.511 25.8095 214.344 25.8902 215.066 25.2162C215.788 24.5423 216.126 23.3689 215.822 22.5955Z" fill="#E6E6E6"/>
<path d="M205.744 36.3376C205.439 35.5642 204.607 35.4835 203.885 36.1575C203.163 36.8314 202.824 38.0048 203.129 38.7782C203.433 39.5517 204.265 39.6324 204.987 38.9584C205.71 38.2845 206.048 37.1111 205.744 36.3376Z" fill="#3F3D56"/>
<path d="M191.935 31.5755C191.631 30.802 190.798 30.7213 190.076 31.3952C189.354 32.0692 189.015 33.2425 189.32 34.016C189.624 34.7895 190.457 34.8702 191.179 34.1962C191.901 33.5223 192.24 32.3489 191.935 31.5755Z" fill="#6AC5D7"/>
<path d="M196.876 35.7553C196.346 35.8493 195.951 36.3858 195.993 36.9537C196.036 37.5215 196.5 37.9057 197.03 37.8118C197.56 37.7178 197.956 37.1812 197.913 36.6134C197.871 36.0455 197.407 35.6613 196.876 35.7553Z" fill="#3F3D56"/>
<path d="M222.939 30.8196C222.602 30.1816 222.096 29.9564 221.808 30.3167C221.519 30.6769 221.558 31.4861 221.895 32.1241C222.231 32.7621 222.737 32.9873 223.026 32.627C223.314 32.2668 223.275 31.4575 222.939 30.8196Z" fill="#E6E6E6"/>
<path d="M208.318 18.2443C207.981 17.6063 207.475 17.3812 207.187 17.7415C206.898 18.1017 206.937 18.9109 207.274 19.5489C207.61 20.1869 208.116 20.4121 208.405 20.0518C208.693 19.6916 208.654 18.8823 208.318 18.2443Z" fill="#69C5D7"/>
<path d="M230.307 29.9344C229.778 29.8352 229.312 30.2148 229.267 30.7823C229.222 31.3497 229.615 31.8902 230.145 31.9893C230.675 32.0885 231.141 31.7089 231.185 31.1415C231.23 30.574 230.837 30.0336 230.307 29.9344Z" fill="#3F3D56"/>
<path d="M184.876 19.5721C184.303 19.7713 183.989 20.9609 184.175 22.2291C184.361 23.4974 184.976 24.364 185.549 24.1648C186.122 23.9657 186.436 22.7761 186.25 21.5078C186.064 20.2396 185.449 19.3729 184.876 19.5721Z" fill="#3F3D56"/>
<path d="M183.968 35.441C183.469 35.7297 183.169 36.3975 183.3 36.9327C183.43 37.4679 183.941 37.6678 184.441 37.3791C184.94 37.0905 185.24 36.4226 185.109 35.8874C184.979 35.3522 184.468 35.1524 183.968 35.441Z" fill="#3F3D56"/>
<path d="M169.009 7.06692C168.572 7.53902 168.355 8.22086 168.523 8.58985C168.691 8.95884 169.182 8.87525 169.618 8.40315C170.055 7.93105 170.273 7.24922 170.105 6.88023C169.936 6.51124 169.446 6.59482 169.009 7.06692Z" fill="#E6E6E6"/>
<path d="M172.623 15.1738C172.937 15.9389 173.77 15.9973 174.484 15.304C175.199 14.6108 175.524 13.4285 175.211 12.6633C174.897 11.8981 174.064 11.8398 173.35 12.5331C172.635 13.2263 172.31 14.4086 172.623 15.1738Z" fill="#E6E6E6"/>
<path d="M138.98 8.98284C139.293 9.74802 140.126 9.80633 140.841 9.11308C141.555 8.41983 141.88 7.23755 141.567 6.47238C141.254 5.70721 140.421 5.6489 139.706 6.34214C138.992 7.03539 138.667 8.21767 138.98 8.98284Z" fill="#6AC5D7"/>
<path d="M155.636 24.664C155.95 25.4292 156.783 25.4875 157.497 24.7942C158.212 24.101 158.537 22.9187 158.224 22.1535C157.91 21.3884 157.077 21.3301 156.363 22.0233C155.648 22.7165 155.323 23.8988 155.636 24.664Z" fill="#6AC5D7"/>
<path d="M148.401 22.663C148.745 23.2918 149.254 23.5033 149.538 23.1354C149.822 22.7675 149.774 21.9594 149.43 21.3305C149.087 20.7017 148.578 20.4902 148.294 20.8581C148.01 21.2261 148.058 22.0341 148.401 22.663Z" fill="#E6E6E6"/>
<path d="M145.276 11.9511C144.829 12.3994 144.631 13.1512 144.833 13.6302C145.036 14.1093 145.563 14.1342 146.01 13.6858C146.457 13.2375 146.656 12.4857 146.453 12.0066C146.25 11.5276 145.724 11.5027 145.276 11.9511Z" fill="#3F3D56"/>
<path d="M149.552 7.7177C149.865 8.48287 150.699 8.54118 151.413 7.84794C152.127 7.1547 152.453 5.97242 152.139 5.20725C151.826 4.44208 150.993 4.38377 150.279 5.07701C149.564 5.77025 149.239 6.95253 149.552 7.7177Z" fill="#E6E6E6"/>
<path d="M163.524 6.57612C163.837 7.34128 164.67 7.39957 165.385 6.70632C166.099 6.01307 166.424 4.83079 166.111 4.06563C165.798 3.30046 164.965 3.24216 164.25 3.93542C163.536 4.62867 163.211 5.81095 163.524 6.57612Z" fill="#3F3D56"/>
<path d="M169.688 32.7289C170.002 33.4941 170.835 33.5524 171.549 32.8592C172.263 32.1659 172.589 30.9836 172.275 30.2185C171.962 29.4533 171.129 29.395 170.415 30.0882C169.7 30.7815 169.375 31.9638 169.688 32.7289Z" fill="#6AC5D7"/>
<path d="M164.846 15.5503C164.998 16.3379 165.349 16.8721 165.63 16.7436C165.911 16.6151 166.015 15.8724 165.863 15.0848C165.71 14.2972 165.359 13.7629 165.079 13.8914C164.798 14.02 164.694 14.7627 164.846 15.5503Z" fill="#E6E6E6"/>
<path d="M166.672 26.0177C167.202 25.9095 167.591 25.3624 167.542 24.7958C167.493 24.2291 167.025 23.8575 166.495 23.9657C165.966 24.0739 165.577 24.621 165.626 25.1876C165.675 25.7543 166.143 26.1259 166.672 26.0177Z" fill="#3F3D56"/>
<path d="M140.553 20.9852C140.897 21.6141 141.406 21.8256 141.69 21.4576C141.974 21.0897 141.926 20.2816 141.582 19.6528C141.239 19.0239 140.73 18.8124 140.446 19.1804C140.162 19.5483 140.21 20.3564 140.553 20.9852Z" fill="#E6E6E6"/>
<path d="M155.176 10.4877C155.52 11.1165 156.029 11.328 156.313 10.9601C156.597 10.5921 156.549 9.78409 156.205 9.15524C155.862 8.52639 155.353 8.31487 155.069 8.68282C154.784 9.05076 154.833 9.85883 155.176 10.4877Z" fill="#69C5D7"/>
<path d="M135.001 15.1131C135.532 15.1981 135.994 14.806 136.032 14.2375C136.07 13.6689 135.671 13.1391 135.14 13.0542C134.609 12.9692 134.148 13.3613 134.109 13.9299C134.071 14.4984 134.47 15.0282 135.001 15.1131Z" fill="#3F3D56"/>
<path d="M277.029 10.8701C276.592 11.3422 276.374 12.0241 276.542 12.3931C276.711 12.7621 277.201 12.6785 277.638 12.2064C278.075 11.7343 278.292 11.0524 278.124 10.6834C277.956 10.3145 277.466 10.398 277.029 10.8701Z" fill="#E6E6E6"/>
<path d="M269.43 13.2626C269.743 14.0278 270.576 14.0861 271.291 13.3929C272.005 12.6996 272.33 11.5173 272.017 10.7522C271.704 9.98699 270.871 9.92869 270.156 10.6219C269.442 11.3152 269.117 12.4975 269.43 13.2626Z" fill="#E6E6E6"/>
<path d="M235.787 7.0722C236.1 7.83737 236.933 7.89568 237.647 7.20243C238.362 6.50919 238.687 5.32691 238.374 4.56174C238.061 3.79656 237.227 3.73825 236.513 4.4315C235.799 5.12475 235.473 6.30702 235.787 7.0722Z" fill="#6AC5D7"/>
<path d="M252.443 22.7534C252.756 23.5185 253.589 23.5768 254.304 22.8836C255.018 22.1903 255.343 21.0081 255.03 20.2429C254.717 19.4777 253.884 19.4194 253.17 20.1127C252.455 20.8059 252.13 21.9882 252.443 22.7534Z" fill="#6AC5D7"/>
<path d="M245.208 20.7519C245.551 21.3807 246.06 21.5922 246.344 21.2243C246.629 20.8563 246.58 20.0483 246.237 19.4194C245.893 18.7906 245.384 18.579 245.1 18.947C244.816 19.3149 244.864 20.123 245.208 20.7519Z" fill="#E6E6E6"/>
<path d="M242.083 10.0404C241.636 10.4888 241.437 11.2405 241.64 11.7196C241.842 12.1986 242.369 12.2235 242.817 11.7752C243.264 11.3268 243.462 10.575 243.26 10.096C243.057 9.61695 242.53 9.59207 242.083 10.0404Z" fill="#3F3D56"/>
<path d="M246.359 5.80706C246.672 6.57223 247.505 6.63053 248.22 5.93729C248.934 5.24405 249.259 4.06178 248.946 3.29661C248.633 2.53143 247.8 2.47312 247.085 3.16636C246.371 3.8596 246.046 5.04188 246.359 5.80706Z" fill="#E6E6E6"/>
<path d="M257.899 9.7641C258.212 10.5293 259.045 10.5876 259.76 9.89431C260.474 9.20105 260.799 8.01878 260.486 7.25361C260.173 6.48845 259.34 6.43015 258.625 7.1234C257.911 7.81666 257.586 8.99894 257.899 9.7641Z" fill="#3F3D56"/>
<path d="M274.033 21.2289C274.347 21.9941 275.18 22.0524 275.894 21.3592C276.609 20.6659 276.934 19.4836 276.621 18.7185C276.307 17.9533 275.474 17.895 274.76 18.5882C274.045 19.2815 273.72 20.4638 274.033 21.2289Z" fill="#6AC5D7"/>
<path d="M261.653 13.6396C261.805 14.4272 262.156 14.9615 262.437 14.833C262.717 14.7044 262.821 13.9617 262.669 13.1741C262.517 12.3865 262.166 11.8523 261.885 11.9808C261.605 12.1093 261.501 12.852 261.653 13.6396Z" fill="#E6E6E6"/>
<path d="M266.301 18.5973C266.83 18.4891 267.219 17.942 267.17 17.3754C267.121 16.8087 266.653 16.4371 266.124 16.5453C265.595 16.6535 265.205 17.2006 265.254 17.7672C265.303 18.3339 265.772 18.7055 266.301 18.5973Z" fill="#3F3D56"/>
<path d="M237.36 19.0746C237.704 19.7034 238.212 19.9149 238.497 19.547C238.781 19.1791 238.733 18.371 238.389 17.7422C238.046 17.1133 237.537 16.9018 237.253 17.2697C236.968 17.6377 237.017 18.4457 237.36 19.0746Z" fill="#E6E6E6"/>
<path d="M251.983 8.57704C252.326 9.20589 252.835 9.41738 253.119 9.04943C253.404 8.68149 253.355 7.87344 253.012 7.24459C252.668 6.61574 252.159 6.40423 251.875 6.77217C251.591 7.14012 251.639 7.94819 251.983 8.57704Z" fill="#69C5D7"/>
<path d="M231.808 13.202C232.339 13.287 232.8 12.8949 232.839 12.3263C232.877 11.7578 232.478 11.228 231.947 11.1431C231.416 11.0581 230.955 11.4502 230.916 12.0187C230.878 12.5873 231.277 13.1171 231.808 13.202Z" fill="#3F3D56"/>
<path d="M377.849 13.762C378.154 14.5354 378.986 14.6161 379.708 13.9422C380.43 13.2682 380.769 12.0949 380.464 11.3214C380.16 10.5479 379.328 10.4672 378.605 11.1412C377.883 11.8151 377.545 12.9885 377.849 13.762Z" fill="#E6E6E6"/>
<path d="M326.964 19.4944C327.268 20.2679 328.1 20.3485 328.823 19.6746C329.545 19.0006 329.883 17.8273 329.579 17.0538C329.274 16.2803 328.442 16.1997 327.72 16.8736C326.998 17.5476 326.659 18.7209 326.964 19.4944Z" fill="#3F3D56"/>
<path d="M335.651 25.2268C335.956 26.0003 336.788 26.081 337.51 25.407C338.233 24.7331 338.571 23.5597 338.267 22.7862C337.962 22.0128 337.13 21.9321 336.408 22.606C335.685 23.28 335.347 24.4533 335.651 25.2268Z" fill="#6AC5D7"/>
<path d="M345.062 6.7102C345.366 7.48367 346.199 7.56436 346.921 6.89041C347.643 6.21647 347.982 5.04311 347.677 4.26964C347.373 3.49616 346.54 3.41548 345.818 4.08942C345.096 4.76337 344.757 5.93673 345.062 6.7102Z" fill="#6AC5D7"/>
<path d="M355.853 13.9739C356.19 14.6119 356.696 14.8371 356.984 14.4768C357.273 14.1166 357.234 13.3073 356.897 12.6693C356.561 12.0314 356.055 11.8062 355.766 12.1665C355.478 12.5267 355.517 13.336 355.853 13.9739Z" fill="#E6E6E6"/>
<path d="M360.894 19.8401C361.23 20.4781 361.737 20.7033 362.025 20.343C362.313 19.9828 362.274 19.1735 361.938 18.5355C361.602 17.8976 361.095 17.6724 360.807 18.0327C360.519 18.3929 360.558 19.2021 360.894 19.8401Z" fill="#3F3D56"/>
<path d="M321.817 13.2069C321.613 13.9664 321.726 14.7589 322.069 14.9771C322.412 15.1952 322.856 14.7563 323.059 13.9968C323.263 13.2373 323.15 12.4447 322.807 12.2266C322.464 12.0085 322.02 12.4474 321.817 13.2069Z" fill="#E6E6E6"/>
<path d="M343.366 27.9078C342.913 28.344 342.706 29.0904 342.904 29.5748C343.101 30.0592 343.627 30.0982 344.079 29.662C344.532 29.2257 344.739 28.4794 344.541 27.995C344.344 27.5105 343.818 27.4715 343.366 27.9078Z" fill="#3F3D56"/>
<path d="M343.098 17.5832C343.403 18.3567 344.235 18.4374 344.957 17.7635C345.679 17.0895 346.018 15.9162 345.713 15.1427C345.409 14.3692 344.576 14.2885 343.854 14.9625C343.132 15.6364 342.794 16.8098 343.098 17.5832Z" fill="#E6E6E6"/>
<path d="M353.176 3.84107C353.481 4.61454 354.313 4.6952 355.035 4.02125C355.757 3.3473 356.096 2.17395 355.791 1.40048C355.487 0.627012 354.655 0.546341 353.932 1.22029C353.21 1.89424 352.872 3.0676 353.176 3.84107Z" fill="#3F3D56"/>
<path d="M366.985 8.60325C367.289 9.37672 368.122 9.4574 368.844 8.78346C369.566 8.10952 369.905 6.93618 369.6 6.16271C369.296 5.38924 368.463 5.30854 367.741 5.98248C367.019 6.65642 366.68 7.82978 366.985 8.60325Z" fill="#6AC5D7"/>
<path d="M362.044 4.42294C362.574 4.32896 362.969 3.79243 362.927 3.22455C362.884 2.65667 362.42 2.2725 361.89 2.36647C361.36 2.46044 360.964 2.99698 361.007 3.56485C361.049 4.13273 361.513 4.51691 362.044 4.42294Z" fill="#3F3D56"/>
<path d="M335.981 9.35916C336.318 9.99714 336.824 10.2223 337.112 9.86205C337.401 9.5018 337.362 8.69257 337.025 8.05459C336.689 7.4166 336.183 7.19145 335.894 7.5517C335.606 7.91195 335.645 8.72117 335.981 9.35916Z" fill="#E6E6E6"/>
<path d="M350.602 21.9344C350.939 22.5724 351.445 22.7975 351.733 22.4372C352.022 22.077 351.983 21.2678 351.646 20.6298C351.31 19.9918 350.804 19.7666 350.515 20.1269C350.227 20.4872 350.266 21.2964 350.602 21.9344Z" fill="#69C5D7"/>
<path d="M328.613 10.2443C329.142 10.3435 329.608 9.96388 329.653 9.39643C329.698 8.82898 329.305 8.28856 328.775 8.18937C328.245 8.09018 327.779 8.46978 327.734 9.03723C327.69 9.60468 328.083 10.1451 328.613 10.2443Z" fill="#3F3D56"/>
<path d="M374.044 20.6066C374.617 20.4075 374.931 19.2178 374.745 17.9496C374.559 16.6813 373.944 15.8147 373.371 16.0139C372.798 16.213 372.484 17.4026 372.67 18.6709C372.856 19.9391 373.471 20.8058 374.044 20.6066Z" fill="#3F3D56"/>
<path d="M374.952 4.73768C375.451 4.44902 375.751 3.78116 375.62 3.24597C375.49 2.71078 374.979 2.51093 374.479 2.79959C373.98 3.08826 373.68 3.75613 373.811 4.29132C373.941 4.82651 374.452 5.02634 374.952 4.73768Z" fill="#3F3D56"/>
<path d="M389.911 33.1118C390.348 32.6397 390.565 31.9579 390.397 31.5889C390.229 31.2199 389.738 31.3035 389.302 31.7756C388.865 32.2477 388.647 32.9295 388.815 33.2985C388.984 33.6675 389.474 33.5839 389.911 33.1118Z" fill="#E6E6E6"/>
<path d="M386.297 25.0049C385.983 24.2398 385.15 24.1815 384.436 24.8747C383.721 25.568 383.396 26.7502 383.709 27.5154C384.023 28.2806 384.856 28.3389 385.57 27.6456C386.285 26.9524 386.61 25.7701 386.297 25.0049Z" fill="#E6E6E6"/>
<path d="M419.94 31.1959C419.627 30.4307 418.794 30.3724 418.079 31.0656C417.365 31.7589 417.04 32.9412 417.353 33.7063C417.666 34.4715 418.499 34.5298 419.214 33.8366C419.928 33.1433 420.253 31.961 419.94 31.1959Z" fill="#6AC5D7"/>
<path d="M403.284 15.5147C402.97 14.7495 402.137 14.6912 401.423 15.3845C400.708 16.0777 400.383 17.26 400.696 18.0252C401.01 18.7904 401.843 18.8487 402.557 18.1554C403.272 17.4622 403.597 16.2799 403.284 15.5147Z" fill="#6AC5D7"/>
<path d="M410.519 17.5157C410.175 16.8869 409.666 16.6754 409.382 17.0433C409.098 17.4113 409.146 18.2193 409.49 18.8482C409.833 19.477 410.342 19.6885 410.626 19.3206C410.91 18.9527 410.862 18.1446 410.519 17.5157Z" fill="#E6E6E6"/>
<path d="M413.644 28.2277C414.091 27.7793 414.289 27.0275 414.087 26.5485C413.884 26.0694 413.357 26.0446 412.91 26.4929C412.463 26.9412 412.264 27.693 412.467 28.1721C412.67 28.6511 413.196 28.676 413.644 28.2277Z" fill="#3F3D56"/>
<path d="M409.368 32.461C409.055 31.6958 408.221 31.6375 407.507 32.3308C406.793 33.024 406.467 34.2063 406.781 34.9715C407.094 35.7366 407.927 35.7949 408.641 35.1017C409.356 34.4085 409.681 33.2262 409.368 32.461Z" fill="#E6E6E6"/>
<path d="M395.396 33.6026C395.083 32.8374 394.25 32.7791 393.535 33.4724C392.821 34.1656 392.496 35.3479 392.809 36.1131C393.122 36.8783 393.955 36.9365 394.67 36.2433C395.384 35.55 395.709 34.3678 395.396 33.6026Z" fill="#3F3D56"/>
<path d="M389.232 7.4493C388.918 6.68413 388.085 6.62583 387.371 7.31907C386.657 8.01231 386.331 9.19458 386.645 9.95975C386.958 10.7249 387.791 10.7832 388.505 10.09C389.22 9.39675 389.545 8.21447 389.232 7.4493Z" fill="#6AC5D7"/>
<path d="M394.074 24.6284C393.922 23.8408 393.571 23.3066 393.29 23.4351C393.009 23.5637 392.905 24.3063 393.057 25.0939C393.21 25.8815 393.561 26.4158 393.841 26.2873C394.122 26.1587 394.226 25.416 394.074 24.6284Z" fill="#E6E6E6"/>
<path d="M392.248 14.161C391.718 14.2692 391.329 14.8163 391.378 15.3829C391.427 15.9496 391.895 16.3212 392.425 16.213C392.954 16.1048 393.343 15.5577 393.294 14.9911C393.245 14.4244 392.777 14.0528 392.248 14.161Z" fill="#3F3D56"/>
<path d="M418.367 19.1935C418.023 18.5646 417.514 18.3531 417.23 18.7211C416.946 19.089 416.994 19.8971 417.338 20.5259C417.681 21.1548 418.19 21.3663 418.474 20.9983C418.758 20.6304 418.71 19.8223 418.367 19.1935Z" fill="#E6E6E6"/>
<path d="M403.744 29.691C403.4 29.0622 402.891 28.8507 402.607 29.2186C402.323 29.5866 402.371 30.3946 402.715 31.0235C403.058 31.6523 403.567 31.8638 403.851 31.4959C404.136 31.1279 404.087 30.3199 403.744 29.691Z" fill="#69C5D7"/>
<path d="M423.919 25.0656C423.388 24.9806 422.926 25.3727 422.888 25.9412C422.85 26.5098 423.249 27.0396 423.78 27.1245C424.311 27.2095 424.772 26.8174 424.81 26.2488C424.849 25.6803 424.45 25.1505 423.919 25.0656Z" fill="#3F3D56"/>
<path d="M281.891 29.3086C282.328 28.8365 282.546 28.1546 282.378 27.7856C282.209 27.4166 281.719 27.5002 281.282 27.9723C280.845 28.4444 280.628 29.1263 280.796 29.4953C280.964 29.8643 281.454 29.7807 281.891 29.3086Z" fill="#E6E6E6"/>
<path d="M289.49 26.9161C289.177 26.1509 288.344 26.0926 287.629 26.7858C286.915 27.4791 286.59 28.6614 286.903 29.4265C287.216 30.1917 288.049 30.25 288.764 29.5568C289.478 28.8635 289.803 27.6812 289.49 26.9161Z" fill="#E6E6E6"/>
<path d="M323.133 33.1065C322.82 32.3413 321.987 32.283 321.273 32.9763C320.558 33.6695 320.233 34.8518 320.546 35.617C320.859 36.3821 321.692 36.4405 322.407 35.7472C323.121 35.054 323.447 33.8717 323.133 33.1065Z" fill="#6AC5D7"/>
<path d="M306.477 17.4254C306.164 16.6602 305.331 16.6019 304.616 17.2951C303.902 17.9884 303.576 19.1706 303.89 19.9358C304.203 20.701 305.036 20.7593 305.75 20.0661C306.465 19.3728 306.79 18.1905 306.477 17.4254Z" fill="#6AC5D7"/>
<path d="M313.712 19.4269C313.369 18.798 312.86 18.5865 312.576 18.9544C312.291 19.3224 312.34 20.1305 312.683 20.7593C313.027 21.3882 313.536 21.5997 313.82 21.2317C314.104 20.8638 314.056 20.0557 313.712 19.4269Z" fill="#E6E6E6"/>
<path d="M316.837 30.1383C317.284 29.69 317.483 28.9382 317.28 28.4591C317.078 27.9801 316.551 27.9552 316.103 28.4035C315.656 28.8519 315.458 29.6037 315.66 30.0827C315.863 30.5618 316.39 30.5866 316.837 30.1383Z" fill="#3F3D56"/>
<path d="M312.561 34.3717C312.248 33.6065 311.415 33.5482 310.7 34.2414C309.986 34.9347 309.661 36.1169 309.974 36.8821C310.287 37.6473 311.12 37.7056 311.835 37.0123C312.549 36.3191 312.874 35.1368 312.561 34.3717Z" fill="#E6E6E6"/>
<path d="M301.021 30.4146C300.708 29.6494 299.875 29.5912 299.16 30.2844C298.446 30.9777 298.121 32.1599 298.434 32.9251C298.747 33.6903 299.58 33.7486 300.295 33.0553C301.009 32.3621 301.334 31.1798 301.021 30.4146Z" fill="#3F3D56"/>
<path d="M284.887 18.9498C284.573 18.1846 283.74 18.1263 283.026 18.8196C282.311 19.5128 281.986 20.6951 282.299 21.4602C282.613 22.2254 283.446 22.2837 284.16 21.5905C284.875 20.8972 285.2 19.715 284.887 18.9498Z" fill="#6AC5D7"/>
<path d="M297.267 26.5391C297.115 25.7515 296.764 25.2172 296.483 25.3458C296.203 25.4743 296.099 26.217 296.251 27.0046C296.403 27.7922 296.754 28.3265 297.035 28.1979C297.315 28.0694 297.419 27.3267 297.267 26.5391Z" fill="#E6E6E6"/>
<path d="M292.619 21.5814C292.09 21.6896 291.701 22.2367 291.75 22.8033C291.799 23.37 292.267 23.7416 292.796 23.6334C293.325 23.5252 293.714 22.9781 293.666 22.4115C293.617 21.8448 293.148 21.4732 292.619 21.5814Z" fill="#3F3D56"/>
<path d="M321.56 21.1041C321.216 20.4753 320.707 20.2638 320.423 20.6317C320.139 20.9997 320.187 21.8077 320.531 22.4366C320.874 23.0654 321.383 23.2769 321.667 22.909C321.952 22.541 321.903 21.733 321.56 21.1041Z" fill="#E6E6E6"/>
<path d="M306.937 31.6017C306.594 30.9728 306.085 30.7613 305.801 31.1293C305.516 31.4972 305.565 32.3053 305.908 32.9341C306.252 33.563 306.761 33.7745 307.045 33.4065C307.329 33.0386 307.281 32.2305 306.937 31.6017Z" fill="#69C5D7"/>
<path d="M327.112 26.9767C326.581 26.8918 326.12 27.2838 326.081 27.8524C326.043 28.4209 326.442 28.9507 326.973 29.0357C327.504 29.1206 327.965 28.7285 328.004 28.16C328.042 27.5914 327.643 27.0616 327.112 26.9767Z" fill="#3F3D56"/>
<path d="M461.562 24.5056C461.257 23.7321 460.425 23.6514 459.703 24.3254C458.981 24.9993 458.642 26.1727 458.947 26.9462C459.251 27.7197 460.084 27.8003 460.806 27.1264C461.528 26.4524 461.866 25.2791 461.562 24.5056Z" fill="#E6E6E6"/>
<path d="M512.448 18.7732C512.143 17.9997 511.311 17.919 510.589 18.593C509.866 19.2669 509.528 20.4403 509.832 21.2138C510.137 21.9872 510.969 22.0679 511.691 21.394C512.413 20.72 512.752 19.5467 512.448 18.7732Z" fill="#3F3D56"/>
<path d="M503.76 13.0408C503.455 12.2673 502.623 12.1866 501.901 12.8606C501.179 13.5345 500.84 14.7079 501.144 15.4813C501.449 16.2548 502.281 16.3355 503.003 15.6616C503.726 14.9876 504.064 13.8143 503.76 13.0408Z" fill="#6AC5D7"/>
<path d="M494.349 31.5574C494.045 30.7839 493.212 30.7032 492.49 31.3772C491.768 32.0511 491.429 33.2245 491.734 33.9979C492.038 34.7714 492.871 34.8521 493.593 34.1782C494.315 33.5042 494.654 32.3309 494.349 31.5574Z" fill="#6AC5D7"/>
<path d="M483.558 24.2936C483.221 23.6556 482.715 23.4305 482.427 23.7908C482.138 24.151 482.177 24.9602 482.514 25.5982C482.85 26.2362 483.356 26.4614 483.645 26.1011C483.933 25.7409 483.894 24.9316 483.558 24.2936Z" fill="#E6E6E6"/>
<path d="M478.517 18.4275C478.181 17.7895 477.674 17.5643 477.386 17.9246C477.098 18.2848 477.137 19.094 477.473 19.732C477.81 20.37 478.316 20.5952 478.604 20.2349C478.892 19.8747 478.854 19.0654 478.517 18.4275Z" fill="#3F3D56"/>
<path d="M517.595 25.0602C517.798 24.3007 517.685 23.5081 517.342 23.29C516.999 23.0719 516.555 23.5108 516.352 24.2703C516.148 25.0298 516.261 25.8223 516.604 26.0405C516.948 26.2586 517.391 25.8197 517.595 25.0602Z" fill="#E6E6E6"/>
<path d="M496.045 10.3598C496.498 9.92355 496.705 9.17721 496.508 8.6928C496.31 8.20839 495.784 8.16934 495.332 8.6056C494.879 9.04185 494.672 9.78821 494.87 10.2726C495.067 10.757 495.593 10.7961 496.045 10.3598Z" fill="#3F3D56"/>
<path d="M496.313 20.6843C496.009 19.9109 495.176 19.8302 494.454 20.5041C493.732 21.1781 493.393 22.3514 493.698 23.1249C494.002 23.8984 494.835 23.979 495.557 23.3051C496.279 22.6312 496.618 21.4578 496.313 20.6843Z" fill="#E6E6E6"/>
<path d="M486.235 34.4265C485.93 33.653 485.098 33.5724 484.376 34.2463C483.654 34.9203 483.315 36.0936 483.62 36.8671C483.924 37.6406 484.756 37.7212 485.479 37.0473C486.201 36.3733 486.539 35.2 486.235 34.4265Z" fill="#3F3D56"/>
<path d="M472.426 29.6643C472.122 28.8909 471.289 28.8102 470.567 29.4841C469.845 30.1581 469.506 31.3314 469.811 32.1049C470.115 32.8783 470.948 32.959 471.67 32.2851C472.392 31.6112 472.731 30.4378 472.426 29.6643Z" fill="#6AC5D7"/>
<path d="M477.368 33.8442C476.837 33.9381 476.442 34.4747 476.484 35.0425C476.527 35.6104 476.991 35.9946 477.521 35.9006C478.052 35.8066 478.447 35.2701 478.405 34.7022C478.362 34.1344 477.898 33.7502 477.368 33.8442Z" fill="#3F3D56"/>
<path d="M503.43 28.9084C503.093 28.2704 502.587 28.0453 502.299 28.4055C502.01 28.7658 502.049 29.575 502.386 30.213C502.722 30.851 503.228 31.0761 503.517 30.7159C503.805 30.3556 503.766 29.5464 503.43 28.9084Z" fill="#E6E6E6"/>
<path d="M488.809 16.3332C488.472 15.6952 487.966 15.4701 487.678 15.8303C487.389 16.1906 487.428 16.9998 487.765 17.6378C488.101 18.2758 488.608 18.5009 488.896 18.1407C489.184 17.7804 489.145 16.9712 488.809 16.3332Z" fill="#69C5D7"/>
<path d="M510.798 28.0233C510.269 27.9241 509.803 28.3037 509.758 28.8711C509.713 29.4386 510.106 29.979 510.636 30.0782C511.166 30.1774 511.632 29.7978 511.677 29.2303C511.721 28.6629 511.328 28.1225 510.798 28.0233Z" fill="#3F3D56"/>
<path d="M465.367 17.6609C464.794 17.8601 464.48 19.0497 464.666 20.318C464.852 21.5862 465.467 22.4529 466.04 22.2537C466.613 22.0545 466.927 20.8649 466.741 19.5967C466.555 18.3284 465.94 17.4618 465.367 17.6609Z" fill="#3F3D56"/>
<path d="M464.46 33.5299C463.96 33.8186 463.66 34.4864 463.791 35.0216C463.921 35.5568 464.432 35.7567 464.932 35.468C465.432 35.1793 465.731 34.5114 465.6 33.9763C465.47 33.4411 464.959 33.2412 464.46 33.5299Z" fill="#3F3D56"/>
<path d="M449.5 5.15579C449.063 5.62788 448.846 6.30973 449.014 6.67872C449.182 7.04771 449.673 6.96412 450.109 6.49202C450.546 6.01992 450.764 5.33808 450.596 4.96909C450.428 4.6001 449.937 4.68369 449.5 5.15579Z" fill="#E6E6E6"/>
<path d="M453.114 13.2626C453.428 14.0278 454.261 14.0861 454.975 13.3929C455.69 12.6996 456.015 11.5173 455.702 10.7522C455.388 9.98699 454.555 9.92869 453.841 10.6219C453.126 11.3152 452.801 12.4975 453.114 13.2626Z" fill="#E6E6E6"/>
<path d="M419.471 7.07171C419.784 7.83688 420.617 7.89519 421.332 7.20195C422.046 6.5087 422.372 5.32642 422.058 4.56125C421.745 3.79608 420.912 3.73777 420.198 4.43101C419.483 5.12426 419.158 6.30654 419.471 7.07171Z" fill="#6AC5D7"/>
<path d="M436.128 22.7529C436.441 23.518 437.274 23.5763 437.988 22.8831C438.703 22.1899 439.028 21.0076 438.715 20.2424C438.401 19.4772 437.568 19.4189 436.854 20.1122C436.14 20.8054 435.814 21.9877 436.128 22.7529Z" fill="#6AC5D7"/>
<path d="M428.892 20.7519C429.236 21.3807 429.745 21.5922 430.029 21.2243C430.313 20.8563 430.265 20.0483 429.921 19.4194C429.578 18.7906 429.069 18.579 428.785 18.947C428.501 19.3149 428.549 20.123 428.892 20.7519Z" fill="#E6E6E6"/>
<path d="M425.767 10.0399C425.32 10.4883 425.122 11.2401 425.324 11.7191C425.527 12.1981 426.054 12.223 426.501 11.7747C426.948 11.3263 427.147 10.5745 426.944 10.0955C426.741 9.61646 426.215 9.59158 425.767 10.0399Z" fill="#3F3D56"/>
<path d="M430.043 5.80657C430.357 6.57174 431.19 6.63005 431.904 5.9368C432.618 5.24356 432.944 4.06129 432.63 3.29612C432.317 2.53095 431.484 2.47263 430.77 3.16587C430.055 3.85911 429.73 5.0414 430.043 5.80657Z" fill="#E6E6E6"/>
<path d="M444.015 4.66498C444.328 5.43015 445.161 5.48844 445.876 4.79518C446.59 4.10193 446.915 2.91966 446.602 2.15449C446.289 1.38933 445.456 1.33103 444.741 2.02428C444.027 2.71753 443.702 3.89982 444.015 4.66498Z" fill="#3F3D56"/>
<path d="M450.179 30.8178C450.493 31.583 451.326 31.6413 452.04 30.948C452.755 30.2548 453.08 29.0725 452.767 28.3073C452.453 27.5422 451.62 27.4839 450.906 28.1771C450.191 28.8703 449.866 30.0526 450.179 30.8178Z" fill="#6AC5D7"/>
<path d="M445.337 13.6391C445.489 14.4267 445.84 14.961 446.121 14.8325C446.402 14.7039 446.506 13.9612 446.354 13.1736C446.201 12.386 445.851 11.8518 445.57 11.9803C445.289 12.1089 445.185 12.8515 445.337 13.6391Z" fill="#E6E6E6"/>
<path d="M447.164 24.1066C447.693 23.9984 448.082 23.4513 448.033 22.8847C447.984 22.318 447.516 21.9464 446.987 22.0546C446.457 22.1628 446.068 22.7098 446.117 23.2765C446.166 23.8431 446.635 24.2148 447.164 24.1066Z" fill="#3F3D56"/>
<path d="M421.045 19.0741C421.388 19.7029 421.897 19.9144 422.181 19.5465C422.465 19.1786 422.417 18.3705 422.074 17.7417C421.73 17.1128 421.221 16.9013 420.937 17.2692C420.653 17.6372 420.701 18.4452 421.045 19.0741Z" fill="#E6E6E6"/>
<path d="M435.667 8.57655C436.011 9.2054 436.52 9.41689 436.804 9.04894C437.088 8.681 437.04 7.87296 436.696 7.2441C436.353 6.61525 435.844 6.40374 435.56 6.77169C435.276 7.13963 435.324 7.9477 435.667 8.57655Z" fill="#69C5D7"/>
<path d="M415.492 13.202C416.023 13.287 416.485 12.8949 416.523 12.3263C416.561 11.7578 416.162 11.228 415.631 11.1431C415.1 11.0581 414.639 11.4502 414.601 12.0187C414.562 12.5873 414.962 13.1171 415.492 13.202Z" fill="#3F3D56"/>
<path d="M557.52 8.95901C557.083 9.43111 556.865 10.113 557.033 10.4819C557.202 10.8509 557.692 10.7673 558.129 10.2952C558.566 9.82314 558.784 9.14131 558.615 8.77232C558.447 8.40333 557.957 8.48691 557.52 8.95901Z" fill="#E6E6E6"/>
<path d="M549.921 11.3515C550.234 12.1167 551.067 12.175 551.782 11.4817C552.496 10.7885 552.822 9.60621 552.508 8.84103C552.195 8.07586 551.362 8.01756 550.648 8.71081C549.933 9.40406 549.608 10.5863 549.921 11.3515Z" fill="#E6E6E6"/>
<path d="M516.278 5.16107C516.591 5.92624 517.424 5.98455 518.139 5.2913C518.853 4.59806 519.178 3.41578 518.865 2.6506C518.552 1.88543 517.719 1.82712 517.004 2.52037C516.29 3.21361 515.965 4.39589 516.278 5.16107Z" fill="#6AC5D7"/>
<path d="M532.934 20.8422C533.247 21.6074 534.081 21.6657 534.795 20.9725C535.509 20.2792 535.835 19.0969 535.521 18.3318C535.208 17.5666 534.375 17.5083 533.661 18.2015C532.946 18.8948 532.621 20.077 532.934 20.8422Z" fill="#6AC5D7"/>
<path d="M525.699 18.8407C526.043 19.4696 526.551 19.6811 526.836 19.3131C527.12 18.9452 527.072 18.1371 526.728 17.5083C526.384 16.8794 525.876 16.6679 525.591 17.0359C525.307 17.4038 525.355 18.2119 525.699 18.8407Z" fill="#E6E6E6"/>
<path d="M522.574 8.12928C522.127 8.57762 521.928 9.32941 522.131 9.80845C522.334 10.2875 522.86 10.3124 523.308 9.86404C523.755 9.4157 523.953 8.6639 523.751 8.18486C523.548 7.70582 523.021 7.68094 522.574 8.12928Z" fill="#3F3D56"/>
<path d="M526.85 3.89592C527.163 4.66109 527.996 4.7194 528.711 4.02616C529.425 3.33292 529.75 2.15065 529.437 1.38547C529.124 0.620301 528.291 0.561989 527.576 1.25523C526.862 1.94847 526.537 3.13075 526.85 3.89592Z" fill="#E6E6E6"/>
<path d="M538.39 7.85297C538.703 8.61814 539.536 8.67642 540.251 7.98317C540.965 7.28992 541.291 6.10765 540.977 5.34248C540.664 4.57731 539.831 4.51902 539.117 5.21227C538.402 5.90552 538.077 7.08781 538.39 7.85297Z" fill="#3F3D56"/>
<path d="M554.525 19.3178C554.838 20.083 555.671 20.1413 556.385 19.448C557.1 18.7548 557.425 17.5725 557.112 16.8073C556.798 16.0422 555.965 15.9839 555.251 16.6771C554.537 17.3703 554.211 18.5526 554.525 19.3178Z" fill="#6AC5D7"/>
<path d="M542.144 11.7285C542.296 12.5161 542.647 13.0504 542.928 12.9218C543.208 12.7933 543.312 12.0506 543.16 11.263C543.008 10.4754 542.657 9.94112 542.377 10.0697C542.096 10.1982 541.992 10.9409 542.144 11.7285Z" fill="#E6E6E6"/>
<path d="M546.792 16.6862C547.321 16.578 547.71 16.0309 547.661 15.4642C547.613 14.8976 547.144 14.526 546.615 14.6342C546.086 14.7424 545.697 15.2894 545.745 15.8561C545.794 16.4227 546.263 16.7944 546.792 16.6862Z" fill="#3F3D56"/>
<path d="M517.851 17.1634C518.195 17.7923 518.704 18.0038 518.988 17.6359C519.272 17.2679 519.224 16.4599 518.88 15.831C518.537 15.2022 518.028 14.9907 517.744 15.3586C517.46 15.7265 517.508 16.5346 517.851 17.1634Z" fill="#E6E6E6"/>
<path d="M532.474 6.66591C532.818 7.29476 533.326 7.50624 533.611 7.1383C533.895 6.77035 533.847 5.96231 533.503 5.33346C533.159 4.70461 532.651 4.4931 532.366 4.86104C532.082 5.22899 532.13 6.03706 532.474 6.66591Z" fill="#69C5D7"/>
<path d="M512.299 11.2909C512.83 11.3758 513.291 10.9838 513.33 10.4152C513.368 9.84664 512.969 9.31686 512.438 9.23192C511.907 9.14698 511.446 9.53905 511.407 10.1076C511.369 10.6762 511.768 11.2059 512.299 11.2909Z" fill="#3F3D56"/>
<path d="M645.929 19.4944C646.234 20.2679 647.066 20.3486 647.788 19.6746C648.51 19.0007 648.849 17.8273 648.544 17.0538C648.24 16.2803 647.408 16.1997 646.685 16.8736C645.963 17.5476 645.625 18.7209 645.929 19.4944Z" fill="#E6E6E6"/>
<path d="M595.044 25.2268C595.348 26.0003 596.18 26.081 596.903 25.407C597.625 24.7331 597.963 23.5597 597.659 22.7862C597.354 22.0128 596.522 21.9321 595.8 22.606C595.078 23.28 594.739 24.4533 595.044 25.2268Z" fill="#3F3D56"/>
<path d="M603.731 30.9592C604.036 31.7327 604.868 31.8134 605.59 31.1394C606.313 30.4655 606.651 29.2921 606.347 28.5187C606.042 27.7452 605.21 27.6645 604.488 28.3384C603.765 29.0124 603.427 30.1857 603.731 30.9592Z" fill="#6AC5D7"/>
<path d="M613.142 12.4426C613.446 13.2161 614.279 13.2968 615.001 12.6228C615.723 11.9489 616.062 10.7755 615.757 10.0021C615.453 9.22859 614.62 9.1479 613.898 9.82184C613.176 10.4958 612.837 11.6691 613.142 12.4426Z" fill="#6AC5D7"/>
<path d="M623.933 19.7064C624.27 20.3444 624.776 20.5695 625.064 20.2092C625.353 19.849 625.314 19.0398 624.977 18.4018C624.641 17.7638 624.135 17.5386 623.846 17.8989C623.558 18.2591 623.597 19.0684 623.933 19.7064Z" fill="#E6E6E6"/>
<path d="M628.974 25.5725C629.31 26.2105 629.817 26.4357 630.105 26.0754C630.393 25.7152 630.354 24.906 630.018 24.268C629.682 23.63 629.175 23.4048 628.887 23.7651C628.599 24.1253 628.638 24.9346 628.974 25.5725Z" fill="#3F3D56"/>
<path d="M589.897 18.9398C589.693 19.6993 589.806 20.4919 590.149 20.71C590.492 20.9281 590.936 20.4892 591.139 19.7297C591.343 18.9702 591.23 18.1777 590.887 17.9595C590.544 17.7414 590.1 18.1803 589.897 18.9398Z" fill="#E6E6E6"/>
<path d="M611.446 33.6402C610.993 34.0765 610.786 34.8228 610.984 35.3072C611.181 35.7916 611.707 35.8307 612.159 35.3944C612.612 34.9581 612.819 34.2118 612.622 33.7274C612.424 33.243 611.898 33.2039 611.446 33.6402Z" fill="#3F3D56"/>
<path d="M611.178 23.3157C611.483 24.0891 612.315 24.1698 613.037 23.4959C613.759 22.8219 614.098 21.6486 613.793 20.8751C613.489 20.1016 612.656 20.021 611.934 20.6949C611.212 21.3688 610.874 22.5422 611.178 23.3157Z" fill="#E6E6E6"/>
<path d="M621.256 9.57349C621.561 10.347 622.393 10.4276 623.115 9.75367C623.837 9.07972 624.176 7.90637 623.871 7.1329C623.567 6.35943 622.735 6.27876 622.013 6.95271C621.29 7.62666 620.952 8.80003 621.256 9.57349Z" fill="#3F3D56"/>
<path d="M635.065 14.3357C635.369 15.1091 636.202 15.1898 636.924 14.5159C637.646 13.8419 637.985 12.6686 637.68 11.8951C637.376 11.1217 636.543 11.041 635.821 11.7149C635.099 12.3888 634.76 13.5622 635.065 14.3357Z" fill="#6AC5D7"/>
<path d="M630.124 10.1558C630.654 10.0619 631.049 9.52534 631.007 8.95746C630.964 8.38958 630.5 8.00541 629.97 8.09938C629.44 8.19335 629.044 8.72989 629.087 9.29776C629.129 9.86564 629.593 10.2498 630.124 10.1558Z" fill="#3F3D56"/>
<path d="M604.061 15.0916C604.398 15.7296 604.904 15.9547 605.192 15.5945C605.481 15.2342 605.442 14.425 605.105 13.787C604.769 13.149 604.263 12.9239 603.974 13.2841C603.686 13.6444 603.725 14.4536 604.061 15.0916Z" fill="#E6E6E6"/>
<path d="M618.682 27.6668C619.019 28.3048 619.525 28.5299 619.813 28.1697C620.102 27.8094 620.063 27.0002 619.726 26.3622C619.39 25.7242 618.884 25.4991 618.595 25.8593C618.307 26.2196 618.346 27.0288 618.682 27.6668Z" fill="#69C5D7"/>
<path d="M596.693 15.9767C597.222 16.0759 597.688 15.6963 597.733 15.1289C597.778 14.5614 597.385 14.021 596.855 13.9218C596.325 13.8226 595.859 14.2022 595.815 14.7697C595.77 15.3371 596.163 15.8775 596.693 15.9767Z" fill="#3F3D56"/>
<path d="M642.124 26.3391C642.697 26.1399 643.011 24.9503 642.825 23.682C642.639 22.4138 642.024 21.5471 641.451 21.7463C640.878 21.9455 640.564 23.1351 640.75 24.4033C640.936 25.6716 641.551 26.5382 642.124 26.3391Z" fill="#3F3D56"/>
<path d="M643.032 10.4701C643.531 10.1814 643.831 9.51358 643.7 8.9784C643.57 8.44321 643.059 8.24335 642.559 8.53201C642.06 8.82068 641.76 9.48855 641.891 10.0237C642.021 10.5589 642.532 10.7588 643.032 10.4701Z" fill="#3F3D56"/>
<path d="M657.991 38.8442C658.428 38.3721 658.645 37.6903 658.477 37.3213C658.309 36.9523 657.818 37.0359 657.382 37.508C656.945 37.9801 656.727 38.6619 656.895 39.0309C657.064 39.3999 657.554 39.3163 657.991 38.8442Z" fill="#E6E6E6"/>
<path d="M654.377 30.7374C654.063 29.9722 653.23 29.9139 652.516 30.6071C651.801 31.3004 651.476 32.4827 651.789 33.2478C652.103 34.013 652.936 34.0713 653.65 33.3781C654.365 32.6848 654.69 31.5025 654.377 30.7374Z" fill="#E6E6E6"/>
<path d="M688.02 36.9283C687.707 36.1631 686.874 36.1048 686.159 36.7981C685.445 37.4913 685.12 38.6736 685.433 39.4388C685.746 40.2039 686.579 40.2622 687.294 39.569C688.008 38.8757 688.333 37.6935 688.02 36.9283Z" fill="#6AC5D7"/>
<path d="M671.364 21.2471C671.05 20.482 670.217 20.4237 669.503 21.1169C668.788 21.8101 668.463 22.9924 668.776 23.7576C669.09 24.5228 669.923 24.5811 670.637 23.8878C671.352 23.1946 671.677 22.0123 671.364 21.2471Z" fill="#6AC5D7"/>
<path d="M678.599 23.2481C678.255 22.6193 677.746 22.4078 677.462 22.7757C677.178 23.1437 677.226 23.9517 677.57 24.5806C677.913 25.2094 678.422 25.421 678.706 25.053C678.991 24.6851 678.942 23.877 678.599 23.2481Z" fill="#E6E6E6"/>
<path d="M681.724 33.9601C682.171 33.5117 682.369 32.7599 682.167 32.2809C681.964 31.8019 681.437 31.777 680.99 32.2253C680.543 32.6737 680.345 33.4255 680.547 33.9045C680.75 34.3835 681.276 34.4084 681.724 33.9601Z" fill="#3F3D56"/>
<path d="M677.448 38.1934C677.135 37.4283 676.301 37.37 675.587 38.0632C674.873 38.7564 674.547 39.9387 674.861 40.7039C675.174 41.4691 676.007 41.5274 676.721 40.8341C677.436 40.1409 677.761 38.9586 677.448 38.1934Z" fill="#E6E6E6"/>
<path d="M663.476 39.335C663.163 38.5698 662.33 38.5116 661.615 39.2048C660.901 39.8981 660.576 41.0803 660.889 41.8455C661.202 42.6107 662.035 42.669 662.75 41.9757C663.464 41.2825 663.789 40.1002 663.476 39.335Z" fill="#3F3D56"/>
<path d="M657.312 13.1822C656.998 12.417 656.165 12.3587 655.451 13.052C654.737 13.7452 654.411 14.9275 654.725 15.6927C655.038 16.4578 655.871 16.5161 656.585 15.8229C657.3 15.1297 657.625 13.9474 657.312 13.1822Z" fill="#6AC5D7"/>
<path d="M662.154 30.3609C662.002 29.5733 661.651 29.039 661.37 29.1675C661.089 29.2961 660.985 30.0388 661.137 30.8264C661.29 31.614 661.641 32.1482 661.921 32.0197C662.202 31.8911 662.306 31.1485 662.154 30.3609Z" fill="#E6E6E6"/>
<path d="M660.328 19.8934C659.798 20.0016 659.409 20.5487 659.458 21.1153C659.507 21.682 659.975 22.0536 660.505 21.9454C661.034 21.8372 661.423 21.2902 661.374 20.7235C661.325 20.1569 660.857 19.7852 660.328 19.8934Z" fill="#3F3D56"/>
<path d="M686.447 24.9259C686.103 24.2971 685.594 24.0856 685.31 24.4535C685.026 24.8214 685.074 25.6295 685.418 26.2583C685.761 26.8872 686.27 27.0987 686.554 26.7308C686.838 26.3628 686.79 25.5548 686.447 24.9259Z" fill="#E6E6E6"/>
<path d="M671.824 35.4234C671.48 34.7946 670.971 34.5831 670.687 34.9511C670.403 35.319 670.451 36.127 670.795 36.7559C671.138 37.3847 671.647 37.5963 671.931 37.2283C672.216 36.8604 672.167 36.0523 671.824 35.4234Z" fill="#69C5D7"/>
<path d="M691.999 30.798C691.468 30.713 691.006 31.1051 690.968 31.6737C690.93 32.2422 691.329 32.772 691.86 32.8569C692.391 32.9419 692.852 32.5498 692.891 31.9813C692.929 31.4127 692.53 30.8829 691.999 30.798Z" fill="#3F3D56"/>
<path d="M549.971 35.041C550.408 34.5689 550.626 33.887 550.458 33.5181C550.289 33.1491 549.799 33.2327 549.362 33.7048C548.925 34.1769 548.708 34.8587 548.876 35.2277C549.044 35.5967 549.534 35.5131 549.971 35.041Z" fill="#E6E6E6"/>
<path d="M557.57 32.6485C557.257 31.8833 556.424 31.825 555.709 32.5183C554.995 33.2115 554.67 34.3938 554.983 35.159C555.296 35.9241 556.129 35.9824 556.844 35.2892C557.558 34.5959 557.883 33.4137 557.57 32.6485Z" fill="#E6E6E6"/>
<path d="M591.213 38.8389C590.9 38.0738 590.067 38.0155 589.353 38.7087C588.638 39.4019 588.313 40.5842 588.626 41.3494C588.939 42.1146 589.773 42.1729 590.487 41.4796C591.201 40.7864 591.527 39.6041 591.213 38.8389Z" fill="#6AC5D7"/>
<path d="M574.557 23.1578C574.244 22.3926 573.411 22.3343 572.696 23.0275C571.982 23.7208 571.656 24.9031 571.97 25.6682C572.283 26.4334 573.116 26.4917 573.83 25.7985C574.545 25.1052 574.87 23.923 574.557 23.1578Z" fill="#6AC5D7"/>
<path d="M581.792 25.1593C581.449 24.5304 580.94 24.3189 580.656 24.6869C580.371 25.0548 580.42 25.8629 580.763 26.4917C581.107 27.1206 581.616 27.3321 581.9 26.9641C582.184 26.5962 582.136 25.7881 581.792 25.1593Z" fill="#E6E6E6"/>
<path d="M584.917 35.8707C585.364 35.4224 585.563 34.6706 585.36 34.1916C585.158 33.7125 584.631 33.6876 584.183 34.136C583.736 34.5843 583.538 35.3361 583.74 35.8151C583.943 36.2942 584.47 36.3191 584.917 35.8707Z" fill="#3F3D56"/>
<path d="M580.641 40.1041C580.328 39.3389 579.495 39.2806 578.78 39.9738C578.066 40.6671 577.741 41.8494 578.054 42.6145C578.367 43.3797 579.2 43.438 579.915 42.7448C580.629 42.0515 580.954 40.8692 580.641 40.1041Z" fill="#E6E6E6"/>
<path d="M569.101 36.147C568.788 35.3819 567.955 35.3236 567.24 36.0168C566.526 36.7101 566.201 37.8924 566.514 38.6575C566.827 39.4227 567.66 39.481 568.375 38.7877C569.089 38.0945 569.414 36.9122 569.101 36.147Z" fill="#3F3D56"/>
<path d="M552.967 24.6822C552.653 23.917 551.82 23.8587 551.106 24.552C550.391 25.2452 550.066 26.4275 550.379 27.1927C550.693 27.9578 551.526 28.0161 552.24 27.3229C552.955 26.6297 553.28 25.4474 552.967 24.6822Z" fill="#6AC5D7"/>
<path d="M565.347 32.2715C565.195 31.4839 564.844 30.9496 564.563 31.0782C564.283 31.2067 564.179 31.9494 564.331 32.737C564.483 33.5246 564.834 34.0589 565.115 33.9303C565.395 33.8018 565.499 33.0591 565.347 32.2715Z" fill="#E6E6E6"/>
<path d="M560.699 27.3138C560.17 27.422 559.781 27.9691 559.83 28.5358C559.879 29.1024 560.347 29.474 560.876 29.3658C561.405 29.2576 561.795 28.7106 561.746 28.1439C561.697 27.5773 561.228 27.2056 560.699 27.3138Z" fill="#3F3D56"/>
<path d="M589.64 26.8366C589.296 26.2077 588.787 25.9962 588.503 26.3641C588.219 26.7321 588.267 27.5401 588.611 28.169C588.954 28.7978 589.463 29.0093 589.747 28.6414C590.032 28.2735 589.983 27.4654 589.64 26.8366Z" fill="#E6E6E6"/>
<path d="M575.017 37.3341C574.674 36.7052 574.165 36.4938 573.881 36.8617C573.596 37.2296 573.645 38.0377 573.988 38.6665C574.332 39.2954 574.841 39.5069 575.125 39.139C575.409 38.771 575.361 37.9629 575.017 37.3341Z" fill="#69C5D7"/>
<path d="M595.192 32.7091C594.661 32.6242 594.2 33.0162 594.161 33.5848C594.123 34.1534 594.522 34.6831 595.053 34.7681C595.584 34.853 596.045 34.461 596.084 33.8924C596.122 33.3238 595.723 32.7941 595.192 32.7091Z" fill="#3F3D56"/>
<path d="M729.642 30.238C729.337 29.4646 728.505 29.3839 727.783 30.0578C727.061 30.7318 726.722 31.9051 727.027 32.6786C727.331 33.4521 728.164 33.5328 728.886 32.8588C729.608 32.1849 729.946 31.0115 729.642 30.238Z" fill="#E6E6E6"/>
<path d="M780.527 24.5056C780.223 23.7321 779.391 23.6515 778.668 24.3254C777.946 24.9994 777.608 26.1727 777.912 26.9462C778.217 27.7197 779.049 27.8003 779.771 27.1264C780.493 26.4524 780.832 25.2791 780.527 24.5056Z" fill="#3F3D56"/>
<path d="M771.84 18.7732C771.535 17.9997 770.703 17.919 769.981 18.593C769.259 19.2669 768.92 20.4403 769.225 21.2138C769.529 21.9872 770.361 22.0679 771.083 21.394C771.806 20.72 772.144 19.5467 771.84 18.7732Z" fill="#6AC5D7"/>
<path d="M762.429 37.2898C762.125 36.5163 761.292 36.4356 760.57 37.1096C759.848 37.7835 759.509 38.9569 759.814 39.7304C760.118 40.5038 760.951 40.5845 761.673 39.9106C762.395 39.2366 762.734 38.0633 762.429 37.2898Z" fill="#6AC5D7"/>
<path d="M751.638 30.0261C751.301 29.3881 750.795 29.1629 750.507 29.5232C750.218 29.8834 750.257 30.6927 750.594 31.3307C750.93 31.9686 751.437 32.1938 751.725 31.8335C752.013 31.4733 751.974 30.664 751.638 30.0261Z" fill="#E6E6E6"/>
<path d="M746.597 24.1599C746.261 23.5219 745.754 23.2967 745.466 23.657C745.178 24.0172 745.217 24.8265 745.553 25.4645C745.89 26.1024 746.396 26.3276 746.684 25.9673C746.972 25.6071 746.933 24.7979 746.597 24.1599Z" fill="#3F3D56"/>
<path d="M785.675 30.7931C785.878 30.0336 785.765 29.2411 785.422 29.0229C785.079 28.8048 784.635 29.2437 784.432 30.0032C784.228 30.7627 784.341 31.5553 784.684 31.7734C785.028 31.9915 785.471 31.5526 785.675 30.7931Z" fill="#E6E6E6"/>
<path d="M764.125 16.0922C764.578 15.656 764.785 14.9096 764.588 14.4252C764.39 13.9408 763.864 13.9018 763.412 14.338C762.959 14.7743 762.753 15.5206 762.95 16.005C763.147 16.4895 763.673 16.5285 764.125 16.0922Z" fill="#3F3D56"/>
<path d="M764.393 26.4168C764.089 25.6433 763.256 25.5626 762.534 26.2365C761.812 26.9105 761.473 28.0838 761.778 28.8573C762.082 29.6308 762.915 29.7115 763.637 29.0375C764.359 28.3636 764.698 27.1902 764.393 26.4168Z" fill="#E6E6E6"/>
<path d="M754.315 40.1589C754.01 39.3855 753.178 39.3048 752.456 39.9787C751.734 40.6527 751.395 41.8261 751.7 42.5995C752.004 43.373 752.836 43.4537 753.559 42.7797C754.281 42.1058 754.619 40.9324 754.315 40.1589Z" fill="#3F3D56"/>
<path d="M740.506 35.3967C740.202 34.6233 739.369 34.5426 738.647 35.2165C737.925 35.8905 737.586 37.0638 737.891 37.8373C738.196 38.6108 739.028 38.6915 739.75 38.0175C740.472 37.3436 740.811 36.1702 740.506 35.3967Z" fill="#6AC5D7"/>
<path d="M745.448 39.5766C744.917 39.6705 744.522 40.2071 744.564 40.775C744.607 41.3428 745.071 41.727 745.601 41.633C746.132 41.5391 746.527 41.0025 746.485 40.4347C746.442 39.8668 745.978 39.4826 745.448 39.5766Z" fill="#3F3D56"/>
<path d="M771.51 34.6408C771.173 34.0029 770.667 33.7777 770.379 34.1379C770.09 34.4982 770.129 35.3074 770.466 35.9454C770.802 36.5834 771.309 36.8085 771.597 36.4483C771.885 36.088 771.846 35.2788 771.51 34.6408Z" fill="#E6E6E6"/>
<path d="M756.889 22.0656C756.552 21.4276 756.046 21.2025 755.758 21.5628C755.469 21.923 755.508 22.7322 755.845 23.3702C756.181 24.0082 756.688 24.2334 756.976 23.8731C757.264 23.5128 757.225 22.7036 756.889 22.0656Z" fill="#69C5D7"/>
<path d="M778.878 33.7557C778.349 33.6565 777.883 34.0361 777.838 34.6036C777.793 35.171 778.186 35.7114 778.716 35.8106C779.246 35.9098 779.712 35.5302 779.757 34.9628C779.801 34.3953 779.408 33.8549 778.878 33.7557Z" fill="#3F3D56"/>
<path d="M733.447 23.3934C732.874 23.5925 732.56 24.7822 732.746 26.0504C732.932 27.3187 733.547 28.1853 734.12 27.9861C734.693 27.787 735.007 26.5974 734.821 25.3291C734.635 24.0609 734.02 23.1942 733.447 23.3934Z" fill="#3F3D56"/>
<path d="M732.54 39.2623C732.04 39.551 731.74 40.2188 731.871 40.754C732.001 41.2892 732.512 41.4891 733.012 41.2004C733.512 40.9117 733.811 40.2439 733.68 39.7087C733.55 39.1735 733.039 38.9737 732.54 39.2623Z" fill="#3F3D56"/>
<path d="M717.58 10.8882C717.143 11.3603 716.926 12.0421 717.094 12.4111C717.262 12.7801 717.753 12.6965 718.189 12.2244C718.626 11.7523 718.844 11.0705 718.676 10.7015C718.508 10.3325 718.017 10.4161 717.58 10.8882Z" fill="#E6E6E6"/>
<path d="M721.194 18.9951C721.508 19.7602 722.341 19.8185 723.055 19.1253C723.77 18.432 724.095 17.2498 723.782 16.4846C723.468 15.7194 722.635 15.6611 721.921 16.3544C721.206 17.0476 720.881 18.2299 721.194 18.9951Z" fill="#E6E6E6"/>
<path d="M687.551 12.8041C687.864 13.5693 688.697 13.6276 689.412 12.9344C690.126 12.2411 690.452 11.0588 690.138 10.2937C689.825 9.5285 688.992 9.47019 688.278 10.1634C687.563 10.8567 687.238 12.039 687.551 12.8041Z" fill="#6AC5D7"/>
<path d="M704.208 28.4853C704.521 29.2505 705.354 29.3088 706.068 28.6155C706.783 27.9223 707.108 26.74 706.795 25.9748C706.481 25.2096 705.648 25.1513 704.934 25.8446C704.22 26.5378 703.894 27.7201 704.208 28.4853Z" fill="#6AC5D7"/>
<path d="M696.972 26.4843C697.316 27.1131 697.825 27.3246 698.109 26.9567C698.393 26.5887 698.345 25.7807 698.001 25.1518C697.658 24.523 697.149 24.3115 696.865 24.6794C696.581 25.0473 696.629 25.8554 696.972 26.4843Z" fill="#E6E6E6"/>
<path d="M693.847 15.7723C693.4 16.2207 693.202 16.9725 693.404 17.4515C693.607 17.9306 694.134 17.9554 694.581 17.5071C695.028 17.0588 695.227 16.307 695.024 15.8279C694.821 15.3489 694.295 15.324 693.847 15.7723Z" fill="#3F3D56"/>
<path d="M698.123 11.539C698.437 12.3042 699.27 12.3625 699.984 11.6692C700.699 10.976 701.024 9.79371 700.711 9.02854C700.397 8.26337 699.564 8.20506 698.85 8.8983C698.135 9.59154 697.81 10.7738 698.123 11.539Z" fill="#E6E6E6"/>
<path d="M712.095 10.3974C712.408 11.1626 713.241 11.2209 713.956 10.5276C714.67 9.83435 714.995 8.65208 714.682 7.88692C714.369 7.12175 713.536 7.06345 712.821 7.7567C712.107 8.44996 711.782 9.63224 712.095 10.3974Z" fill="#3F3D56"/>
<path d="M718.259 36.5507C718.573 37.3159 719.406 37.3742 720.12 36.6809C720.835 35.9877 721.16 34.8054 720.847 34.0403C720.533 33.2751 719.7 33.2168 718.986 33.91C718.271 34.6033 717.946 35.7855 718.259 36.5507Z" fill="#6AC5D7"/>
<path d="M713.417 19.3716C713.569 20.1592 713.92 20.6934 714.201 20.5649C714.482 20.4363 714.586 19.6937 714.434 18.9061C714.281 18.1185 713.931 17.5842 713.65 17.7127C713.369 17.8413 713.265 18.584 713.417 19.3716Z" fill="#E6E6E6"/>
<path d="M715.244 29.839C715.773 29.7308 716.162 29.1837 716.113 28.6171C716.064 28.0504 715.596 27.6788 715.067 27.787C714.537 27.8952 714.148 28.4423 714.197 29.0089C714.246 29.5756 714.715 29.9472 715.244 29.839Z" fill="#3F3D56"/>
<path d="M689.125 24.8065C689.468 25.4354 689.977 25.6469 690.261 25.2789C690.545 24.911 690.497 24.1029 690.154 23.4741C689.81 22.8452 689.301 22.6337 689.017 23.0017C688.733 23.3696 688.781 24.1777 689.125 24.8065Z" fill="#E6E6E6"/>
<path d="M703.747 14.309C704.091 14.9378 704.6 15.1493 704.884 14.7814C705.168 14.4134 705.12 13.6054 704.776 12.9765C704.433 12.3477 703.924 12.1362 703.64 12.5041C703.356 12.8721 703.404 13.6801 703.747 14.309Z" fill="#69C5D7"/>
<path d="M683.572 18.9344C684.103 19.0194 684.565 18.6273 684.603 18.0588C684.641 17.4902 684.242 16.9604 683.711 16.8755C683.181 16.7905 682.719 17.1826 682.681 17.7512C682.642 18.3197 683.042 18.8495 683.572 18.9344Z" fill="#3F3D56"/>
<path d="M825.6 14.6914C825.163 15.1635 824.945 15.8454 825.113 16.2144C825.282 16.5834 825.772 16.4998 826.209 16.0277C826.646 15.5556 826.864 14.8737 826.695 14.5047C826.527 14.1357 826.037 14.2193 825.6 14.6914Z" fill="#E6E6E6"/>
<path d="M818.001 17.0839C818.314 17.8491 819.147 17.9074 819.862 17.2142C820.576 16.5209 820.902 15.3386 820.588 14.5735C820.275 13.8083 819.442 13.75 818.728 14.4432C818.013 15.1365 817.688 16.3188 818.001 17.0839Z" fill="#E6E6E6"/>
<path d="M784.358 10.8935C784.671 11.6587 785.504 11.717 786.219 11.0237C786.933 10.3305 787.258 9.1482 786.945 8.38303C786.632 7.61785 785.799 7.55954 785.084 8.25279C784.37 8.94604 784.045 10.1283 784.358 10.8935Z" fill="#6AC5D7"/>
<path d="M801.014 26.5746C801.327 27.3398 802.161 27.3981 802.875 26.7049C803.589 26.0116 803.915 24.8294 803.601 24.0642C803.288 23.299 802.455 23.2407 801.741 23.9339C801.026 24.6272 800.701 25.8095 801.014 26.5746Z" fill="#6AC5D7"/>
<path d="M793.779 24.5731C794.123 25.202 794.631 25.4135 794.916 25.0456C795.2 24.6776 795.152 23.8695 794.808 23.2407C794.464 22.6118 793.956 22.4003 793.671 22.7683C793.387 23.1362 793.436 23.9443 793.779 24.5731Z" fill="#E6E6E6"/>
<path d="M790.654 13.8617C790.207 14.31 790.008 15.0618 790.211 15.5409C790.414 16.0199 790.94 16.0448 791.388 15.5965C791.835 15.1481 792.033 14.3963 791.831 13.9173C791.628 13.4382 791.101 13.4134 790.654 13.8617Z" fill="#3F3D56"/>
<path d="M794.93 9.62834C795.243 10.3935 796.076 10.4518 796.791 9.75858C797.505 9.06534 797.83 7.88307 797.517 7.1179C797.204 6.35272 796.371 6.29441 795.656 6.98765C794.942 7.68089 794.617 8.86317 794.93 9.62834Z" fill="#E6E6E6"/>
<path d="M806.47 13.5854C806.783 14.3506 807.616 14.4088 808.331 13.7156C809.045 13.0223 809.371 11.8401 809.057 11.0749C808.744 10.3097 807.911 10.2514 807.197 10.9447C806.482 11.6379 806.157 12.8202 806.47 13.5854Z" fill="#3F3D56"/>
<path d="M822.605 25.0502C822.918 25.8154 823.751 25.8737 824.465 25.1804C825.18 24.4872 825.505 23.3049 825.192 22.5398C824.879 21.7746 824.045 21.7163 823.331 22.4095C822.617 23.1028 822.291 24.285 822.605 25.0502Z" fill="#6AC5D7"/>
<path d="M810.224 17.4609C810.376 18.2485 810.727 18.7828 811.008 18.6542C811.288 18.5257 811.393 17.783 811.24 16.9954C811.088 16.2078 810.737 15.6735 810.457 15.8021C810.176 15.9306 810.072 16.6733 810.224 17.4609Z" fill="#E6E6E6"/>
<path d="M814.872 22.4186C815.401 22.3104 815.79 21.7633 815.741 21.1967C815.693 20.63 815.224 20.2584 814.695 20.3666C814.166 20.4748 813.777 21.0219 813.825 21.5885C813.874 22.1552 814.343 22.5268 814.872 22.4186Z" fill="#3F3D56"/>
<path d="M785.931 22.8959C786.275 23.5247 786.784 23.7362 787.068 23.3683C787.352 23.0003 787.304 22.1923 786.96 21.5634C786.617 20.9346 786.108 20.7231 785.824 21.091C785.54 21.459 785.588 22.267 785.931 22.8959Z" fill="#E6E6E6"/>
<path d="M800.554 12.3983C800.897 13.0272 801.406 13.2387 801.69 12.8707C801.975 12.5028 801.926 11.6947 801.583 11.0659C801.239 10.437 800.731 10.2255 800.446 10.5935C800.162 10.9614 800.21 11.7695 800.554 12.3983Z" fill="#69C5D7"/>
<path d="M780.379 17.0233C780.91 17.1082 781.371 16.7162 781.41 16.1476C781.448 15.5791 781.049 15.0493 780.518 14.9643C779.987 14.8794 779.526 15.2715 779.487 15.84C779.449 16.4086 779.848 16.9384 780.379 17.0233Z" fill="#3F3D56"/>
</svg>
