<svg width="827" height="44" fill="none" xmlns="http://www.w3.org/2000/svg"><path d="M97.358 15.673c.305.774 1.137.854 1.859.18.722-.674 1.061-1.847.756-2.62-.304-.774-1.136-.855-1.859-.18-.722.673-1.06 1.847-.756 2.62z" fill="#E6E6E6"/><path d="M46.472 21.405c.305.774 1.137.855 1.86.18.722-.673 1.06-1.847.756-2.62-.305-.773-1.137-.854-1.86-.18-.721.674-1.06 1.847-.756 2.62z" fill="#3F3D56"/><path d="M55.16 27.138c.305.773 1.137.854 1.86.18.721-.674 1.06-1.847.755-2.62-.304-.774-1.136-.855-1.858-.18-.723.673-1.061 1.846-.757 2.62zM64.57 8.621c.305.774 1.138.854 1.86.18.722-.673 1.06-1.847.756-2.62-.305-.774-1.137-.854-1.859-.18-.722.673-1.06 1.847-.756 2.62z" fill="#6AC5D7"/><path d="M75.362 15.885c.337.638.843.863 1.131.503.289-.36.25-1.17-.087-1.808-.336-.637-.843-.863-1.13-.502-.289.36-.25 1.17.086 1.807z" fill="#E6E6E6"/><path d="M80.403 21.751c.336.638.843.863 1.13.503.29-.36.25-1.17-.086-1.807-.337-.638-.843-.863-1.131-.503-.288.36-.25 1.17.087 1.807z" fill="#3F3D56"/><path d="M41.325 15.118c-.203.76-.09 1.552.253 1.77.343.218.787-.22.99-.98.204-.76.09-1.552-.252-1.77-.344-.218-.787.22-.99.98z" fill="#E6E6E6"/><path d="M62.874 29.819c-.452.436-.659 1.183-.462 1.667.198.484.724.523 1.176.087.453-.436.66-1.183.462-1.667-.197-.484-.723-.523-1.175-.087z" fill="#3F3D56"/><path d="M62.607 19.494c.304.774 1.137.855 1.859.18.722-.673 1.06-1.847.756-2.62-.304-.774-1.137-.854-1.859-.18-.722.674-1.06 1.847-.756 2.62z" fill="#E6E6E6"/><path d="M72.685 5.752c.305.774 1.137.854 1.86.18.721-.674 1.06-1.847.755-2.62-.304-.774-1.136-.855-1.859-.18-.722.673-1.06 1.847-.756 2.62z" fill="#3F3D56"/><path d="M86.494 10.514c.304.774 1.137.854 1.859.18.722-.673 1.06-1.847.756-2.62-.304-.774-1.137-.854-1.859-.18-.722.674-1.06 1.847-.756 2.62z" fill="#6AC5D7"/><path d="M81.552 6.334c.53-.094.926-.63.884-1.198-.043-.568-.507-.952-1.037-.858-.53.094-.926.63-.883 1.198.042.568.506.952 1.036.858z" fill="#3F3D56"/><path d="M55.49 11.27c.337.638.843.863 1.131.503.288-.36.25-1.17-.087-1.807-.336-.638-.843-.863-1.13-.503-.29.36-.25 1.17.086 1.807z" fill="#E6E6E6"/><path d="M70.111 23.846c.337.637.843.863 1.131.502.288-.36.25-1.17-.087-1.807-.336-.638-.843-.863-1.13-.503-.29.36-.25 1.17.086 1.808z" fill="#69C5D7"/><path d="M48.121 12.155c.53.1.996-.28 1.041-.847.045-.568-.348-1.108-.878-1.207-.53-.1-.996.28-1.04.847-.045.568.348 1.108.877 1.207zM93.553 22.518c.573-.2.887-1.389.701-2.657-.186-1.268-.801-2.135-1.374-1.936-.573.2-.887 1.389-.701 2.657.186 1.268.801 2.135 1.374 1.936zM94.46 6.649c.5-.289.8-.957.67-1.492-.131-.535-.642-.735-1.142-.446-.5.288-.799.956-.668 1.491.13.536.64.735 1.14.447z" fill="#3F3D56"/><path d="M109.42 35.023c.437-.472.654-1.154.486-1.523-.168-.369-.659-.285-1.095.187-.437.472-.655 1.154-.487 1.523.168.369.659.285 1.096-.187zM105.806 26.916c-.314-.765-1.147-.823-1.861-.13-.715.693-1.04 1.875-.727 2.64.314.766 1.147.824 1.861.13.715-.693 1.04-1.875.727-2.64z" fill="#E6E6E6"/><path d="M139.449 33.107c-.313-.765-1.146-.824-1.861-.13-.714.693-1.04 1.875-.726 2.64.313.766 1.146.824 1.86.13.715-.693 1.04-1.875.727-2.64zM122.792 17.426c-.313-.765-1.146-.824-1.86-.13-.715.693-1.04 1.875-.727 2.64.314.765 1.147.824 1.861.13.714-.693 1.04-1.875.726-2.64z" fill="#6AC5D7"/><path d="M130.028 19.427c-.344-.629-.853-.84-1.137-.473-.284.368-.236 1.177.108 1.805.343.63.852.84 1.136.473.284-.368.236-1.176-.107-1.805z" fill="#E6E6E6"/><path d="M133.153 30.139c.447-.449.645-1.2.443-1.68-.203-.478-.73-.503-1.177-.055-.447.448-.646 1.2-.443 1.68.203.478.729.503 1.177.055z" fill="#3F3D56"/><path d="M128.877 34.372c-.314-.765-1.147-.823-1.861-.13-.715.693-1.04 1.875-.727 2.64.314.766 1.147.824 1.861.13.715-.692 1.04-1.875.727-2.64z" fill="#E6E6E6"/><path d="M114.905 35.514c-.313-.765-1.146-.824-1.861-.13-.714.693-1.039 1.875-.726 2.64.313.765 1.146.824 1.861.13.714-.693 1.039-1.875.726-2.64z" fill="#3F3D56"/><path d="M108.741 9.36c-.314-.765-1.147-.823-1.861-.13-.715.693-1.04 1.876-.727 2.64.314.766 1.147.824 1.861.131.715-.693 1.04-1.875.727-2.64z" fill="#6AC5D7"/><path d="M113.583 26.54c-.152-.788-.503-1.322-.784-1.194-.281.129-.385.872-.233 1.66.152.787.503 1.32.784 1.192.281-.128.385-.87.233-1.658z" fill="#E6E6E6"/><path d="M111.756 16.072c-.529.108-.918.655-.869 1.222.049.567.517.938 1.046.83.53-.108.919-.655.87-1.222-.049-.566-.518-.938-1.047-.83z" fill="#3F3D56"/><path d="M137.875 21.105c-.343-.63-.852-.84-1.136-.473-.284.368-.236 1.176.107 1.805.344.629.853.84 1.137.473.284-.369.236-1.177-.108-1.805z" fill="#E6E6E6"/><path d="M123.253 31.602c-.344-.629-.853-.84-1.137-.472-.284.368-.236 1.176.108 1.805.343.628.852.84 1.136.472.284-.368.236-1.176-.107-1.805z" fill="#69C5D7"/><path d="M143.428 26.977c-.531-.085-.993.307-1.031.875-.038.569.361 1.099.892 1.184.53.085.992-.308 1.03-.876.039-.569-.361-1.098-.891-1.183z" fill="#3F3D56"/><path d="M1.4 31.22c.437-.472.655-1.154.487-1.523-.169-.37-.66-.286-1.096.187-.437.472-.655 1.153-.486 1.522.168.37.658.286 1.095-.186zM8.999 28.827c-.313-.765-1.146-.823-1.86-.13-.715.693-1.04 1.876-.727 2.64.313.766 1.146.824 1.86.13.715-.692 1.04-1.875.727-2.64z" fill="#E6E6E6"/><path d="M42.642 35.018c-.313-.766-1.146-.824-1.86-.13-.715.693-1.04 1.875-.727 2.64.313.765 1.146.824 1.86.13.715-.693 1.04-1.875.727-2.64zM25.986 19.337c-.314-.766-1.146-.824-1.861-.13-.714.692-1.04 1.875-.726 2.64.313.765 1.146.823 1.86.13.715-.693 1.04-1.875.727-2.64z" fill="#6AC5D7"/><path d="M33.22 21.338c-.343-.629-.851-.84-1.136-.472-.284.367-.236 1.176.108 1.804.343.63.852.84 1.136.473.285-.368.236-1.176-.107-1.805z" fill="#E6E6E6"/><path d="M36.346 32.05c.447-.449.646-1.2.443-1.68-.203-.479-.73-.504-1.177-.055-.447.448-.645 1.2-.443 1.679.203.479.73.504 1.177.055z" fill="#3F3D56"/><path d="M32.07 36.283c-.313-.765-1.146-.824-1.86-.13-.715.693-1.04 1.875-.727 2.64.313.765 1.146.824 1.86.13.715-.693 1.04-1.875.727-2.64z" fill="#E6E6E6"/><path d="M20.53 32.326c-.313-.765-1.146-.824-1.86-.13-.715.693-1.04 1.875-.727 2.64.313.765 1.146.824 1.86.13.715-.693 1.04-1.875.727-2.64z" fill="#3F3D56"/><path d="M4.395 20.86c-.313-.764-1.146-.823-1.86-.13-.715.694-1.04 1.876-.727 2.641.314.766 1.147.824 1.861.13.714-.693 1.04-1.875.726-2.64z" fill="#6AC5D7"/><path d="M16.776 28.45c-.152-.787-.503-1.322-.784-1.193-.28.128-.385.871-.232 1.659.152.787.503 1.322.783 1.193.281-.129.385-.871.233-1.659z" fill="#E6E6E6"/><path d="M12.128 23.492c-.53.109-.918.656-.87 1.223.05.566.518.938 1.047.83.53-.109.918-.656.87-1.222-.05-.567-.518-.939-1.047-.83z" fill="#3F3D56"/><path d="M41.069 23.015c-.344-.629-.853-.84-1.137-.472-.284.368-.236 1.176.108 1.805.343.629.852.84 1.136.472.285-.368.236-1.176-.107-1.805z" fill="#E6E6E6"/><path d="M26.446 33.513c-.344-.629-.852-.84-1.137-.473-.284.368-.236 1.176.108 1.805.344.63.852.84 1.137.473.284-.368.236-1.176-.108-1.805z" fill="#69C5D7"/><path d="M46.621 28.888c-.53-.085-.992.307-1.03.875-.04.57.36 1.099.891 1.184.53.085.992-.307 1.03-.876.039-.569-.36-1.098-.891-1.183z" fill="#3F3D56"/><path d="M181.071 26.417c-.305-.774-1.137-.854-1.859-.18-.722.674-1.061 1.847-.756 2.62.304.774 1.136.855 1.859.18.722-.673 1.06-1.847.756-2.62z" fill="#E6E6E6"/><path d="M231.956 20.684c-.304-.773-1.136-.854-1.859-.18-.722.674-1.06 1.847-.756 2.62.305.774 1.137.855 1.859.181.722-.674 1.061-1.847.756-2.62z" fill="#3F3D56"/><path d="M223.269 14.952c-.305-.774-1.137-.854-1.859-.18-.723.674-1.061 1.847-.757 2.62.305.774 1.137.855 1.859.18.723-.673 1.061-1.847.757-2.62zM213.858 33.468c-.304-.773-1.137-.854-1.859-.18-.722.674-1.061 1.848-.756 2.621.304.773 1.137.854 1.859.18.722-.674 1.061-1.847.756-2.62z" fill="#6AC5D7"/><path d="M203.067 26.205c-.337-.638-.843-.863-1.131-.503-.289.36-.25 1.17.087 1.807.336.638.842.863 1.131.503.288-.36.249-1.17-.087-1.807z" fill="#E6E6E6"/><path d="M198.026 20.339c-.336-.638-.843-.863-1.131-.503-.288.36-.249 1.17.087 1.807.336.638.843.863 1.131.503.288-.36.249-1.17-.087-1.807z" fill="#3F3D56"/><path d="M237.103 26.971c.204-.76.091-1.552-.252-1.77-.343-.218-.787.22-.99.98-.204.76-.091 1.552.252 1.77.343.219.787-.22.99-.98z" fill="#E6E6E6"/><path d="M215.554 12.27c.453-.435.66-1.182.462-1.666-.197-.484-.723-.523-1.175-.087-.453.436-.66 1.182-.462 1.667.197.484.723.523 1.175.087z" fill="#3F3D56"/><path d="M215.822 22.596c-.305-.774-1.137-.855-1.859-.18-.722.673-1.061 1.846-.756 2.62.304.773 1.137.854 1.859.18.722-.674 1.06-1.847.756-2.62z" fill="#E6E6E6"/><path d="M205.744 36.338c-.305-.774-1.137-.855-1.859-.18-.722.673-1.061 1.847-.756 2.62.304.774 1.136.854 1.858.18.723-.673 1.061-1.847.757-2.62z" fill="#3F3D56"/><path d="M191.935 31.576c-.304-.774-1.137-.855-1.859-.18-.722.673-1.061 1.846-.756 2.62.304.773 1.137.854 1.859.18.722-.674 1.061-1.847.756-2.62z" fill="#6AC5D7"/><path d="M196.876 35.755c-.53.094-.925.63-.883 1.199.043.568.507.952 1.037.858.53-.094.926-.63.883-1.199-.042-.568-.506-.952-1.037-.858z" fill="#3F3D56"/><path d="M222.939 30.82c-.337-.638-.843-.864-1.131-.503-.289.36-.25 1.17.087 1.807.336.638.842.863 1.131.503.288-.36.249-1.17-.087-1.807z" fill="#E6E6E6"/><path d="M208.318 18.244c-.337-.638-.843-.863-1.131-.503-.289.36-.25 1.17.087 1.808.336.638.842.863 1.131.503.288-.36.249-1.17-.087-1.808z" fill="#69C5D7"/><path d="M230.307 29.934c-.529-.099-.995.28-1.04.848-.045.568.348 1.108.878 1.207.53.1.996-.28 1.04-.848.045-.567-.348-1.107-.878-1.207zM184.876 19.572c-.573.2-.887 1.389-.701 2.657.186 1.268.801 2.135 1.374 1.936.573-.2.887-1.389.701-2.657-.186-1.268-.801-2.135-1.374-1.936zM183.968 35.441c-.499.289-.799.956-.668 1.492.13.535.641.735 1.141.446.499-.288.799-.956.668-1.492-.13-.535-.641-.735-1.141-.446z" fill="#3F3D56"/><path d="M169.009 7.067c-.437.472-.654 1.154-.486 1.523.168.369.659.285 1.095-.187.437-.472.655-1.154.487-1.523-.169-.369-.659-.285-1.096.187zM172.623 15.174c.314.765 1.147.823 1.861.13.715-.693 1.04-1.876.727-2.64-.314-.766-1.147-.824-1.861-.13-.715.692-1.04 1.875-.727 2.64z" fill="#E6E6E6"/><path d="M138.98 8.983c.313.765 1.146.823 1.861.13.714-.693 1.039-1.875.726-2.64-.313-.766-1.146-.824-1.861-.13-.714.692-1.039 1.875-.726 2.64zM155.636 24.664c.314.765 1.147.823 1.861.13.715-.693 1.04-1.875.727-2.64-.314-.766-1.147-.824-1.861-.13-.715.692-1.04 1.875-.727 2.64z" fill="#6AC5D7"/><path d="M148.401 22.663c.344.629.853.84 1.137.472.284-.368.236-1.176-.108-1.805-.343-.628-.852-.84-1.136-.472-.284.368-.236 1.176.107 1.805z" fill="#E6E6E6"/><path d="M145.276 11.951c-.447.448-.645 1.2-.443 1.68.203.478.73.503 1.177.055.447-.448.646-1.2.443-1.68-.203-.478-.729-.503-1.177-.055z" fill="#3F3D56"/><path d="M149.552 7.718c.313.765 1.147.823 1.861.13s1.04-1.876.726-2.64c-.313-.766-1.146-.824-1.86-.131-.715.693-1.04 1.876-.727 2.64z" fill="#E6E6E6"/><path d="M163.524 6.576c.313.765 1.146.824 1.861.13.714-.693 1.039-1.875.726-2.64-.313-.766-1.146-.824-1.861-.13-.714.693-1.039 1.875-.726 2.64z" fill="#3F3D56"/><path d="M169.688 32.729c.314.765 1.147.823 1.861.13s1.04-1.875.726-2.64c-.313-.766-1.146-.824-1.86-.13-.715.693-1.04 1.875-.727 2.64z" fill="#6AC5D7"/><path d="M164.846 15.55c.152.788.503 1.322.784 1.194.281-.129.385-.872.233-1.66-.153-.787-.504-1.321-.784-1.193-.281.129-.385.872-.233 1.66z" fill="#E6E6E6"/><path d="M166.672 26.018c.53-.108.919-.656.87-1.222-.049-.567-.517-.938-1.047-.83-.529.108-.918.655-.869 1.222.049.566.517.938 1.046.83z" fill="#3F3D56"/><path d="M140.553 20.985c.344.63.853.84 1.137.473.284-.368.236-1.176-.108-1.805-.343-.63-.852-.84-1.136-.473-.284.368-.236 1.176.107 1.805z" fill="#E6E6E6"/><path d="M155.176 10.488c.344.629.853.84 1.137.472.284-.368.236-1.176-.108-1.805-.343-.629-.852-.84-1.136-.472-.285.368-.236 1.176.107 1.805z" fill="#69C5D7"/><path d="M135.001 15.113c.531.085.993-.307 1.031-.875.038-.57-.361-1.099-.892-1.184-.531-.085-.992.307-1.031.876-.038.568.361 1.098.892 1.183z" fill="#3F3D56"/><path d="M277.029 10.87c-.437.472-.655 1.154-.487 1.523.169.37.659.285 1.096-.187.437-.472.654-1.154.486-1.523-.168-.368-.658-.285-1.095.187zM269.43 13.263c.313.765 1.146.823 1.861.13.714-.693 1.039-1.876.726-2.64-.313-.766-1.146-.824-1.861-.131-.714.693-1.039 1.876-.726 2.64z" fill="#E6E6E6"/><path d="M235.787 7.072c.313.765 1.146.824 1.86.13.715-.693 1.04-1.875.727-2.64-.313-.765-1.147-.824-1.861-.13-.714.693-1.04 1.875-.726 2.64zM252.443 22.753c.313.765 1.146.824 1.861.13.714-.693 1.039-1.875.726-2.64-.313-.765-1.146-.824-1.86-.13-.715.693-1.04 1.875-.727 2.64z" fill="#6AC5D7"/><path d="M245.208 20.752c.343.629.852.84 1.136.472.285-.368.236-1.176-.107-1.805-.344-.628-.853-.84-1.137-.472-.284.368-.236 1.176.108 1.805z" fill="#E6E6E6"/><path d="M242.083 10.04c-.447.449-.646 1.2-.443 1.68.202.479.729.503 1.177.055.447-.448.645-1.2.443-1.679-.203-.48-.73-.504-1.177-.056z" fill="#3F3D56"/><path d="M246.359 5.807c.313.765 1.146.824 1.861.13.714-.693 1.039-1.875.726-2.64-.313-.766-1.146-.824-1.861-.13-.714.693-1.039 1.875-.726 2.64z" fill="#E6E6E6"/><path d="M257.899 9.764c.313.765 1.146.824 1.861.13.714-.693 1.039-1.875.726-2.64-.313-.766-1.146-.824-1.861-.13-.714.693-1.039 1.875-.726 2.64z" fill="#3F3D56"/><path d="M274.033 21.229c.314.765 1.147.823 1.861.13.715-.693 1.04-1.875.727-2.64-.314-.766-1.147-.824-1.861-.13-.715.693-1.04 1.875-.727 2.64z" fill="#6AC5D7"/><path d="M261.653 13.64c.152.787.503 1.321.784 1.193.28-.129.384-.871.232-1.659-.152-.787-.503-1.322-.784-1.193-.28.128-.384.871-.232 1.659z" fill="#E6E6E6"/><path d="M266.301 18.597c.529-.108.918-.655.869-1.222-.049-.566-.517-.938-1.046-.83-.529.108-.919.656-.87 1.222.049.567.518.939 1.047.83z" fill="#3F3D56"/><path d="M237.36 19.075c.344.628.852.84 1.137.472.284-.368.236-1.176-.108-1.805-.343-.629-.852-.84-1.136-.472-.285.368-.236 1.176.107 1.805z" fill="#E6E6E6"/><path d="M251.983 8.577c.343.629.852.84 1.136.472.285-.368.236-1.176-.107-1.804-.344-.63-.853-.84-1.137-.473-.284.368-.236 1.176.108 1.805z" fill="#69C5D7"/><path d="M231.808 13.202c.531.085.992-.307 1.031-.876.038-.568-.361-1.098-.892-1.183-.531-.085-.992.307-1.031.876-.038.568.361 1.098.892 1.183z" fill="#3F3D56"/><path d="M377.849 13.762c.305.773 1.137.854 1.859.18.722-.674 1.061-1.847.756-2.62-.304-.774-1.136-.855-1.859-.18-.722.673-1.06 1.847-.756 2.62z" fill="#E6E6E6"/><path d="M326.964 19.494c.304.774 1.136.855 1.859.18.722-.673 1.06-1.847.756-2.62-.305-.774-1.137-.854-1.859-.18-.722.674-1.061 1.847-.756 2.62z" fill="#3F3D56"/><path d="M335.651 25.227c.305.773 1.137.854 1.859.18.723-.674 1.061-1.847.757-2.62-.305-.774-1.137-.855-1.859-.181-.723.674-1.061 1.847-.757 2.62zM345.062 6.71c.304.774 1.137.854 1.859.18.722-.674 1.061-1.847.756-2.62-.304-.774-1.137-.855-1.859-.18-.722.673-1.061 1.847-.756 2.62z" fill="#6AC5D7"/><path d="M355.853 13.974c.337.638.843.863 1.131.503.289-.36.25-1.17-.087-1.808-.336-.638-.842-.863-1.131-.503-.288.36-.249 1.17.087 1.808z" fill="#E6E6E6"/><path d="M360.894 19.84c.336.638.843.863 1.131.503.288-.36.249-1.17-.087-1.808-.336-.637-.843-.863-1.131-.502-.288.36-.249 1.17.087 1.807z" fill="#3F3D56"/><path d="M321.817 13.207c-.204.76-.091 1.552.252 1.77.343.218.787-.22.99-.98.204-.76.091-1.552-.252-1.77-.343-.219-.787.22-.99.98z" fill="#E6E6E6"/><path d="M343.366 27.908c-.453.436-.66 1.182-.462 1.667.197.484.723.523 1.175.087.453-.436.66-1.183.462-1.667-.197-.485-.723-.524-1.175-.087z" fill="#3F3D56"/><path d="M343.098 17.583c.305.774 1.137.854 1.859.18.722-.674 1.061-1.847.756-2.62-.304-.774-1.137-.854-1.859-.18-.722.673-1.06 1.847-.756 2.62z" fill="#E6E6E6"/><path d="M353.176 3.841c.305.774 1.137.854 1.859.18.722-.674 1.061-1.847.756-2.62-.304-.774-1.136-.855-1.859-.18-.722.673-1.06 1.847-.756 2.62z" fill="#3F3D56"/><path d="M366.985 8.603c.304.774 1.137.854 1.859.18.722-.673 1.061-1.847.756-2.62-.304-.774-1.137-.854-1.859-.18-.722.673-1.061 1.847-.756 2.62z" fill="#6AC5D7"/><path d="M362.044 4.423c.53-.094.925-.63.883-1.198-.043-.568-.507-.953-1.037-.859-.53.094-.926.631-.883 1.199.042.568.506.952 1.037.858z" fill="#3F3D56"/><path d="M335.981 9.36c.337.637.843.862 1.131.502.289-.36.25-1.17-.087-1.807-.336-.638-.842-.864-1.131-.503-.288.36-.249 1.17.087 1.807z" fill="#E6E6E6"/><path d="M350.602 21.934c.337.638.843.863 1.131.503.289-.36.25-1.17-.087-1.807-.336-.638-.842-.863-1.131-.503-.288.36-.249 1.17.087 1.807z" fill="#69C5D7"/><path d="M328.613 10.244c.529.1.995-.28 1.04-.848.045-.567-.348-1.107-.878-1.207-.53-.099-.996.28-1.041.848-.044.568.349 1.108.879 1.207zM374.044 20.607c.573-.2.887-1.39.701-2.657-.186-1.269-.801-2.135-1.374-1.936-.573.199-.887 1.389-.701 2.657.186 1.268.801 2.135 1.374 1.936zM374.952 4.738c.499-.289.799-.957.668-1.492-.13-.535-.641-.735-1.141-.446-.499.288-.799.956-.668 1.491.13.536.641.735 1.141.447z" fill="#3F3D56"/><path d="M389.911 33.112c.437-.472.654-1.154.486-1.523-.168-.37-.659-.285-1.095.187-.437.472-.655 1.153-.487 1.522.169.37.659.286 1.096-.186zM386.297 25.005c-.314-.765-1.147-.823-1.861-.13-.715.693-1.04 1.875-.727 2.64.314.766 1.147.824 1.861.13.715-.693 1.04-1.875.727-2.64z" fill="#E6E6E6"/><path d="M419.94 31.196c-.313-.765-1.146-.824-1.861-.13-.714.693-1.039 1.875-.726 2.64.313.765 1.146.824 1.861.13.714-.693 1.039-1.875.726-2.64zM403.284 15.515c-.314-.766-1.147-.824-1.861-.13-.715.693-1.04 1.875-.727 2.64.314.765 1.147.824 1.861.13.715-.693 1.04-1.875.727-2.64z" fill="#6AC5D7"/><path d="M410.519 17.516c-.344-.63-.853-.84-1.137-.473-.284.368-.236 1.176.108 1.805.343.629.852.84 1.136.473.284-.368.236-1.176-.107-1.805z" fill="#E6E6E6"/><path d="M413.644 28.228c.447-.449.645-1.2.443-1.68-.203-.479-.73-.503-1.177-.055-.447.448-.646 1.2-.443 1.68.203.478.729.503 1.177.055z" fill="#3F3D56"/><path d="M409.368 32.461c-.313-.765-1.147-.823-1.861-.13s-1.04 1.875-.726 2.64c.313.766 1.146.824 1.86.13.715-.693 1.04-1.875.727-2.64z" fill="#E6E6E6"/><path d="M395.396 33.603c-.313-.766-1.146-.824-1.861-.13-.714.693-1.039 1.875-.726 2.64.313.765 1.146.824 1.861.13.714-.693 1.039-1.875.726-2.64z" fill="#3F3D56"/><path d="M389.232 7.45c-.314-.766-1.147-.824-1.861-.13-.714.692-1.04 1.875-.726 2.64.313.765 1.146.823 1.86.13.715-.693 1.04-1.876.727-2.64z" fill="#6AC5D7"/><path d="M394.074 24.628c-.152-.787-.503-1.321-.784-1.193-.281.129-.385.871-.233 1.659.153.787.504 1.322.784 1.193.281-.128.385-.871.233-1.659z" fill="#E6E6E6"/><path d="M392.248 14.161c-.53.108-.919.655-.87 1.222.049.567.517.938 1.047.83.529-.108.918-.655.869-1.222-.049-.567-.517-.938-1.046-.83z" fill="#3F3D56"/><path d="M418.367 19.194c-.344-.63-.853-.84-1.137-.473-.284.368-.236 1.176.108 1.805.343.629.852.84 1.136.472.284-.368.236-1.176-.107-1.805z" fill="#E6E6E6"/><path d="M403.744 29.691c-.344-.629-.853-.84-1.137-.472-.284.368-.236 1.176.108 1.804.343.63.852.84 1.136.473.285-.368.236-1.176-.107-1.805z" fill="#69C5D7"/><path d="M423.919 25.066c-.531-.085-.993.307-1.031.875-.038.569.361 1.099.892 1.184.531.084.992-.308 1.03-.876.039-.569-.36-1.098-.891-1.183z" fill="#3F3D56"/><path d="M281.891 29.309c.437-.473.655-1.154.487-1.523-.169-.37-.659-.286-1.096.186-.437.472-.654 1.154-.486 1.523.168.37.658.286 1.095-.186zM289.49 26.916c-.313-.765-1.146-.823-1.861-.13-.714.693-1.039 1.875-.726 2.64.313.766 1.146.824 1.861.13.714-.693 1.039-1.875.726-2.64z" fill="#E6E6E6"/><path d="M323.133 33.106c-.313-.765-1.146-.823-1.86-.13-.715.694-1.04 1.876-.727 2.641.313.765 1.146.824 1.861.13.714-.693 1.04-1.875.726-2.64zM306.477 17.425c-.313-.765-1.146-.823-1.861-.13-.714.693-1.04 1.876-.726 2.64.313.766 1.146.824 1.86.131.715-.693 1.04-1.875.727-2.64z" fill="#6AC5D7"/><path d="M313.712 19.427c-.343-.629-.852-.84-1.136-.473-.285.368-.236 1.177.107 1.805.344.63.853.84 1.137.473.284-.368.236-1.176-.108-1.805z" fill="#E6E6E6"/><path d="M316.837 30.138c.447-.448.646-1.2.443-1.679-.202-.479-.729-.504-1.177-.055-.447.448-.645 1.2-.443 1.679.203.479.73.504 1.177.055z" fill="#3F3D56"/><path d="M312.561 34.372c-.313-.766-1.146-.824-1.861-.13-.714.693-1.039 1.875-.726 2.64.313.765 1.146.824 1.861.13.714-.693 1.039-1.875.726-2.64z" fill="#E6E6E6"/><path d="M301.021 30.415c-.313-.766-1.146-.824-1.861-.13-.714.693-1.039 1.875-.726 2.64.313.765 1.146.824 1.861.13.714-.693 1.039-1.875.726-2.64z" fill="#3F3D56"/><path d="M284.887 18.95c-.314-.765-1.147-.824-1.861-.13-.715.693-1.04 1.875-.727 2.64.314.765 1.147.824 1.861.13.715-.693 1.04-1.875.727-2.64z" fill="#6AC5D7"/><path d="M297.267 26.54c-.152-.788-.503-1.323-.784-1.194-.28.128-.384.871-.232 1.659.152.787.503 1.322.784 1.193.28-.129.384-.871.232-1.659z" fill="#E6E6E6"/><path d="M292.619 21.581c-.529.109-.918.656-.869 1.222.049.567.517.939 1.046.83.529-.108.918-.655.87-1.221-.049-.567-.518-.939-1.047-.83z" fill="#3F3D56"/><path d="M321.56 21.104c-.344-.629-.853-.84-1.137-.472-.284.368-.236 1.176.108 1.805.343.628.852.84 1.136.472.285-.368.236-1.176-.107-1.805z" fill="#E6E6E6"/><path d="M306.937 31.602c-.343-.63-.852-.84-1.136-.473-.285.368-.236 1.176.107 1.805.344.629.853.84 1.137.473.284-.368.236-1.176-.108-1.805z" fill="#69C5D7"/><path d="M327.112 26.977c-.531-.085-.992.307-1.031.875-.038.569.361 1.099.892 1.184.531.085.992-.308 1.031-.876.038-.569-.361-1.098-.892-1.183z" fill="#3F3D56"/><path d="M461.562 24.506c-.305-.774-1.137-.855-1.859-.18-.722.673-1.061 1.847-.756 2.62.304.774 1.137.854 1.859.18.722-.674 1.06-1.847.756-2.62z" fill="#E6E6E6"/><path d="M512.448 18.773c-.305-.773-1.137-.854-1.859-.18-.723.674-1.061 1.847-.757 2.62.305.774 1.137.855 1.859.181.722-.674 1.061-1.847.757-2.62z" fill="#3F3D56"/><path d="M503.76 13.04c-.305-.773-1.137-.853-1.859-.18-.722.675-1.061 1.848-.757 2.621.305.774 1.137.854 1.859.18.723-.673 1.061-1.847.757-2.62zM494.349 31.557c-.304-.773-1.137-.854-1.859-.18-.722.674-1.061 1.848-.756 2.62.304.774 1.137.855 1.859.181.722-.674 1.061-1.847.756-2.62z" fill="#6AC5D7"/><path d="M483.558 24.294c-.337-.638-.843-.864-1.131-.503-.289.36-.25 1.17.087 1.807.336.638.842.863 1.131.503.288-.36.249-1.17-.087-1.807z" fill="#E6E6E6"/><path d="M478.517 18.427c-.336-.637-.843-.863-1.131-.502-.288.36-.249 1.169.087 1.807.337.638.843.863 1.131.503.288-.36.25-1.17-.087-1.808z" fill="#3F3D56"/><path d="M517.595 25.06c.203-.76.09-1.552-.253-1.77-.343-.218-.787.22-.99.98-.204.76-.091 1.552.252 1.77.344.219.787-.22.991-.98z" fill="#E6E6E6"/><path d="M496.045 10.36c.453-.436.66-1.183.463-1.667-.198-.485-.724-.524-1.176-.087-.453.436-.66 1.182-.462 1.667.197.484.723.523 1.175.087z" fill="#3F3D56"/><path d="M496.313 20.684c-.304-.773-1.137-.854-1.859-.18-.722.674-1.061 1.847-.756 2.62.304.774 1.137.855 1.859.181.722-.674 1.061-1.847.756-2.62z" fill="#E6E6E6"/><path d="M486.235 34.426c-.305-.773-1.137-.854-1.859-.18-.722.674-1.061 1.848-.756 2.621.304.774 1.136.854 1.859.18.722-.674 1.06-1.847.756-2.62z" fill="#3F3D56"/><path d="M472.426 29.664c-.304-.773-1.137-.854-1.859-.18-.722.674-1.061 1.847-.756 2.62.304.774 1.137.855 1.859.181.722-.674 1.061-1.847.756-2.62z" fill="#6AC5D7"/><path d="M477.368 33.844c-.531.094-.926.63-.884 1.198.043.568.507.953 1.037.859.531-.094.926-.63.884-1.199-.043-.568-.507-.952-1.037-.858z" fill="#3F3D56"/><path d="M503.43 28.908c-.337-.638-.843-.863-1.131-.503-.289.36-.25 1.17.087 1.808.336.638.842.863 1.131.503.288-.36.249-1.17-.087-1.808z" fill="#E6E6E6"/><path d="M488.809 16.333c-.337-.638-.843-.863-1.131-.503-.289.36-.25 1.17.087 1.808.336.638.843.863 1.131.503.288-.36.249-1.17-.087-1.808z" fill="#69C5D7"/><path d="M510.798 28.023c-.529-.099-.995.28-1.04.848-.045.568.348 1.108.878 1.207.53.1.996-.28 1.041-.848.044-.567-.349-1.108-.879-1.207zM465.367 17.66c-.573.2-.887 1.39-.701 2.658.186 1.268.801 2.135 1.374 1.936.573-.2.887-1.39.701-2.657-.186-1.269-.801-2.135-1.374-1.936zM464.46 33.53c-.5.289-.8.956-.669 1.492.13.535.641.735 1.141.446s.799-.957.668-1.492c-.13-.535-.641-.735-1.14-.446z" fill="#3F3D56"/><path d="M449.5 5.156c-.437.472-.654 1.154-.486 1.523.168.369.659.285 1.095-.187.437-.472.655-1.154.487-1.523-.168-.369-.659-.285-1.096.187zM453.114 13.263c.314.765 1.147.823 1.861.13.715-.693 1.04-1.876.727-2.64-.314-.766-1.147-.824-1.861-.131-.715.693-1.04 1.876-.727 2.64z" fill="#E6E6E6"/><path d="M419.471 7.072c.313.765 1.146.823 1.861.13.714-.693 1.04-1.876.726-2.64-.313-.766-1.146-.824-1.86-.131-.715.693-1.04 1.876-.727 2.64zM436.128 22.753c.313.765 1.146.823 1.86.13.715-.693 1.04-1.875.727-2.64-.314-.766-1.147-.824-1.861-.13-.714.692-1.04 1.875-.726 2.64z" fill="#6AC5D7"/><path d="M428.892 20.752c.344.629.853.84 1.137.472.284-.368.236-1.176-.108-1.805-.343-.628-.852-.84-1.136-.472-.284.368-.236 1.176.107 1.805z" fill="#E6E6E6"/><path d="M425.767 10.04c-.447.448-.645 1.2-.443 1.68.203.478.73.503 1.177.055.447-.449.646-1.2.443-1.68-.203-.479-.729-.503-1.177-.055z" fill="#3F3D56"/><path d="M430.043 5.807c.314.765 1.147.823 1.861.13s1.04-1.876.726-2.64c-.313-.766-1.146-.824-1.86-.131-.715.693-1.04 1.875-.727 2.64z" fill="#E6E6E6"/><path d="M444.015 4.665c.313.765 1.146.823 1.861.13.714-.693 1.039-1.875.726-2.64-.313-.766-1.146-.824-1.861-.13-.714.693-1.039 1.875-.726 2.64z" fill="#3F3D56"/><path d="M450.179 30.818c.314.765 1.147.823 1.861.13.715-.693 1.04-1.875.727-2.64-.314-.766-1.147-.824-1.861-.13-.715.692-1.04 1.875-.727 2.64z" fill="#6AC5D7"/><path d="M445.337 13.64c.152.787.503 1.321.784 1.192.281-.128.385-.87.233-1.658-.153-.788-.503-1.322-.784-1.194-.281.129-.385.871-.233 1.66z" fill="#E6E6E6"/><path d="M447.164 24.107c.529-.109.918-.656.869-1.222-.049-.567-.517-.939-1.046-.83-.53.108-.919.655-.87 1.221.049.567.518.939 1.047.83z" fill="#3F3D56"/><path d="M421.045 19.074c.343.629.852.84 1.136.473.284-.368.236-1.177-.107-1.805-.344-.63-.853-.84-1.137-.473-.284.368-.236 1.176.108 1.805z" fill="#E6E6E6"/><path d="M435.667 8.577c.344.628.853.84 1.137.472.284-.368.236-1.176-.108-1.805-.343-.629-.852-.84-1.136-.472-.284.368-.236 1.176.107 1.805z" fill="#69C5D7"/><path d="M415.492 13.202c.531.085.993-.307 1.031-.876.038-.568-.361-1.098-.892-1.183-.531-.085-.992.307-1.03.876-.039.568.361 1.098.891 1.183z" fill="#3F3D56"/><path d="M557.52 8.959c-.437.472-.655 1.154-.487 1.523.169.369.659.285 1.096-.187.437-.472.655-1.154.486-1.523-.168-.369-.658-.285-1.095.187zM549.921 11.351c.313.766 1.146.824 1.861.13.714-.692 1.04-1.875.726-2.64-.313-.765-1.146-.823-1.86-.13-.715.693-1.04 1.875-.727 2.64z" fill="#E6E6E6"/><path d="M516.278 5.161c.313.765 1.146.824 1.861.13.714-.693 1.039-1.875.726-2.64-.313-.766-1.146-.824-1.861-.13-.714.693-1.039 1.875-.726 2.64zM532.934 20.842c.313.765 1.147.824 1.861.13.714-.693 1.04-1.875.726-2.64-.313-.765-1.146-.824-1.86-.13-.715.693-1.04 1.875-.727 2.64z" fill="#6AC5D7"/><path d="M525.699 18.84c.344.63.852.841 1.137.473.284-.368.236-1.176-.108-1.805s-.852-.84-1.137-.472c-.284.368-.236 1.176.108 1.805z" fill="#E6E6E6"/><path d="M522.574 8.13c-.447.448-.646 1.2-.443 1.678.203.48.729.504 1.177.056.447-.448.645-1.2.443-1.68-.203-.478-.73-.503-1.177-.055z" fill="#3F3D56"/><path d="M526.85 3.896c.313.765 1.146.823 1.861.13.714-.693 1.039-1.875.726-2.64-.313-.766-1.146-.824-1.861-.13-.714.692-1.039 1.875-.726 2.64z" fill="#E6E6E6"/><path d="M538.39 7.853c.313.765 1.146.823 1.861.13.714-.693 1.04-1.875.726-2.64-.313-.766-1.146-.824-1.86-.13-.715.693-1.04 1.875-.727 2.64z" fill="#3F3D56"/><path d="M554.525 19.318c.313.765 1.146.823 1.86.13.715-.693 1.04-1.875.727-2.64-.314-.766-1.147-.824-1.861-.13-.714.692-1.04 1.875-.726 2.64z" fill="#6AC5D7"/><path d="M542.144 11.729c.152.787.503 1.321.784 1.193.28-.129.384-.871.232-1.659s-.503-1.322-.783-1.193c-.281.128-.385.87-.233 1.659z" fill="#E6E6E6"/><path d="M546.792 16.686c.529-.108.918-.655.869-1.222-.048-.566-.517-.938-1.046-.83-.529.108-.918.655-.87 1.222.049.567.518.938 1.047.83z" fill="#3F3D56"/><path d="M517.851 17.163c.344.63.853.84 1.137.473.284-.368.236-1.176-.108-1.805-.343-.629-.852-.84-1.136-.472-.284.367-.236 1.176.107 1.804z" fill="#E6E6E6"/><path d="M532.474 6.666c.344.629.852.84 1.137.472.284-.368.236-1.176-.108-1.805-.344-.628-.852-.84-1.137-.472-.284.368-.236 1.176.108 1.805z" fill="#69C5D7"/><path d="M512.299 11.29c.531.086.992-.306 1.031-.875.038-.568-.361-1.098-.892-1.183-.531-.085-.992.307-1.031.876-.038.568.361 1.098.892 1.183z" fill="#3F3D56"/><path d="M645.929 19.494c.305.774 1.137.855 1.859.18.722-.673 1.061-1.847.756-2.62-.304-.774-1.136-.854-1.859-.18-.722.674-1.06 1.847-.756 2.62z" fill="#E6E6E6"/><path d="M595.044 25.227c.304.773 1.136.854 1.859.18.722-.674 1.06-1.847.756-2.62-.305-.774-1.137-.855-1.859-.181-.722.674-1.061 1.847-.756 2.62z" fill="#3F3D56"/><path d="M603.731 30.96c.305.773 1.137.853 1.859.18.723-.675 1.061-1.848.757-2.621-.305-.774-1.137-.854-1.859-.18-.723.673-1.061 1.847-.757 2.62zM613.142 12.443c.304.773 1.137.854 1.859.18.722-.674 1.061-1.848.756-2.62-.304-.774-1.137-.855-1.859-.181-.722.674-1.061 1.847-.756 2.62z" fill="#6AC5D7"/><path d="M623.933 19.706c.337.638.843.864 1.131.503.289-.36.25-1.17-.087-1.807-.336-.638-.842-.863-1.131-.503-.288.36-.249 1.17.087 1.807z" fill="#E6E6E6"/><path d="M628.974 25.573c.336.637.843.863 1.131.502.288-.36.249-1.169-.087-1.807-.336-.638-.843-.863-1.131-.503-.288.36-.249 1.17.087 1.808z" fill="#3F3D56"/><path d="M589.897 18.94c-.204.76-.091 1.552.252 1.77.343.218.787-.22.99-.98.204-.76.091-1.552-.252-1.77-.343-.219-.787.22-.99.98z" fill="#E6E6E6"/><path d="M611.446 33.64c-.453.437-.66 1.183-.462 1.667.197.485.723.524 1.175.087.453-.436.66-1.182.463-1.667-.198-.484-.724-.523-1.176-.087z" fill="#3F3D56"/><path d="M611.178 23.316c.305.773 1.137.854 1.859.18.722-.674 1.061-1.847.756-2.62-.304-.774-1.137-.855-1.859-.181-.722.674-1.06 1.847-.756 2.62z" fill="#E6E6E6"/><path d="M621.256 9.573c.305.774 1.137.855 1.859.18.722-.673 1.061-1.847.756-2.62-.304-.774-1.136-.854-1.858-.18-.723.674-1.061 1.847-.757 2.62z" fill="#3F3D56"/><path d="M635.065 14.336c.304.773 1.137.854 1.859.18.722-.674 1.061-1.847.756-2.62-.304-.774-1.137-.855-1.859-.181-.722.674-1.061 1.847-.756 2.62z" fill="#6AC5D7"/><path d="M630.124 10.156c.53-.094.925-.63.883-1.199-.043-.567-.507-.952-1.037-.858-.53.094-.926.63-.883 1.199.042.568.506.952 1.037.858z" fill="#3F3D56"/><path d="M604.061 15.092c.337.638.843.863 1.131.502.289-.36.25-1.169-.087-1.807-.336-.638-.842-.863-1.131-.503-.288.36-.249 1.17.087 1.808z" fill="#E6E6E6"/><path d="M618.682 27.667c.337.638.843.863 1.131.503.289-.36.25-1.17-.087-1.808-.336-.638-.842-.863-1.131-.503-.288.36-.249 1.17.087 1.808z" fill="#69C5D7"/><path d="M596.693 15.977c.529.099.995-.28 1.04-.848.045-.568-.348-1.108-.878-1.207-.53-.1-.996.28-1.04.848-.045.567.348 1.107.878 1.207zM642.124 26.34c.573-.2.887-1.39.701-2.658-.186-1.268-.801-2.135-1.374-1.936-.573.2-.887 1.39-.701 2.657.186 1.269.801 2.135 1.374 1.936zM643.032 10.47c.499-.289.799-.956.668-1.492-.13-.535-.641-.735-1.141-.446-.499.289-.799.957-.668 1.492.13.535.641.735 1.141.446z" fill="#3F3D56"/><path d="M657.991 38.844c.437-.472.654-1.154.486-1.523-.168-.369-.659-.285-1.095.187-.437.472-.655 1.154-.487 1.523.169.369.659.285 1.096-.187zM654.377 30.737c-.314-.765-1.147-.823-1.861-.13-.715.693-1.04 1.876-.727 2.64.314.766 1.147.824 1.861.131.715-.693 1.04-1.875.727-2.64z" fill="#E6E6E6"/><path d="M688.02 36.928c-.313-.765-1.146-.823-1.861-.13-.714.693-1.039 1.876-.726 2.64.313.766 1.146.824 1.861.131.714-.693 1.039-1.876.726-2.64zM671.364 21.247c-.314-.765-1.147-.823-1.861-.13-.715.693-1.04 1.875-.727 2.64.314.766 1.147.824 1.861.13.715-.692 1.04-1.875.727-2.64z" fill="#6AC5D7"/><path d="M678.599 23.248c-.344-.629-.853-.84-1.137-.472-.284.368-.236 1.176.108 1.805.343.628.852.84 1.136.472.285-.368.236-1.176-.107-1.805z" fill="#E6E6E6"/><path d="M681.724 33.96c.447-.448.645-1.2.443-1.68-.203-.478-.73-.503-1.177-.055-.447.449-.645 1.2-.443 1.68.203.478.729.503 1.177.055z" fill="#3F3D56"/><path d="M677.448 38.193c-.313-.765-1.147-.823-1.861-.13s-1.04 1.876-.726 2.64c.313.766 1.146.824 1.86.131.715-.693 1.04-1.875.727-2.64z" fill="#E6E6E6"/><path d="M663.476 39.335c-.313-.765-1.146-.823-1.861-.13-.714.693-1.039 1.875-.726 2.64.313.766 1.146.824 1.861.13.714-.693 1.039-1.875.726-2.64z" fill="#3F3D56"/><path d="M657.312 13.182c-.314-.765-1.147-.823-1.861-.13s-1.04 1.876-.726 2.64c.313.766 1.146.824 1.86.13.715-.692 1.04-1.875.727-2.64z" fill="#6AC5D7"/><path d="M662.154 30.36c-.152-.787-.503-1.321-.784-1.192-.281.128-.385.87-.233 1.658.153.788.504 1.322.784 1.194.281-.129.385-.872.233-1.66z" fill="#E6E6E6"/><path d="M660.328 19.893c-.53.109-.919.656-.87 1.222.049.567.517.939 1.047.83.529-.108.918-.655.869-1.221-.049-.567-.517-.939-1.046-.83z" fill="#3F3D56"/><path d="M686.447 24.926c-.344-.629-.853-.84-1.137-.473-.284.368-.236 1.177.108 1.805.343.63.852.84 1.136.473.284-.368.236-1.176-.107-1.805z" fill="#E6E6E6"/><path d="M671.824 35.423c-.344-.628-.853-.84-1.137-.472-.284.368-.236 1.176.108 1.805.343.629.852.84 1.136.472.285-.368.236-1.176-.107-1.805z" fill="#69C5D7"/><path d="M691.999 30.798c-.531-.085-.993.307-1.031.876-.038.568.361 1.098.892 1.183.531.085.992-.307 1.031-.876.038-.568-.361-1.098-.892-1.183z" fill="#3F3D56"/><path d="M549.971 35.041c.437-.472.655-1.154.487-1.523-.169-.369-.659-.285-1.096.187-.437.472-.654 1.154-.486 1.523.168.369.658.285 1.095-.187zM557.57 32.648c-.313-.765-1.146-.823-1.861-.13-.714.694-1.039 1.876-.726 2.641.313.765 1.146.823 1.861.13.714-.693 1.039-1.875.726-2.64z" fill="#E6E6E6"/><path d="M591.213 38.839c-.313-.765-1.146-.823-1.86-.13-.715.693-1.04 1.875-.727 2.64.313.766 1.147.824 1.861.13.714-.693 1.04-1.875.726-2.64zM574.557 23.158c-.313-.765-1.146-.824-1.861-.13-.714.693-1.04 1.875-.726 2.64.313.765 1.146.824 1.86.13.715-.693 1.04-1.875.727-2.64z" fill="#6AC5D7"/><path d="M581.792 25.16c-.343-.63-.852-.841-1.136-.473-.285.368-.236 1.176.107 1.805.344.629.853.84 1.137.472.284-.368.236-1.176-.108-1.805z" fill="#E6E6E6"/><path d="M584.917 35.87c.447-.448.646-1.2.443-1.678-.202-.48-.729-.504-1.177-.056-.447.448-.645 1.2-.443 1.68.203.478.73.503 1.177.055z" fill="#3F3D56"/><path d="M580.641 40.104c-.313-.765-1.146-.823-1.861-.13-.714.693-1.039 1.875-.726 2.64.313.766 1.146.824 1.861.13.714-.693 1.039-1.875.726-2.64z" fill="#E6E6E6"/><path d="M569.101 36.147c-.313-.765-1.146-.823-1.861-.13-.714.693-1.039 1.875-.726 2.64.313.766 1.146.824 1.861.13.714-.693 1.039-1.875.726-2.64z" fill="#3F3D56"/><path d="M552.967 24.682c-.314-.765-1.147-.823-1.861-.13-.715.693-1.04 1.875-.727 2.64.314.766 1.147.824 1.861.13.715-.692 1.04-1.875.727-2.64z" fill="#6AC5D7"/><path d="M565.347 32.272c-.152-.788-.503-1.322-.784-1.194-.28.129-.384.871-.232 1.659s.503 1.322.784 1.193c.28-.128.384-.87.232-1.658z" fill="#E6E6E6"/><path d="M560.699 27.314c-.529.108-.918.655-.869 1.222.049.566.517.938 1.046.83.529-.108.919-.655.87-1.222-.049-.567-.518-.938-1.047-.83z" fill="#3F3D56"/><path d="M589.64 26.837c-.344-.63-.853-.84-1.137-.473-.284.368-.236 1.176.108 1.805.343.629.852.84 1.136.472.285-.367.236-1.176-.107-1.804z" fill="#E6E6E6"/><path d="M575.017 37.334c-.343-.629-.852-.84-1.136-.472-.285.368-.236 1.176.107 1.804.344.63.853.84 1.137.473.284-.368.236-1.176-.108-1.805z" fill="#69C5D7"/><path d="M595.192 32.71c-.531-.086-.992.306-1.031.875-.038.568.361 1.098.892 1.183.531.085.992-.307 1.031-.876.038-.568-.361-1.098-.892-1.183z" fill="#3F3D56"/><path d="M729.642 30.238c-.305-.773-1.137-.854-1.859-.18-.722.674-1.061 1.847-.756 2.62.304.774 1.137.855 1.859.18.722-.673 1.06-1.846.756-2.62z" fill="#E6E6E6"/><path d="M780.527 24.506c-.304-.774-1.136-.855-1.859-.18-.722.673-1.06 1.847-.756 2.62.305.774 1.137.854 1.859.18.722-.674 1.061-1.847.756-2.62z" fill="#3F3D56"/><path d="M771.84 18.773c-.305-.773-1.137-.854-1.859-.18-.722.674-1.061 1.847-.756 2.62.304.774 1.136.855 1.858.181.723-.674 1.061-1.847.757-2.62zM762.429 37.29c-.304-.774-1.137-.854-1.859-.18-.722.673-1.061 1.847-.756 2.62.304.774 1.137.855 1.859.18.722-.673 1.061-1.847.756-2.62z" fill="#6AC5D7"/><path d="M751.638 30.026c-.337-.638-.843-.863-1.131-.503-.289.36-.25 1.17.087 1.808.336.638.843.863 1.131.503.288-.36.249-1.17-.087-1.808z" fill="#E6E6E6"/><path d="M746.597 24.16c-.336-.638-.843-.863-1.131-.503-.288.36-.249 1.17.087 1.808.337.637.843.863 1.131.502.288-.36.249-1.17-.087-1.807z" fill="#3F3D56"/><path d="M785.675 30.793c.203-.76.09-1.552-.253-1.77-.343-.218-.787.22-.99.98-.204.76-.091 1.552.252 1.77.344.218.787-.22.991-.98z" fill="#E6E6E6"/><path d="M764.125 16.092c.453-.436.66-1.182.463-1.667-.198-.484-.724-.523-1.176-.087-.453.436-.659 1.183-.462 1.667.197.485.723.524 1.175.087z" fill="#3F3D56"/><path d="M764.393 26.417c-.304-.774-1.137-.854-1.859-.18-.722.674-1.061 1.847-.756 2.62.304.774 1.137.855 1.859.18.722-.673 1.061-1.847.756-2.62z" fill="#E6E6E6"/><path d="M754.315 40.159c-.305-.773-1.137-.854-1.859-.18-.722.674-1.061 1.847-.756 2.62.304.774 1.136.855 1.859.18.722-.673 1.06-1.847.756-2.62z" fill="#3F3D56"/><path d="M740.506 35.397c-.304-.774-1.137-.854-1.859-.18-.722.674-1.061 1.847-.756 2.62.305.774 1.137.854 1.859.18.722-.673 1.061-1.847.756-2.62z" fill="#6AC5D7"/><path d="M745.448 39.577c-.531.093-.926.63-.884 1.198.043.568.507.952 1.037.858.531-.094.926-.63.884-1.198-.043-.568-.507-.952-1.037-.858z" fill="#3F3D56"/><path d="M771.51 34.64c-.337-.637-.843-.862-1.131-.502-.289.36-.25 1.17.087 1.807.336.638.843.864 1.131.503.288-.36.249-1.17-.087-1.807z" fill="#E6E6E6"/><path d="M756.889 22.066c-.337-.638-.843-.863-1.131-.503-.289.36-.25 1.17.087 1.807.336.638.843.863 1.131.503.288-.36.249-1.17-.087-1.807z" fill="#69C5D7"/><path d="M778.878 33.756c-.529-.1-.995.28-1.04.848-.045.567.348 1.107.878 1.207.53.099.996-.28 1.041-.848.044-.568-.349-1.108-.879-1.207zM733.447 23.393c-.573.2-.887 1.39-.701 2.657.186 1.269.801 2.135 1.374 1.936.573-.199.887-1.389.701-2.657-.186-1.268-.801-2.135-1.374-1.936zM732.54 39.262c-.5.289-.8.957-.669 1.492.13.535.641.735 1.141.446.5-.288.799-.956.668-1.491-.13-.536-.641-.735-1.14-.447z" fill="#3F3D56"/><path d="M717.58 10.888c-.437.472-.654 1.154-.486 1.523.168.37.659.286 1.095-.187.437-.472.655-1.154.487-1.523-.168-.369-.659-.285-1.096.187zM721.194 18.995c.314.765 1.147.823 1.861.13.715-.693 1.04-1.875.727-2.64-.314-.766-1.147-.824-1.861-.13-.715.693-1.04 1.875-.727 2.64z" fill="#E6E6E6"/><path d="M687.551 12.804c.313.765 1.146.824 1.861.13.714-.693 1.04-1.875.726-2.64-.313-.766-1.146-.824-1.86-.13-.715.693-1.04 1.875-.727 2.64zM704.208 28.485c.313.765 1.146.824 1.86.13.715-.693 1.04-1.875.727-2.64-.314-.765-1.147-.824-1.861-.13-.714.693-1.04 1.875-.726 2.64z" fill="#6AC5D7"/><path d="M696.972 26.484c.344.63.853.84 1.137.473.284-.368.236-1.176-.108-1.805-.343-.629-.852-.84-1.136-.473-.284.368-.236 1.176.107 1.805z" fill="#E6E6E6"/><path d="M693.847 15.772c-.447.449-.645 1.2-.443 1.68.203.479.73.503 1.177.055.447-.448.646-1.2.443-1.68-.203-.478-.729-.503-1.177-.055z" fill="#3F3D56"/><path d="M698.123 11.539c.314.765 1.147.824 1.861.13.715-.693 1.04-1.875.727-2.64-.314-.766-1.147-.824-1.861-.13-.715.693-1.04 1.875-.727 2.64z" fill="#E6E6E6"/><path d="M712.095 10.397c.313.766 1.146.824 1.861.13.714-.693 1.039-1.875.726-2.64-.313-.765-1.146-.824-1.861-.13-.714.693-1.039 1.875-.726 2.64z" fill="#3F3D56"/><path d="M718.259 36.55c.314.766 1.147.824 1.861.13.715-.692 1.04-1.875.727-2.64-.314-.765-1.147-.823-1.861-.13-.715.693-1.04 1.876-.727 2.64z" fill="#6AC5D7"/><path d="M713.417 19.372c.152.787.503 1.321.784 1.193.281-.129.385-.871.233-1.659-.153-.787-.503-1.322-.784-1.193-.281.128-.385.871-.233 1.659z" fill="#E6E6E6"/><path d="M715.244 29.839c.529-.108.918-.655.869-1.222-.049-.567-.517-.938-1.046-.83-.53.108-.919.655-.87 1.222.049.567.518.938 1.047.83z" fill="#3F3D56"/><path d="M689.125 24.806c.343.63.852.84 1.136.473.284-.368.236-1.176-.107-1.805-.344-.629-.853-.84-1.137-.472-.284.368-.236 1.176.108 1.805z" fill="#E6E6E6"/><path d="M703.747 14.309c.344.629.853.84 1.137.472.284-.368.236-1.176-.108-1.805-.343-.628-.852-.84-1.136-.472-.284.368-.236 1.176.107 1.805z" fill="#69C5D7"/><path d="M683.572 18.934c.531.085.993-.307 1.031-.875.038-.569-.361-1.099-.892-1.184-.53-.084-.992.308-1.03.876-.039.569.361 1.098.891 1.183z" fill="#3F3D56"/><path d="M825.6 14.691c-.437.473-.655 1.154-.487 1.523.169.37.659.286 1.096-.186.437-.472.655-1.154.486-1.523-.168-.37-.658-.286-1.095.186zM818.001 17.084c.313.765 1.146.823 1.861.13.714-.693 1.04-1.875.726-2.64-.313-.766-1.146-.824-1.86-.13-.715.692-1.04 1.875-.727 2.64z" fill="#E6E6E6"/><path d="M784.358 10.893c.313.766 1.146.824 1.861.13.714-.692 1.039-1.875.726-2.64-.313-.765-1.146-.823-1.861-.13-.714.693-1.039 1.875-.726 2.64zM801.014 26.575c.313.765 1.147.823 1.861.13s1.04-1.876.726-2.64c-.313-.766-1.146-.824-1.86-.131-.715.693-1.04 1.875-.727 2.64z" fill="#6AC5D7"/><path d="M793.779 24.573c.344.629.852.84 1.137.473.284-.368.236-1.177-.108-1.805-.344-.63-.852-.84-1.137-.473-.284.368-.235 1.176.108 1.805z" fill="#E6E6E6"/><path d="M790.654 13.862c-.447.448-.646 1.2-.443 1.679.203.479.729.504 1.177.056.447-.449.645-1.2.443-1.68-.203-.479-.73-.504-1.177-.055z" fill="#3F3D56"/><path d="M794.93 9.628c.313.765 1.146.824 1.861.13.714-.693 1.039-1.875.726-2.64-.313-.765-1.146-.824-1.861-.13-.714.693-1.039 1.875-.726 2.64z" fill="#E6E6E6"/><path d="M806.47 13.585c.313.766 1.146.824 1.861.13.714-.693 1.04-1.875.726-2.64-.313-.765-1.146-.824-1.86-.13-.715.693-1.04 1.875-.727 2.64z" fill="#3F3D56"/><path d="M822.605 25.05c.313.765 1.146.824 1.86.13.715-.693 1.04-1.875.727-2.64-.313-.765-1.147-.824-1.861-.13-.714.693-1.04 1.875-.726 2.64z" fill="#6AC5D7"/><path d="M810.224 17.46c.152.788.503 1.323.784 1.194.28-.128.385-.871.232-1.659-.152-.787-.503-1.322-.783-1.193-.281.129-.385.871-.233 1.659z" fill="#E6E6E6"/><path d="M814.872 22.419c.529-.109.918-.656.869-1.222-.048-.567-.517-.939-1.046-.83-.529.108-.918.655-.87 1.221.049.567.518.939 1.047.83z" fill="#3F3D56"/><path d="M785.931 22.896c.344.629.853.84 1.137.472.284-.368.236-1.176-.108-1.805-.343-.628-.852-.84-1.136-.472-.284.368-.236 1.176.107 1.805z" fill="#E6E6E6"/><path d="M800.554 12.398c.343.63.852.84 1.136.473.285-.368.236-1.176-.107-1.805-.344-.629-.852-.84-1.137-.473-.284.368-.236 1.177.108 1.805z" fill="#69C5D7"/><path d="M780.379 17.023c.531.085.992-.307 1.031-.875.038-.569-.361-1.099-.892-1.184-.531-.085-.992.307-1.031.876-.038.569.361 1.098.892 1.183z" fill="#3F3D56"/></svg>