<svg width="150" height="233" fill="none" xmlns="http://www.w3.org/2000/svg"><path d="M64.403 215.843c6.155-17.442 7.31-35.142 1.843-53.181a4.068 4.068 0 0 0-3.919-4.201l-40.163-1.392a4.066 4.066 0 0 0-4.201 3.919L16.12 214.17a4.065 4.065 0 0 0 3.919 4.2l40.163 1.393a4.07 4.07 0 0 0 4.201-3.92z" fill="#E6E6E6"/><path d="M61.88 199.674c4.342-8.457 3.446-20.815 1.184-34.19a3.808 3.808 0 0 0-3.67-3.934l-34.518-1.197a3.81 3.81 0 0 0-3.934 3.671l-1.64 47.324a3.81 3.81 0 0 0 3.67 3.934l21.383.741a16.964 16.964 0 0 0 17.524-16.349z" fill="#fff"/><path d="m27.758 187.09 26.912 1.007a1.618 1.618 0 0 0 1.675-1.554 1.618 1.618 0 0 0-1.554-1.675l-26.912-1.008a1.62 1.62 0 0 0-1.674 1.554 1.616 1.616 0 0 0 1.553 1.676zM49.08 179.02l5.921.222a1.613 1.613 0 0 0 1.53-.941 1.612 1.612 0 0 0-.284-1.773 1.605 1.605 0 0 0-1.125-.516l-5.92-.221a1.614 1.614 0 1 0-.12 3.229zM27.226 201.287l26.912 1.008a1.62 1.62 0 0 0 1.674-1.555 1.618 1.618 0 0 0-1.553-1.675l-26.912-1.007a1.612 1.612 0 0 0-1.673 1.554 1.616 1.616 0 0 0 1.552 1.675zM27.492 194.189l26.912 1.007a1.618 1.618 0 0 0 1.675-1.554 1.617 1.617 0 0 0-1.554-1.675l-26.912-1.008a1.612 1.612 0 0 0-1.53.941 1.616 1.616 0 0 0 1.41 2.289z" fill="#008BC4"/><path d="M65.81 168.44a6.732 6.732 0 1 1-4.05-12.84 6.732 6.732 0 0 1 4.05 12.84z" fill="#74969D"/><path d="M132.037 71.201c6.155-17.442 7.311-35.142 1.843-53.181a4.064 4.064 0 0 0-3.919-4.2l-40.163-1.393a4.067 4.067 0 0 0-4.201 3.92l-1.843 53.18a4.067 4.067 0 0 0 3.919 4.201l40.163 1.392a4.066 4.066 0 0 0 4.201-3.919z" fill="#E6E6E6"/><path d="M129.513 55.032c4.343-8.457 3.447-20.815 1.185-34.19a3.809 3.809 0 0 0-3.67-3.934L92.51 15.71a3.81 3.81 0 0 0-3.934 3.67l-1.64 47.325a3.809 3.809 0 0 0 3.67 3.934l21.383.741a16.966 16.966 0 0 0 17.524-16.35z" fill="#fff"/><path d="m95.392 42.448 26.912 1.008a1.614 1.614 0 0 0 1.245-2.714 1.618 1.618 0 0 0-1.124-.516L95.513 39.22a1.616 1.616 0 0 0-.121 3.23zM116.715 34.379l5.92.221a1.618 1.618 0 0 0 1.674-1.554 1.617 1.617 0 0 0-1.553-1.675l-5.92-.222a1.614 1.614 0 0 0-1.577 2.177 1.61 1.61 0 0 0 .842.907c.193.088.401.138.614.146zM95.126 49.546l26.912 1.008A1.619 1.619 0 0 0 123.713 49a1.613 1.613 0 0 0-1.554-1.675l-26.912-1.008a1.617 1.617 0 1 0-.12 3.23z" fill="#008BC4"/><path d="M131.957 23.56a6.732 6.732 0 1 1-4.049-12.84 6.732 6.732 0 0 1 4.049 12.84z" fill="#74969D"/></svg>