<svg width="150" height="233" viewBox="0 0 150 233" fill="none" xmlns="http://www.w3.org/2000/svg">
<path d="M64.4032 215.843C70.5581 198.401 71.7136 180.701 66.2465 162.662C66.2826 161.585 65.8902 160.539 65.1555 159.751C64.4207 158.964 63.4036 158.5 62.3273 158.461L22.1635 157.069C21.0871 157.033 20.0403 157.425 19.2528 158.16C18.4653 158.895 18.0014 159.912 17.9629 160.988L16.1196 214.17C16.0835 215.246 16.4759 216.293 17.2106 217.08C17.9453 217.868 18.9624 218.332 20.0388 218.37L60.2025 219.763C61.2789 219.799 62.3258 219.406 63.1133 218.672C63.9008 217.937 64.3647 216.92 64.4032 215.843Z" fill="#E6E6E6"/>
<path d="M61.8791 199.674C66.2222 191.217 65.3262 178.859 63.0642 165.484C63.098 164.476 62.7305 163.495 62.0424 162.758C61.3543 162.02 60.4018 161.586 59.3937 161.55L24.8763 160.353C23.8682 160.319 22.8878 160.687 22.1502 161.375C21.4127 162.063 20.9781 163.016 20.942 164.024L19.3017 211.348C19.2679 212.356 19.6354 213.336 20.3236 214.074C21.0117 214.812 21.9643 215.246 22.9724 215.282L44.3552 216.023C48.8457 216.174 53.2126 214.537 56.4978 211.472C59.7831 208.407 61.7183 204.164 61.8791 199.674V199.674Z" fill="white"/>
<path d="M27.7578 187.09L54.6697 188.097C55.098 188.113 55.5151 187.958 55.8292 187.667C56.1434 187.375 56.3289 186.971 56.3449 186.543C56.361 186.115 56.2062 185.698 55.9147 185.383C55.6232 185.069 55.2189 184.884 54.7906 184.868L27.8787 183.86C27.4507 183.845 27.0341 184 26.7203 184.291C26.4065 184.582 26.2212 184.987 26.2052 185.414C26.1892 185.842 26.3437 186.259 26.6349 186.573C26.926 186.887 27.3299 187.073 27.7578 187.09V187.09Z" fill="#008BC4"/>
<path d="M49.0807 179.02L55.0013 179.242C55.2134 179.25 55.4251 179.216 55.6243 179.143C55.8234 179.069 56.006 178.957 56.1618 178.812C56.3175 178.668 56.4433 178.494 56.5318 178.301C56.6204 178.108 56.6701 177.9 56.678 177.688C56.686 177.475 56.6521 177.264 56.5782 177.065C56.5042 176.866 56.3918 176.683 56.2473 176.528C56.1028 176.372 55.929 176.246 55.736 176.158C55.5429 176.07 55.3343 176.02 55.1222 176.012L49.2015 175.791C48.7736 175.775 48.3569 175.93 48.0431 176.222C47.7293 176.513 47.5441 176.917 47.528 177.345C47.512 177.773 47.6665 178.19 47.9577 178.504C48.2488 178.818 48.6527 179.004 49.0807 179.02V179.02Z" fill="#008BC4"/>
<path d="M27.2263 201.287L54.1382 202.295C54.5662 202.31 54.9828 202.155 55.2966 201.864C55.6104 201.572 55.7957 201.168 55.8117 200.74C55.8277 200.312 55.6732 199.896 55.3821 199.581C55.091 199.267 54.687 199.082 54.2591 199.065L27.3471 198.058C26.9192 198.042 26.5025 198.197 26.1887 198.489C25.8749 198.78 25.6897 199.184 25.6737 199.612C25.6576 200.04 25.8122 200.457 26.1033 200.771C26.3944 201.085 26.7983 201.271 27.2263 201.287V201.287Z" fill="#008BC4"/>
<path d="M27.4922 194.189L54.404 195.196C54.8323 195.212 55.2494 195.057 55.5635 194.766C55.8777 194.474 56.0632 194.07 56.0792 193.642C56.0952 193.214 55.9405 192.796 55.649 192.482C55.3575 192.168 54.9532 191.983 54.525 191.967L27.6131 190.959C27.4009 190.951 27.1892 190.985 26.9901 191.058C26.7909 191.132 26.6083 191.244 26.4525 191.389C26.2968 191.533 26.171 191.707 26.0824 191.9C25.9939 192.093 25.9442 192.301 25.9362 192.513C25.9283 192.725 25.9623 192.937 26.0362 193.136C26.1101 193.335 26.2225 193.518 26.367 193.673C26.5115 193.829 26.6852 193.955 26.8783 194.043C27.0714 194.131 27.28 194.181 27.4922 194.189V194.189Z" fill="#008BC4"/>
<path d="M65.8096 168.44C62.2637 169.558 58.4828 167.59 57.3648 164.044C56.2468 160.498 58.215 156.717 61.7609 155.599C65.3069 154.481 69.0877 156.449 70.2058 159.995C71.3238 163.541 69.3556 167.322 65.8096 168.44Z" fill="#74969D"/>
<path d="M132.037 71.2012C138.192 53.7587 139.348 36.0593 133.88 18.0198C133.917 16.9434 133.524 15.8966 132.789 15.1091C132.055 14.3216 131.038 13.8577 129.961 13.8192L89.7975 12.427C88.7211 12.3909 87.6743 12.7833 86.8868 13.5181C86.0993 14.2528 85.6354 15.2699 85.5969 16.3463L83.7535 69.5276C83.7174 70.6041 84.1098 71.6508 84.8446 72.4383C85.5793 73.2258 86.5964 73.6898 87.6727 73.7283L127.836 75.1204C128.913 75.1565 129.96 74.7642 130.747 74.0294C131.535 73.2947 131.999 72.2776 132.037 71.2012Z" fill="#E6E6E6"/>
<path d="M129.513 55.0317C133.856 46.5751 132.96 34.2171 130.698 20.8419C130.732 19.8338 130.364 18.8534 129.676 18.1159C128.988 17.3784 128.036 16.9439 127.028 16.9078L92.5103 15.7114C91.5022 15.6776 90.5218 16.0451 89.7842 16.7332C89.0467 17.4213 88.6122 18.3738 88.5761 19.3819L86.9357 66.706C86.9019 67.7142 87.2695 68.6945 87.9576 69.432C88.6458 70.1696 89.5983 70.604 90.6064 70.6401L111.989 71.3813C116.48 71.5318 120.847 69.8951 124.132 66.83C127.417 63.7649 129.352 59.5218 129.513 55.0317V55.0317Z" fill="white"/>
<path d="M95.392 42.4482L122.304 43.4557C122.732 43.4718 123.149 43.317 123.463 43.0255C123.778 42.734 123.963 42.3297 123.979 41.9015C123.995 41.4732 123.84 41.0562 123.549 40.742C123.257 40.4279 122.853 40.2424 122.425 40.2263L95.5129 39.2188C95.0849 39.2032 94.6682 39.3582 94.3544 39.6496C94.0407 39.9411 93.8554 40.3452 93.8394 40.7731C93.8233 41.2011 93.9779 41.6179 94.269 41.932C94.5602 42.2461 94.964 42.4318 95.392 42.4482V42.4482Z" fill="#008BC4"/>
<path d="M116.715 34.3785L122.635 34.6001C123.063 34.6157 123.48 34.4607 123.794 34.1693C124.107 33.8779 124.293 33.4738 124.309 33.0458C124.325 32.6178 124.17 32.2011 123.879 31.887C123.588 31.5729 123.184 31.3872 122.756 31.3707L116.836 31.149C116.623 31.1409 116.412 31.1746 116.213 31.2483C116.013 31.322 115.831 31.4343 115.675 31.5786C115.519 31.723 115.394 31.8966 115.305 32.0896C115.216 32.2825 115.167 32.4911 115.159 32.7033C115.151 32.9154 115.185 33.1271 115.259 33.3262C115.333 33.5252 115.445 33.7077 115.59 33.8633C115.734 34.0189 115.908 34.1445 116.101 34.2329C116.294 34.3213 116.502 34.3707 116.715 34.3785V34.3785Z" fill="#008BC4"/>
<path d="M95.1263 49.5464L122.038 50.5539C122.466 50.5699 122.883 50.4152 123.198 50.1237C123.512 49.8322 123.697 49.4279 123.713 48.9996C123.729 48.5714 123.575 48.1543 123.283 47.8402C122.992 47.526 122.587 47.3405 122.159 47.3245L95.2472 46.317C95.035 46.3089 94.8233 46.3426 94.6242 46.4163C94.425 46.49 94.2423 46.6022 94.0866 46.7466C93.9309 46.8909 93.8051 47.0645 93.7165 47.2575C93.6279 47.4505 93.5783 47.659 93.5703 47.8712C93.5624 48.0834 93.5963 48.295 93.6703 48.4941C93.7442 48.6932 93.8566 48.8757 94.0011 49.0313C94.1456 49.1869 94.3193 49.3124 94.5124 49.4008C94.7055 49.4892 94.9141 49.5387 95.1263 49.5464Z" fill="#008BC4"/>
<path d="M131.957 23.5606C128.411 24.6786 124.63 22.7104 123.512 19.1645C122.394 15.6186 124.362 11.8377 127.908 10.7197C131.454 9.60166 135.235 11.5698 136.353 15.1158C137.471 18.6617 135.503 22.4426 131.957 23.5606Z" fill="#74969D"/>
</svg>
